<svg width="1761" height="246" viewBox="0 0 1761 246" fill="none" xmlns="http://www.w3.org/2000/svg">
<path d="M29.8663 104.236H4.30075C8.36256 76.0263 27.7159 59.2916 59.4936 59.2916C94.1385 59.2916 111.342 79.6123 111.342 109.257V158.983C111.342 174.283 112.775 183.128 115.642 190.061H88.8821C86.9706 185.28 86.2538 178.586 86.0149 171.414C75.263 186.475 58.7768 193.169 43.4853 193.169C17.6808 193.169 0 180.977 0 156.592C0 139.14 9.55721 126.23 28.6716 119.776C45.6357 114.038 62.8387 112.604 85.776 112.364V109.496C85.776 90.8484 77.1745 80.8076 57.5822 80.8076C41.096 80.8076 32.2556 89.8921 29.8663 104.236ZM25.8045 155.636C25.8045 166.394 34.6449 173.087 48.2639 173.087C69.5287 173.087 85.776 156.114 85.776 135.554V129.816C36.7953 130.294 25.8045 141.053 25.8045 155.636Z" fill="#6A6F6B"/>
<path d="M129.063 190.061V62.6385H154.629V78.8951C162.753 65.7464 175.416 59.2916 190.469 59.2916C207.433 59.2916 220.096 66.7026 226.308 81.2857C234.671 66.7026 248.529 59.2916 265.254 59.2916C290.341 59.2916 306.589 74.8309 306.589 104.953V190.061H281.023V110.213C281.023 91.8047 274.094 80.5685 258.325 80.5685C241.122 80.5685 230.609 97.5423 230.609 115.233V190.061H205.043V110.213C205.043 91.8047 197.875 80.5685 182.345 80.5685C165.142 80.5685 154.629 97.5423 154.629 115.233V190.061H129.063Z" fill="#6A6F6B"/>
<path d="M347.457 104.236H321.891C325.953 76.0263 345.307 59.2916 377.084 59.2916C411.729 59.2916 428.932 79.6123 428.932 109.257V158.983C428.932 174.283 430.366 183.128 433.233 190.061H406.473C404.561 185.28 403.844 178.586 403.606 171.414C392.854 186.475 376.367 193.169 361.076 193.169C335.271 193.169 317.591 180.977 317.591 156.592C317.591 139.14 327.148 126.23 346.262 119.776C363.226 114.038 380.429 112.604 403.367 112.364V109.496C403.367 90.8484 394.765 80.8076 375.173 80.8076C358.687 80.8076 349.846 89.8921 347.457 104.236ZM343.395 155.636C343.395 166.394 352.236 173.087 365.855 173.087C387.119 173.087 403.367 156.114 403.367 135.554V129.816C354.386 130.294 343.395 141.053 343.395 155.636Z" fill="#6A6F6B"/>
<path d="M438.292 190.061V170.219L510.926 82.4811H441.159V62.6385H541.27V82.4811L468.636 170.219H545.332V190.061H438.292Z" fill="#6A6F6B"/>
<path d="M553.65 46.8601V17.933H579.216V46.8601H553.65ZM553.65 190.061V62.6385H579.216V190.061H553.65Z" fill="#6A6F6B"/>
<path d="M595.78 190.061V62.6385H621.346V79.6123C629.947 65.9854 643.327 59.2916 659.813 59.2916C686.335 59.2916 702.821 74.8309 702.821 104.953V190.061H677.494V110.213C677.494 91.8047 669.371 80.5685 651.929 80.5685C632.814 80.5685 621.346 97.5423 621.346 115.233V190.061H595.78Z" fill="#6A6F6B"/>
<path d="M765.451 190.778C732.956 190.778 713.364 165.915 713.364 125.274C713.364 82.7201 733.434 59.2916 765.451 59.2916C781.698 59.2916 793.883 65.0292 802.007 76.0263V62.6385H827.572V194.125C827.572 229.029 804.396 246.003 773.813 246.003C743.23 246.003 721.248 231.659 716.709 202.015H742.274C744.664 217.315 756.849 225.443 773.574 225.443C790.538 225.443 802.007 216.598 802.007 194.604V173.087C793.405 184.802 780.981 190.778 765.451 190.778ZM770.707 169.262C791.016 169.262 802.007 153.723 802.007 125.035C802.007 97.0642 790.538 80.8076 770.707 80.8076C750.398 80.8076 739.407 96.347 739.407 125.274C739.407 153.245 750.637 169.262 770.707 169.262Z" fill="#6A6F6B"/>
<path d="M906.166 136.51C914.289 133.641 921.696 130.693 928.386 127.665C935.235 124.637 940.81 121.369 945.111 117.863C951.005 112.922 955.624 107.105 958.969 100.411C962.473 93.5578 964.226 86.0671 964.226 77.9388C964.226 73.795 963.907 71.1652 963.27 70.0496C962.633 68.7746 961.677 68.137 960.403 68.137C956.58 68.137 952.438 69.8902 947.978 73.3965C943.677 76.9028 939.377 81.7639 935.076 87.9796C930.775 94.036 926.793 100.969 923.13 108.778C919.625 116.429 916.758 124.637 914.528 133.402C912.457 142.009 911.422 150.536 911.422 158.983C911.422 167.27 912.935 173.167 915.962 176.673C919.147 180.18 923.289 181.933 928.386 181.933C933.643 181.933 939.456 180.339 945.828 177.152C952.199 173.805 958.491 167.908 964.703 159.461L968.526 161.373C965.341 166.633 961.199 171.733 956.102 176.673C951.005 181.614 945.191 185.678 938.66 188.866C932.289 191.894 925.36 193.408 917.873 193.408C911.342 193.408 905.528 192.133 900.431 189.583C895.334 187.033 891.352 183.288 888.485 178.347C885.777 173.247 884.423 167.031 884.423 159.7C884.423 152.368 885.697 144.399 888.246 135.793C890.954 127.027 894.697 118.421 899.475 109.974C904.413 101.527 910.227 93.7969 916.917 86.7843C923.607 79.6123 931.094 73.9543 939.377 69.8105C947.66 65.6667 956.42 63.5948 965.659 63.5948C971.393 63.5948 976.172 65.0292 979.995 67.898C983.818 70.6074 985.729 74.7512 985.729 80.3295C985.729 86.7046 983.897 92.6813 980.234 98.2595C976.73 103.678 971.951 108.619 965.898 113.082C959.845 117.544 953.235 121.529 946.067 125.035C939.058 128.541 931.97 131.57 924.802 134.12C917.793 136.67 911.502 138.742 905.927 140.335L906.166 136.51Z" fill="#6A6F6B"/>
<path d="M1093.58 103.519C1088.48 100.969 1083.86 97.3032 1079.72 92.5219C1075.58 87.7405 1073.67 82.0029 1073.99 75.3091C1074.3 71.1652 1075.66 68.137 1078.05 66.2245C1080.6 64.312 1083.3 63.3557 1086.17 63.3557C1091.91 63.3557 1095.89 66.3042 1098.12 72.2012C1100.35 78.0982 1101.06 85.7483 1100.27 95.1516C1099.31 104.396 1097.56 113.719 1095.01 123.122C1092.46 132.366 1089.04 141.212 1084.74 149.659C1080.6 158.106 1075.5 165.676 1069.45 172.37C1063.55 178.905 1056.78 184.085 1049.14 187.91C1041.65 191.575 1033.29 193.408 1024.05 193.408C1016.24 193.408 1010.19 191.974 1005.89 189.105C1001.59 186.077 998.564 182.331 996.812 177.869C995.059 173.247 994.343 168.545 994.661 163.764C995.139 154.52 997.927 144.798 1003.02 134.598C1008.12 124.397 1014.89 114.038 1023.33 103.519C1031.93 93 1041.81 82.7998 1052.96 72.9184C1049.93 73.7153 1046.91 75.07 1043.88 76.9825C1040.85 78.7357 1037.99 80.5685 1035.28 82.4811C1032.57 84.3936 1029.94 86.0671 1027.39 87.5015C1024.85 88.7765 1022.38 89.414 1019.99 89.414C1016.96 89.414 1014.41 88.5374 1012.34 86.7843C1010.27 84.8717 1007.96 83.9155 1005.41 83.9155C1002.86 83.9155 1000.79 84.9514 999.201 87.0233C997.767 88.9359 996.174 92.4422 994.422 97.5423L992.033 105.671H987.493L992.75 88.2187C995.458 78.4966 998.803 71.9621 1002.78 68.6152C1006.93 65.2682 1011.07 63.5948 1015.21 63.5948C1018.24 63.5948 1020.78 64.3917 1022.85 65.9854C1024.93 67.4198 1027.08 68.8542 1029.31 70.2886C1031.54 71.7231 1034.32 72.4403 1037.67 72.4403C1041.17 72.4403 1044.52 71.9621 1047.7 71.0059C1051.05 69.8902 1054.15 68.137 1057.02 65.7464L1059.41 61.2041L1064.43 63.5948C1058.22 71.5637 1052.64 79.6123 1047.7 87.7405C1042.93 95.8688 1038.78 104.077 1035.28 112.364C1031.78 120.493 1028.99 128.621 1026.92 136.749C1024.85 144.718 1023.49 152.687 1022.85 160.656C1022.22 169.103 1022.86 175.239 1024.77 179.064C1026.68 182.73 1029.47 184.563 1033.13 184.563C1040.14 184.563 1046.59 182.73 1052.48 179.064C1058.54 175.398 1063.95 170.617 1068.73 164.72C1073.51 158.664 1077.65 152.05 1081.15 144.878C1084.66 137.546 1087.45 130.294 1089.52 123.122C1091.59 115.95 1092.94 109.416 1093.58 103.519Z" fill="#6A6F6B"/>
<path d="M1124.23 136.51C1132.35 133.641 1139.76 130.693 1146.45 127.665C1153.3 124.637 1158.87 121.369 1163.17 117.863C1169.07 112.922 1173.69 107.105 1177.03 100.411C1180.53 93.5578 1182.29 86.0671 1182.29 77.9388C1182.29 73.795 1181.97 71.1652 1181.33 70.0496C1180.69 68.7746 1179.74 68.137 1178.46 68.137C1174.64 68.137 1170.5 69.8902 1166.04 73.3965C1161.74 76.9028 1157.44 81.7639 1153.14 87.9796C1148.84 94.036 1144.85 100.969 1141.19 108.778C1137.69 116.429 1134.82 124.637 1132.59 133.402C1130.52 142.009 1129.48 150.536 1129.48 158.983C1129.48 167.27 1131 173.167 1134.02 176.673C1137.21 180.18 1141.35 181.933 1146.45 181.933C1151.7 181.933 1157.52 180.339 1163.89 177.152C1170.26 173.805 1176.55 167.908 1182.76 159.461L1186.59 161.373C1183.4 166.633 1179.26 171.733 1174.16 176.673C1169.07 181.614 1163.25 185.678 1156.72 188.866C1150.35 191.894 1143.42 193.408 1135.93 193.408C1129.4 193.408 1123.59 192.133 1118.49 189.583C1113.4 187.033 1109.41 183.288 1106.55 178.347C1103.84 173.247 1102.48 167.031 1102.48 159.7C1102.48 152.368 1103.76 144.399 1106.31 135.793C1109.01 127.027 1112.76 118.421 1117.54 109.974C1122.47 101.527 1128.29 93.7969 1134.98 86.7843C1141.67 79.6123 1149.16 73.9543 1157.44 69.8105C1165.72 65.6667 1174.48 63.5948 1183.72 63.5948C1189.45 63.5948 1194.23 65.0292 1198.06 67.898C1201.88 70.6074 1203.79 74.7512 1203.79 80.3295C1203.79 86.7046 1201.96 92.6813 1198.3 98.2595C1194.79 103.678 1190.01 108.619 1183.96 113.082C1177.91 117.544 1171.3 121.529 1164.13 125.035C1157.12 128.541 1150.03 131.57 1142.86 134.12C1135.85 136.67 1129.56 138.742 1123.99 140.335L1124.23 136.51Z" fill="#6A6F6B"/>
<path d="M1230.64 190.061H1205.55L1234.23 87.2624C1235.66 82.1623 1236.14 78.5763 1235.66 76.5044C1235.18 74.4325 1233.67 73.3965 1231.12 73.3965C1227.93 73.3965 1224.99 75.07 1222.28 78.4169C1219.57 81.7639 1216.7 87.5812 1213.68 95.8688L1210.09 105.91H1205.55L1211.53 88.2187C1213.92 81.6842 1216.78 76.6638 1220.13 73.1574C1223.47 69.6511 1226.98 67.1808 1230.64 65.7464C1234.47 64.312 1238.21 63.5948 1241.87 63.5948C1246.81 63.5948 1250.39 64.6307 1252.62 66.7026C1254.85 68.7746 1256.21 71.484 1256.69 74.8309C1257.16 78.1779 1257.08 81.8436 1256.45 85.828C1255.97 89.6531 1255.25 93.3985 1254.3 97.0642L1230.64 190.061ZM1291.81 69.3324C1288.3 69.3324 1284.64 70.8465 1280.82 73.8747C1276.99 76.7435 1273.09 81.1264 1269.11 87.0233C1265.13 92.9203 1261.07 100.331 1256.92 109.257C1252.94 118.182 1248.88 128.621 1244.74 140.574C1240.76 152.368 1236.77 165.756 1232.79 180.738L1238.53 149.659C1243.62 133.402 1248.4 119.776 1252.86 108.778C1257.32 97.7814 1261.7 89.0156 1266 82.4811C1270.46 75.7872 1275 71.0059 1279.62 68.137C1284.4 65.1089 1289.5 63.5948 1294.91 63.5948C1300.01 63.5948 1303.91 65.1089 1306.62 68.137C1309.49 71.0059 1310.92 74.6715 1310.92 79.1341C1310.92 82.7998 1310.05 86.1468 1308.29 89.1749C1306.54 92.0438 1304.23 94.4344 1301.37 96.347C1298.66 98.1001 1295.55 98.9767 1292.05 98.9767C1288.7 98.9767 1285.99 98.1001 1283.92 96.347C1281.85 94.4344 1280.82 91.8047 1280.82 88.4577C1280.82 85.4296 1281.45 82.7201 1282.73 80.3295C1284 77.9388 1285.68 75.8669 1287.75 74.1137C1289.82 72.3606 1292.13 71.0855 1294.68 70.2886C1294.36 69.9699 1293.96 69.7308 1293.48 69.5714C1293 69.4121 1292.45 69.3324 1291.81 69.3324Z" fill="#6A6F6B"/>
<path d="M1366.69 178.825L1347.58 200.102L1328.94 87.7405C1328.14 82.9592 1327.27 79.692 1326.31 77.9388C1325.36 76.0263 1323.84 75.07 1321.77 75.07C1320.18 75.07 1318.35 76.4247 1316.28 79.1341C1314.21 81.6842 1311.66 87.1827 1308.63 95.6298L1305.29 105.432H1300.75L1306.72 87.9796C1310.06 78.2575 1314.21 71.8027 1319.14 68.6152C1324.08 65.2682 1329.26 63.5948 1334.67 63.5948C1340.25 63.5948 1344.55 65.2682 1347.58 68.6152C1350.76 71.8027 1352.99 77.8591 1354.27 86.7843L1366.69 178.825ZM1312.69 223.531C1319.86 219.865 1327.35 214.845 1335.15 208.469C1342.96 202.254 1351 193.807 1359.28 183.128C1368.52 171.494 1376.81 158.584 1384.13 144.399C1391.46 130.215 1396.72 116.11 1399.9 102.085C1396.88 100.331 1393.77 98.2595 1390.58 95.8688C1387.56 93.3188 1385.01 90.45 1382.94 87.2624C1381.03 84.0749 1380.15 80.4888 1380.31 76.5044C1380.63 72.3606 1381.98 69.173 1384.37 66.9417C1386.76 64.7104 1389.95 63.5948 1393.93 63.5948C1398.55 63.5948 1401.89 65.3479 1403.96 68.8542C1406.19 72.2012 1407.31 77.1419 1407.31 83.6764C1407.31 91.6453 1405.95 100.252 1403.25 109.496C1400.7 118.58 1397.11 127.904 1392.49 137.466C1388.04 147.029 1383.02 156.273 1377.44 165.198C1371.87 173.964 1366.13 182.013 1360.24 189.344C1356.89 193.488 1352.67 198.03 1347.58 202.971C1342.64 208.071 1336.98 213.012 1330.61 217.793C1324.4 222.574 1317.47 226.559 1309.83 229.746C1305.52 231.659 1301.7 233.014 1298.36 233.811C1295.17 234.607 1292.54 235.006 1290.47 235.006C1286.65 235.006 1283.46 234.05 1280.91 232.137C1278.21 230.225 1276.85 227.515 1276.85 224.009C1276.85 220.343 1278.29 217.395 1281.15 215.163C1283.86 212.932 1287.13 211.816 1290.95 211.816C1295.09 211.816 1298.91 212.932 1302.42 215.163C1306.08 217.554 1309.51 220.343 1312.69 223.531Z" fill="#6A6F6B"/>
<path d="M1497.49 169.741C1496.38 173.406 1495.98 176.673 1496.3 179.542C1496.78 182.252 1498.53 183.606 1501.55 183.606C1504.42 183.606 1507.13 182.013 1509.68 178.825C1512.39 175.638 1515.17 169.741 1518.04 161.134L1521.38 151.332H1525.92L1520.19 168.784C1518.28 175.159 1515.65 180.18 1512.31 183.846C1509.12 187.352 1505.62 189.822 1501.79 191.257C1498.13 192.691 1494.62 193.408 1491.28 193.408C1481.56 193.408 1476.15 189.185 1475.03 180.738C1474.4 178.028 1474.24 174.841 1474.55 171.175C1475.03 167.35 1475.99 163.126 1477.42 158.504L1511.35 30.6035C1512.78 25.1847 1512.54 21.2002 1510.63 18.6502C1508.72 16.1001 1503.86 14.8251 1496.06 14.8251L1497.49 9.80468C1507.21 9.6453 1515.73 8.76871 1523.06 7.17493C1530.54 5.42178 1537.63 3.03111 1544.32 0.00292969L1497.49 169.741ZM1442.78 184.324C1446.28 184.324 1450.34 182.172 1454.96 177.869C1459.58 173.566 1464.28 167.589 1469.06 159.939C1473.84 152.289 1478.3 143.363 1482.44 133.163C1486.74 122.804 1490.24 111.807 1492.95 100.172L1489.37 125.991C1483.47 142.088 1477.58 155.078 1471.69 164.959C1465.95 174.841 1459.98 182.092 1453.77 186.714C1447.56 191.177 1440.71 193.408 1433.22 193.408C1428.28 193.408 1423.82 192.293 1419.84 190.061C1415.86 187.671 1412.75 184.164 1410.52 179.542C1408.29 174.761 1407.18 168.625 1407.18 161.134C1407.18 153.643 1408.37 145.515 1410.76 136.749C1413.31 127.984 1416.81 119.297 1421.27 110.691C1425.89 102.085 1431.39 94.275 1437.76 87.2624C1444.29 80.0904 1451.54 74.3528 1459.5 70.0496C1467.47 65.7464 1476.07 63.5948 1485.31 63.5948C1489.45 63.5948 1492.95 64.9495 1495.82 67.6589C1498.85 70.209 1500.52 74.034 1500.84 79.1341L1498.93 83.9155C1498.29 78.656 1496.85 74.9106 1494.62 72.6793C1492.39 70.2886 1489.69 69.0933 1486.5 69.0933C1481.09 69.0933 1475.75 71.0855 1470.49 75.07C1465.24 79.0544 1460.38 84.4733 1455.92 91.3265C1451.46 98.0204 1447.48 105.511 1443.97 113.799C1440.63 122.087 1438 130.693 1436.09 139.618C1434.18 148.384 1433.22 156.831 1433.22 164.959C1433.22 171.494 1434.02 176.355 1435.61 179.542C1437.2 182.73 1439.59 184.324 1442.78 184.324Z" fill="#6A6F6B"/>
<path d="M1565.04 184.085C1568.54 184.085 1572.45 182.013 1576.75 177.869C1581.05 173.725 1585.43 168.067 1589.89 160.895C1594.35 153.564 1598.49 145.117 1602.31 135.554C1606.14 125.991 1609.32 115.791 1611.87 104.953L1607.57 131.012C1602.15 146.153 1596.58 158.345 1590.84 167.589C1585.27 176.674 1579.54 183.288 1573.64 187.432C1567.75 191.416 1561.69 193.408 1555.48 193.408C1547.52 193.408 1541.55 190.778 1537.56 185.519C1533.58 180.1 1531.59 173.008 1531.59 164.242C1531.59 156.273 1532.86 147.746 1535.41 138.662C1538.12 129.577 1541.78 120.572 1546.4 111.647C1551.18 102.722 1556.6 94.6735 1562.65 87.5015C1568.7 80.3295 1575.23 74.5919 1582.24 70.2886C1589.25 65.8261 1596.26 63.5948 1603.27 63.5948C1608.68 63.5948 1612.83 66.1448 1615.69 71.2449C1618.72 76.1856 1619.44 83.4373 1617.84 93L1615.22 94.4344C1616.33 86.9437 1615.85 80.967 1613.78 76.5044C1611.87 71.8824 1608.68 69.5714 1604.22 69.5714C1600.4 69.5714 1596.34 71.5637 1592.04 75.5481C1587.74 79.3732 1583.52 84.7124 1579.38 91.5656C1575.39 98.2595 1571.65 105.83 1568.15 114.277C1564.8 122.724 1562.17 131.49 1560.26 140.574C1558.35 149.5 1557.39 158.265 1557.39 166.872C1557.39 173.247 1558.03 177.709 1559.31 180.26C1560.74 182.81 1562.65 184.085 1565.04 184.085ZM1622.14 66.9417C1626.92 66.7823 1631.54 66.4636 1636 65.9854C1640.46 65.5073 1644.6 64.7104 1648.43 63.5948L1618.08 169.501C1617.6 171.255 1617.13 173.247 1616.65 175.478C1616.33 177.55 1616.41 179.383 1616.89 180.977C1617.53 182.57 1619.04 183.367 1621.43 183.367C1624.29 183.367 1627.16 181.853 1630.03 178.825C1632.9 175.638 1635.76 169.661 1638.63 160.895L1641.98 151.093H1646.52L1640.54 168.545C1638.31 175.08 1635.6 180.1 1632.42 183.606C1629.23 187.113 1625.81 189.583 1622.14 191.018C1618.64 192.611 1615.22 193.408 1611.87 193.408C1604.86 193.408 1599.92 191.177 1597.06 186.714C1594.99 183.208 1594.27 178.984 1594.91 174.044C1595.7 168.944 1596.82 163.684 1598.25 158.265L1622.14 66.9417Z" fill="#6A6F6B"/>
<path d="M1720.38 178.825L1701.27 200.102L1682.63 87.7405C1681.83 82.9592 1680.96 79.692 1680 77.9388C1679.05 76.0263 1677.53 75.07 1675.46 75.07C1673.87 75.07 1672.04 76.4247 1669.97 79.1341C1667.9 81.6842 1665.35 87.1827 1662.32 95.6298L1658.98 105.432H1654.44L1660.41 87.9796C1663.76 78.2575 1667.9 71.8027 1672.83 68.6152C1677.77 65.2682 1682.95 63.5948 1688.37 63.5948C1693.94 63.5948 1698.24 65.2682 1701.27 68.6152C1704.45 71.8027 1706.68 77.8591 1707.96 86.7843L1720.38 178.825ZM1666.38 223.531C1673.55 219.865 1681.04 214.845 1688.84 208.469C1696.65 202.254 1704.69 193.807 1712.98 183.128C1722.21 171.494 1730.5 158.584 1737.82 144.399C1745.15 130.215 1750.41 116.11 1753.59 102.085C1750.57 100.331 1747.46 98.2595 1744.28 95.8688C1741.25 93.3188 1738.7 90.45 1736.63 87.2624C1734.72 84.0749 1733.84 80.4888 1734 76.5044C1734.32 72.3606 1735.67 69.173 1738.06 66.9417C1740.45 64.7104 1743.64 63.5948 1747.62 63.5948C1752.24 63.5948 1755.58 65.3479 1757.66 68.8542C1759.89 72.2012 1761 77.1419 1761 83.6764C1761 91.6453 1759.65 100.252 1756.94 109.496C1754.39 118.58 1750.81 127.904 1746.19 137.466C1741.73 147.029 1736.71 156.273 1731.13 165.198C1725.56 173.964 1719.82 182.013 1713.93 189.344C1710.59 193.488 1706.36 198.03 1701.27 202.971C1696.33 208.071 1690.67 213.012 1684.3 217.793C1678.09 222.574 1671.16 226.559 1663.52 229.746C1659.22 231.659 1655.39 233.014 1652.05 233.811C1648.86 234.607 1646.23 235.006 1644.16 235.006C1640.34 235.006 1637.15 234.05 1634.61 232.137C1631.9 230.225 1630.54 227.515 1630.54 224.009C1630.54 220.343 1631.98 217.395 1634.84 215.163C1637.55 212.932 1640.82 211.816 1644.64 211.816C1648.78 211.816 1652.61 212.932 1656.11 215.163C1659.77 217.554 1663.2 220.343 1666.38 223.531Z" fill="#6A6F6B"/>
</svg>
