<svg width="49" height="55" viewBox="0 0 49 55" fill="none" xmlns="http://www.w3.org/2000/svg">
<path d="M24.7885 4.14844C36.8739 4.14844 46.6866 13.9612 46.6866 26.0465V54.2576H2.89038V26.0465C2.89038 13.9612 12.7031 4.14844 24.7885 4.14844Z" fill="#FFE6DA"/>
<path d="M49 53.7617H0.578247V54.7981H49V53.7617Z" fill="#001D43"/>
<path d="M26.5561 7.82422H23.0209V8.65016H26.5561V7.82422Z" fill="#E04D1C"/>
<path d="M26.2931 7.14844H23.2839V7.82445H26.2931V7.14844Z" fill="#001F4C"/>
<path d="M35.2509 42.5742H14.618V53.1655H35.2509V42.5742Z" fill="#D13B13"/>
<path d="M27.6147 35.4922H21.9606C21.9606 35.4922 18.0321 40.2821 11.6166 42.5995L12.5188 43.1572C12.5188 43.1572 19.4289 44.5658 24.7883 42.4877C30.1478 44.5658 37.0578 43.1572 37.0578 43.1572L37.9601 42.5995C31.5445 40.2821 27.616 35.4922 27.616 35.4922H27.6147Z" fill="#F55B02"/>
<path d="M37.9588 42.3983L37.0565 42.956C37.0565 42.956 30.2714 44.3396 24.933 42.3418H24.641C19.3026 44.3396 12.5175 42.956 12.5175 42.956L11.6153 42.3983C11.0419 42.6062 10.4487 42.7929 9.83582 42.956L11.3943 43.6478C11.7639 43.8109 12.1545 43.9214 12.5543 43.9713C14.5534 44.2225 20.9177 44.8657 24.7857 43.4755C28.6524 44.8657 35.018 44.2225 37.0171 43.9713C37.4182 43.9214 37.8088 43.8122 38.1771 43.6478L39.7356 42.956C39.1227 42.7942 38.5296 42.6062 37.9561 42.3983H37.9588Z" fill="#001F4C"/>
<path d="M24.4096 46.1836H16.3698V51.305H24.4096V46.1836Z" fill="#FFF1EA"/>
<path d="M33.4989 46.1836H25.4591V51.305H33.4989V46.1836Z" fill="#FFF1EA"/>
<path d="M35.2508 49.4434H14.6179V49.7919H35.2508V49.4434Z" fill="#001F4C"/>
<path d="M33.7766 31.4062H16.0503V40.5061H33.7766V31.4062Z" fill="#D13B13"/>
<path d="M27.2177 25.3223H22.3607C22.3607 25.3223 18.9846 29.4375 13.4739 31.4287L14.2485 31.9075C14.2485 31.9075 20.1853 33.1175 24.7886 31.3327C29.3931 33.1188 35.3286 31.9075 35.3286 31.9075L36.1032 31.4287C30.5925 29.4388 27.2164 25.3223 27.2164 25.3223H27.2177Z" fill="#F55B02"/>
<path d="M36.1045 31.2557L35.3299 31.7344C35.3299 31.7344 29.4996 32.9234 24.9148 31.207H24.6649C20.0788 32.9234 14.2498 31.7344 14.2498 31.7344L13.4752 31.2557C12.982 31.4332 12.473 31.595 11.9469 31.7344L13.2858 32.3289C13.6027 32.4696 13.9381 32.563 14.2827 32.6064C16.0003 32.8221 21.4676 33.3745 24.7912 32.1803C28.1133 33.3745 33.582 32.8221 35.2996 32.6064C35.6442 32.563 35.9796 32.4696 36.2965 32.3289L37.6354 31.7344C37.1093 31.595 36.599 31.4332 36.1071 31.2557H36.1045Z" fill="#001F4C"/>
<path d="M24.4637 34.5059H17.5563V38.9052H24.4637V34.5059Z" fill="#FFF1EA"/>
<path d="M32.2721 34.5059H25.3646V38.9052H32.2721V34.5059Z" fill="#FFF1EA"/>
<path d="M33.7767 37.3066H16.0504V37.6065H33.7767V37.3066Z" fill="#001F4C"/>
<path d="M32.7227 21.668H17.0731V29.7012H32.7227V21.668Z" fill="#D13B13"/>
<path d="M26.9321 16.2969H22.6432C22.6432 16.2969 19.663 19.9308 14.7968 21.6879L15.4807 22.1101C15.4807 22.1101 20.7217 23.1793 24.787 21.6024C28.8523 23.1793 34.0934 22.1101 34.0934 22.1101L34.7773 21.6879C29.911 19.9308 26.9308 16.2969 26.9308 16.2969H26.9321Z" fill="#F55B02"/>
<path d="M34.7785 21.5356L34.0946 21.9578C34.0946 21.9578 28.9483 23.0073 24.8987 21.4922H24.6778C20.6296 23.0073 15.4819 21.9578 15.4819 21.9578L14.798 21.5356C14.3627 21.6921 13.9129 21.8355 13.4486 21.9578L14.631 22.4825C14.9111 22.6062 15.207 22.689 15.5108 22.7272C17.0273 22.9179 21.8554 23.4045 24.7883 22.351C27.7212 23.4058 32.5493 22.9179 34.0657 22.7272C34.3695 22.689 34.6654 22.6062 34.9456 22.4825L36.1279 21.9578C35.6637 21.8341 35.2139 21.6921 34.7785 21.5356Z" fill="#001F4C"/>
<path d="M24.5015 24.4062H18.403V28.29H24.5015V24.4062Z" fill="#FFF1EA"/>
<path d="M31.3958 24.4062H25.2972V28.29H31.3958V24.4062Z" fill="#FFF1EA"/>
<path d="M32.7227 26.8789H17.0731V27.1433H32.7227V26.8789Z" fill="#001F4C"/>
<path d="M24.9016 0.689453H24.6754V6.62233H24.9016V0.689453Z" fill="#001F4C"/>
<path d="M25.8406 6.47266H23.735V7.14867H25.8406V6.47266Z" fill="#001F4C"/>
<path d="M31.5395 13.2324H18.2257V20.0675H31.5395V13.2324Z" fill="#D13B13"/>
<path d="M26.6127 8.66211H22.9643C22.9643 8.66211 20.4286 11.7528 16.2897 13.2482L16.871 13.6073C16.871 13.6073 21.3295 14.5161 24.7885 13.1759C28.2462 14.5174 32.706 13.6073 32.706 13.6073L33.2873 13.2482C29.1484 11.7528 26.6127 8.66211 26.6127 8.66211Z" fill="#F55B02"/>
<path d="M33.2873 13.1189L32.706 13.4779C32.706 13.4779 28.3277 14.3709 24.8832 13.082H24.6951C21.2506 14.3709 16.8723 13.4779 16.8723 13.4779L16.291 13.1189C15.9214 13.253 15.5374 13.374 15.1428 13.4779L16.149 13.9238C16.387 14.029 16.6395 14.1 16.8973 14.1329C18.1875 14.2946 22.2949 14.7103 24.7898 13.812C27.2848 14.7089 31.3921 14.2946 32.6823 14.1329C32.9414 14.1 33.1926 14.0303 33.4307 13.9238L34.4368 13.4779C34.0423 13.3727 33.6582 13.2517 33.2887 13.1189H33.2873Z" fill="#001F4C"/>
<path d="M24.5439 15.5605H19.3555V18.8656H24.5439V15.5605Z" fill="#FFF1EA"/>
<path d="M30.4098 15.5605H25.2213V18.8656H30.4098V15.5605Z" fill="#FFF1EA"/>
<path d="M31.5396 17.6641H18.2258V17.889H31.5396V17.6641Z" fill="#001F4C"/>
<path d="M47.2797 53.1875H2.29724V53.7885H47.2797V53.1875Z" fill="#001F4C"/>
<path d="M44.3089 51.3105V51.9234H41.1498V51.3105H40.3226V51.9234H37.1634V51.3105H36.3362V51.9234H33.1771V51.3105H32.3498V51.9234H29.1907V51.3105H28.3634V51.9234H25.2043V51.3105H24.3771V51.9234H21.2179V51.3105H20.3907V51.9234H17.2316V51.3105H16.4043V51.9234H13.2452V51.3105H12.4179V51.9234H9.25882V51.3105H8.43156V51.9234H5.27245V51.3105H4.44519V53.4885H5.27245V52.5876H8.43156V53.4885H9.25882V52.5876H12.4179V53.4885H13.2452V52.5876H16.4043V53.4885H17.2316V52.5876H20.3907V53.4885H21.2179V52.5876H24.3771V53.4885H25.2043V52.5876H28.3634V53.4885H29.1907V52.5876H32.3498V53.4885H33.1771V52.5876H36.3362V53.4885H37.1634V52.5876H40.3226V53.4885H41.1498V52.5876H44.3089V53.4885H45.1362V51.3105H44.3089ZM5.26851 52.5126V51.9997H8.42762V52.5126H5.26851ZM9.25488 52.5126V51.9997H12.414V52.5126H9.25488ZM13.2413 52.5126V51.9997H16.4004V52.5126H13.2413ZM17.2276 52.5126V51.9997H20.3867V52.5126H17.2276ZM21.214 52.5126V51.9997H24.3731V52.5126H21.214ZM25.2004 52.5126V51.9997H28.3595V52.5126H25.2004ZM29.1868 52.5126V51.9997H32.3459V52.5126H29.1868ZM33.1731 52.5126V51.9997H36.3322V52.5126H33.1731ZM37.1595 52.5126V51.9997H40.3186V52.5126H37.1595ZM41.1459 52.5126V51.9997H44.305V52.5126H41.1459Z" fill="#001F4C"/>
</svg>
