<svg width="40" height="40" viewBox="0 0 40 40" fill="none" xmlns="http://www.w3.org/2000/svg">
<path d="M0.1 20C0.1 9.00953 9.00953 0.1 20 0.1C30.9905 0.1 39.9 9.00953 39.9 20C39.9 30.9905 30.9905 39.9 20 39.9C9.00953 39.9 0.1 30.9905 0.1 20Z" fill="white"/>
<path d="M0.1 20C0.1 9.00953 9.00953 0.1 20 0.1C30.9905 0.1 39.9 9.00953 39.9 20C39.9 30.9905 30.9905 39.9 20 39.9C9.00953 39.9 0.1 30.9905 0.1 20Z" stroke="#ADADAD" stroke-width="0.2"/>
<path d="M29.5756 13.5191C29.5052 13.4348 29.4172 13.3671 29.3177 13.3206C29.2183 13.2741 29.1098 13.25 29 13.25H13.8763L13.3062 10.1159C13.2749 9.94313 13.1838 9.78681 13.049 9.67425C12.9141 9.56169 12.7441 9.50003 12.5684 9.5H10.25C10.0511 9.5 9.86032 9.57902 9.71967 9.71967C9.57902 9.86032 9.5 10.0511 9.5 10.25C9.5 10.4489 9.57902 10.6397 9.71967 10.7803C9.86032 10.921 10.0511 11 10.25 11H11.9375L14.3337 24.1522C14.4043 24.5422 14.5767 24.9067 14.8334 25.2087C14.4791 25.5397 14.2234 25.9623 14.0946 26.4298C13.9657 26.8972 13.9689 27.3912 14.1037 27.8569C14.2385 28.3226 14.4997 28.7419 14.8582 29.0683C15.2168 29.3947 15.6587 29.6154 16.135 29.7059C16.6113 29.7965 17.1034 29.7533 17.5567 29.5813C18.01 29.4092 18.4068 29.115 18.7031 28.7312C18.9994 28.3474 19.1836 27.889 19.2353 27.407C19.287 26.9249 19.2041 26.4379 18.9959 26H23.2541C23.0863 26.3513 22.9995 26.7357 23 27.125C23 27.6442 23.154 28.1517 23.4424 28.5834C23.7308 29.0151 24.1408 29.3515 24.6205 29.5502C25.1001 29.7489 25.6279 29.8008 26.1371 29.6996C26.6463 29.5983 27.114 29.3483 27.4812 28.9812C27.8483 28.614 28.0983 28.1463 28.1996 27.6371C28.3008 27.1279 28.2489 26.6001 28.0502 26.1205C27.8515 25.6408 27.5151 25.2308 27.0834 24.9424C26.6517 24.654 26.1442 24.5 25.625 24.5H16.5472C16.3715 24.5 16.2015 24.4383 16.0667 24.3257C15.9318 24.2132 15.8408 24.0569 15.8094 23.8841L15.5122 22.25H26.3872C26.9141 22.2499 27.4243 22.0649 27.8288 21.7272C28.2333 21.3896 28.5064 20.9206 28.6006 20.4022L29.7406 14.1341C29.7599 14.0257 29.7551 13.9145 29.7266 13.8082C29.6981 13.7019 29.6466 13.6032 29.5756 13.5191ZM17.75 27.125C17.75 27.3475 17.684 27.565 17.5604 27.75C17.4368 27.935 17.2611 28.0792 17.0555 28.1644C16.85 28.2495 16.6238 28.2718 16.4055 28.2284C16.1873 28.185 15.9868 28.0778 15.8295 27.9205C15.6722 27.7632 15.565 27.5627 15.5216 27.3445C15.4782 27.1262 15.5005 26.9 15.5856 26.6945C15.6708 26.4889 15.815 26.3132 16 26.1896C16.185 26.066 16.4025 26 16.625 26C16.9234 26 17.2095 26.1185 17.4205 26.3295C17.6315 26.5405 17.75 26.8266 17.75 27.125ZM26.75 27.125C26.75 27.3475 26.684 27.565 26.5604 27.75C26.4368 27.935 26.2611 28.0792 26.0555 28.1644C25.85 28.2495 25.6238 28.2718 25.4055 28.2284C25.1873 28.185 24.9868 28.0778 24.8295 27.9205C24.6722 27.7632 24.565 27.5627 24.5216 27.3445C24.4782 27.1262 24.5005 26.9 24.5856 26.6945C24.6708 26.4889 24.815 26.3132 25 26.1896C25.185 26.066 25.4025 26 25.625 26C25.9234 26 26.2095 26.1185 26.4205 26.3295C26.6315 26.5405 26.75 26.8266 26.75 27.125ZM27.125 20.1341C27.0935 20.3074 27.0021 20.464 26.8666 20.5766C26.7312 20.6893 26.5605 20.7506 26.3844 20.75H15.2394L14.1491 14.75H28.1009L27.125 20.1341Z" fill="#343330"/>
</svg>
