<svg width="20" height="20" viewBox="0 0 20 20" fill="none" xmlns="http://www.w3.org/2000/svg">
<path d="M11.2504 10.9379C11.2504 11.1234 11.1954 11.3046 11.0924 11.4588C10.9894 11.613 10.843 11.7331 10.6717 11.8041C10.5003 11.875 10.3118 11.8936 10.13 11.8574C9.94813 11.8213 9.78109 11.732 9.64997 11.6009C9.51886 11.4697 9.42957 11.3027 9.3934 11.1208C9.35723 10.939 9.37579 10.7505 9.44675 10.5792C9.51771 10.4079 9.63787 10.2615 9.79204 10.1584C9.94621 10.0554 10.1275 10.0004 10.3129 10.0004C10.5615 10.0004 10.8 10.0992 10.9758 10.275C11.1516 10.4508 11.2504 10.6893 11.2504 10.9379ZM14.6879 10.0004C14.5025 10.0004 14.3212 10.0554 14.167 10.1584C14.0129 10.2615 13.8927 10.4079 13.8218 10.5792C13.7508 10.7505 13.7322 10.939 13.7684 11.1208C13.8046 11.3027 13.8939 11.4697 14.025 11.6009C14.1561 11.732 14.3231 11.8213 14.505 11.8574C14.6868 11.8936 14.8753 11.875 15.0467 11.8041C15.218 11.7331 15.3644 11.613 15.4674 11.4588C15.5704 11.3046 15.6254 11.1234 15.6254 10.9379C15.6254 10.6893 15.5266 10.4508 15.3508 10.275C15.175 10.0992 14.9365 10.0004 14.6879 10.0004ZM18.6988 16.5215C18.7623 16.737 18.7666 16.9657 18.7111 17.1834C18.6557 17.4011 18.5425 17.5999 18.3837 17.7587C18.2248 17.9176 18.0261 18.0307 17.8083 18.0862C17.5906 18.1416 17.362 18.1374 17.1465 18.0739L15.216 17.5059C14.455 17.873 13.6274 18.0819 12.7834 18.1201C11.9393 18.1582 11.0962 18.0249 10.3052 17.728C9.51411 17.4312 8.79144 16.977 8.18086 16.393C7.57027 15.809 7.08444 15.1072 6.75273 14.3301C6.06932 14.2498 5.40415 14.0557 4.78476 13.7559L2.85429 14.3239C2.63878 14.3874 2.41014 14.3916 2.19242 14.3362C1.97471 14.2807 1.77596 14.1676 1.61709 14.0087C1.45823 13.8499 1.34511 13.6511 1.28966 13.4334C1.2342 13.2157 1.23844 12.987 1.30195 12.7715L1.86992 10.8411C1.51371 10.0916 1.31031 9.27866 1.27161 8.44974C1.2329 7.62081 1.35965 6.79248 1.64447 6.01306C1.92928 5.23364 2.36646 4.51874 2.9305 3.91007C3.49454 3.3014 4.17414 2.81114 4.92965 2.4679C5.68517 2.12467 6.50148 1.93532 7.33095 1.91091C8.16042 1.8865 8.98644 2.02751 9.76084 2.32572C10.5352 2.62393 11.2425 3.07337 11.8413 3.64782C12.4402 4.22227 12.9187 4.91022 13.2488 5.67154C14.236 5.7905 15.1806 6.14328 16.0041 6.70058C16.8275 7.25788 17.5062 8.00362 17.9836 8.87585C18.461 9.74808 18.7234 10.7216 18.749 11.7156C18.7746 12.7096 18.5627 13.6954 18.1309 14.5911L18.6988 16.5215ZM6.35195 12.9926C6.19737 12.146 6.21945 11.2765 6.41682 10.4387C6.61419 9.60101 6.98258 8.81311 7.49888 8.1245C8.01517 7.43589 8.66823 6.86142 9.41706 6.43715C10.1659 6.01288 10.9943 5.74797 11.8504 5.65904C11.5336 5.08384 11.1066 4.57667 10.5938 4.16649C10.0809 3.75632 9.49235 3.45117 8.8616 3.26846C7.58774 2.89947 6.21948 3.05162 5.05781 3.69146C3.89614 4.33129 3.03622 5.40639 2.66723 6.68025C2.29824 7.95411 2.4504 9.32237 3.09023 10.484C3.16718 10.6279 3.18484 10.7961 3.13945 10.9528L2.50039 13.1254L4.66914 12.4872C4.82582 12.4418 4.99405 12.4594 5.13789 12.5364C5.52085 12.741 5.92903 12.8944 6.35195 12.9926ZM16.9105 14.234C17.4759 13.1767 17.6425 11.9514 17.3799 10.7814C17.1174 9.61151 16.4431 8.57489 15.4801 7.86056C14.5171 7.14622 13.3295 6.80174 12.1337 6.8899C10.9379 6.97805 9.81361 7.49299 8.96577 8.34083C8.11793 9.18867 7.603 10.313 7.51484 11.5087C7.42668 12.7045 7.77117 13.8922 8.4855 14.8552C9.19984 15.8182 10.2364 16.4924 11.4064 16.755C12.5763 17.0176 13.8016 16.851 14.859 16.2856C15.0028 16.2086 15.171 16.191 15.3277 16.2364L17.5004 16.8754L16.8621 14.7067C16.8154 14.5489 16.8328 14.3791 16.9105 14.234Z" fill="#262626"/>
</svg>
