<svg width="32" height="32" viewBox="0 0 32 32" fill="none" xmlns="http://www.w3.org/2000/svg">
<path d="M19.406 25.2473L18 24.31V16H24.6667C25.0203 16 25.3594 15.8595 25.6095 15.6095C25.8595 15.3594 26 15.0203 26 14.6667V13.3333C26 12.9797 25.8595 12.6406 25.6095 12.3905C25.3594 12.1405 25.0203 12 24.6667 12H22.6327C22.477 10.4708 21.7984 9.04212 20.7115 7.95521C19.6246 6.86829 18.1959 6.18971 16.6667 6.034V5.33333H17.3333C17.5102 5.33333 17.6797 5.2631 17.8047 5.13807C17.9298 5.01305 18 4.84348 18 4.66667C18 4.48986 17.9298 4.32029 17.8047 4.19526C17.6797 4.07024 17.5102 4 17.3333 4H14.6667C14.4899 4 14.3203 4.07024 14.1953 4.19526C14.0702 4.32029 14 4.48986 14 4.66667C14 4.84348 14.0702 5.01305 14.1953 5.13807C14.3203 5.2631 14.4899 5.33333 14.6667 5.33333H15.3333V6.034C13.8041 6.18971 12.3755 6.86829 11.2886 7.95521C10.2016 9.04212 9.52305 10.4708 9.36734 12H6.66668C6.31305 12 5.97392 12.1405 5.72387 12.3905C5.47382 12.6406 5.33334 12.9797 5.33334 13.3333V14.6667C5.33334 15.0203 5.47382 15.3594 5.72387 15.6095C5.97392 15.8595 6.31305 16 6.66668 16H14V24.31L12.594 25.2473C12.4113 25.3691 12.2615 25.534 12.1579 25.7275C12.0543 25.921 12.0001 26.1371 12 26.3567V26.6667C12 27.0203 12.1405 27.3594 12.3905 27.6095C12.6406 27.8595 12.9797 28 13.3333 28H18.6667C19.0203 28 19.3594 27.8595 19.6095 27.6095C19.8595 27.3594 20 27.0203 20 26.6667V26.3567C20 26.1371 19.9457 25.921 19.8421 25.7275C19.7385 25.534 19.5887 25.3691 19.406 25.2473ZM16 7.33333C17.298 7.33549 18.5507 7.81045 19.5239 8.66937C20.4971 9.52829 21.124 10.7123 21.2873 12H10.7127C10.8761 10.7123 11.503 9.52829 12.4761 8.66937C13.4493 7.81045 14.702 7.33549 16 7.33333ZM6.66668 14.6667V13.3333H24.6667V14.6667H6.66668ZM18.6667 26.6667H13.3333V26.3567L14.7393 25.4193C14.922 25.2976 15.0718 25.1327 15.1754 24.9391C15.2791 24.7456 15.3333 24.5295 15.3333 24.31V16H16.6667V24.31C16.6667 24.5295 16.721 24.7456 16.8246 24.9391C16.9282 25.1327 17.078 25.2976 17.2607 25.4193L18.6667 26.3567V26.6667Z" fill="#666666"/>
<path d="M30.9157 20.6L31.9877 12.5113C32.013 12.3232 31.9979 12.1319 31.9434 11.9501C31.8888 11.7683 31.7961 11.6003 31.6714 11.4572C31.5467 11.3142 31.3929 11.1994 31.2202 11.1205C31.0476 11.0417 30.8601 11.0006 30.6703 11H29.9463C29.6536 11.0008 29.3693 11.0979 29.1372 11.2764C28.9052 11.4548 28.7383 11.7046 28.6623 11.9873L26.9377 18.4287H22.8283C22.3862 18.4289 21.9566 18.5763 21.6075 18.8476C21.2584 19.119 21.0096 19.4989 20.9003 19.9273L20.709 20.6667C20.6586 20.8617 20.6531 21.0657 20.6928 21.2632C20.7325 21.4607 20.8165 21.6466 20.9384 21.807C21.0603 21.9674 21.217 22.0981 21.3966 22.1892C21.5763 22.2804 21.7742 22.3297 21.9757 22.3333L20.6877 27.508C20.6665 27.593 20.6623 27.6814 20.6754 27.768C20.6884 27.8546 20.7184 27.9378 20.7635 28.0129C20.8087 28.0879 20.8683 28.1533 20.9388 28.2053C21.0093 28.2573 21.0893 28.2949 21.1743 28.316C21.2263 28.3284 21.2796 28.3342 21.333 28.3333C21.4817 28.3333 21.6261 28.2835 21.7433 28.192C21.8605 28.1004 21.9437 27.9723 21.9797 27.828L23.3477 22.3333H28.7997L30.0163 27.8113C30.0492 27.9593 30.1315 28.0916 30.2497 28.1865C30.3678 28.2814 30.5148 28.3332 30.6663 28.3333C30.7152 28.3333 30.7639 28.3279 30.8117 28.3173C30.8972 28.2984 30.9781 28.2628 31.0498 28.2126C31.1216 28.1624 31.1827 28.0985 31.2298 28.0246C31.2768 27.9508 31.3089 27.8684 31.3241 27.7821C31.3393 27.6959 31.3373 27.6075 31.3183 27.522L30.0823 21.9613C30.3075 21.804 30.4977 21.6019 30.6411 21.3677C30.7845 21.1334 30.878 20.8721 30.9157 20.6ZM21.9997 21L22.1903 20.2607C22.2261 20.1186 22.3081 19.9925 22.4236 19.9023C22.539 19.8121 22.6812 19.763 22.8277 19.7627H27.449C27.5957 19.7627 27.7384 19.7143 27.8548 19.625C27.9713 19.5356 28.055 19.4104 28.093 19.2687L29.9463 12.3333H30.6663L29.5943 20.422C29.573 20.5809 29.4952 20.7267 29.3751 20.8329C29.255 20.9391 29.1006 20.9984 28.9403 21H21.9997ZM11.053 21.818C11.1783 21.6572 11.265 21.4697 11.3063 21.2701C11.3475 21.0704 11.3423 20.864 11.291 20.6667L11.1003 19.9293C10.9911 19.5006 10.7422 19.1205 10.393 18.8489C10.0438 18.5773 9.61407 18.4297 9.17167 18.4293H5.06167L3.337 11.9873C3.26104 11.7046 3.09416 11.4548 2.8621 11.2764C2.63005 11.0979 2.34573 11.0008 2.053 11H1.329C1.13941 11.0006 0.952123 11.0417 0.779647 11.1204C0.607172 11.1991 0.45347 11.3137 0.328799 11.4566C0.204128 11.5994 0.111354 11.7672 0.0566679 11.9487C0.00198155 12.1303 -0.0133596 12.3214 0.0116681 12.5093L1.08367 20.6C1.11941 20.8601 1.20618 21.1107 1.33901 21.3372C1.47183 21.5637 1.64809 21.7618 1.85767 21.92L0.612335 27.522C0.573967 27.6947 0.605758 27.8755 0.700714 28.0247C0.795669 28.1739 0.946012 28.2793 1.11867 28.3177C1.29132 28.356 1.47215 28.3242 1.62137 28.2293C1.77058 28.1343 1.87597 27.984 1.91433 27.8113L3.133 22.3333H8.583L9.951 27.828C9.98707 27.9726 10.0706 28.101 10.1881 28.1926C10.3057 28.2842 10.4506 28.3337 10.5997 28.3333C10.6541 28.3335 10.7083 28.3268 10.761 28.3133C10.846 28.2922 10.9259 28.2545 10.9964 28.2025C11.0668 28.1504 11.1262 28.085 11.1714 28.01C11.2165 27.935 11.2464 27.8518 11.2594 27.7652C11.2724 27.6786 11.2682 27.5903 11.247 27.5053L9.95634 22.3333H10.003C10.2058 22.3338 10.4061 22.2876 10.5882 22.1982C10.7703 22.1089 10.9293 21.9788 11.053 21.818ZM3.059 21C2.89871 20.9984 2.74438 20.9391 2.62426 20.8329C2.50415 20.7267 2.42631 20.5809 2.405 20.422L1.329 12.3333H2.049L3.90567 19.2667C3.94368 19.4084 4.02739 19.5336 4.14383 19.623C4.26026 19.7123 4.40292 19.7607 4.54967 19.7607H9.171C9.31763 19.7611 9.45994 19.8104 9.57546 19.9007C9.69099 19.991 9.77316 20.1172 9.809 20.2593L9.99967 21H3.059Z" fill="#666666"/>
</svg>
