<svg width="32" height="32" viewBox="0 0 32 32" fill="none" xmlns="http://www.w3.org/2000/svg">
<path d="M4 25H2.5C2.36739 25 2.24021 25.0527 2.14645 25.1464C2.05268 25.2402 2 25.3674 2 25.5C2 25.6326 2.05268 25.7598 2.14645 25.8536C2.24021 25.9473 2.36739 26 2.5 26H4C4.13261 26 4.25979 25.9473 4.35355 25.8536C4.44732 25.7598 4.5 25.6326 4.5 25.5C4.5 25.3674 4.44732 25.2402 4.35355 25.1464C4.25979 25.0527 4.13261 25 4 25ZM6 25H5.5C5.36739 25 5.24021 25.0527 5.14645 25.1464C5.05268 25.2402 5 25.3674 5 25.5C5 25.6326 5.05268 25.7598 5.14645 25.8536C5.24021 25.9473 5.36739 26 5.5 26H6C6.13261 26 6.25979 25.9473 6.35355 25.8536C6.44732 25.7598 6.5 25.6326 6.5 25.5C6.5 25.3674 6.44732 25.2402 6.35355 25.1464C6.25979 25.0527 6.13261 25 6 25Z" fill="#666666"/>
<path d="M29.5 10.5H28.5V6.5C28.4993 5.96978 28.2884 5.46148 27.9134 5.08655C27.5385 4.71163 27.0302 4.50069 26.5 4.5H5.5C4.96975 4.5006 4.46139 4.7115 4.08644 5.08644C3.7115 5.46139 3.5006 5.96975 3.5 6.5V15.5H2.5C1.96975 15.5006 1.46139 15.7115 1.08644 16.0864C0.7115 16.4614 0.500596 16.9697 0.5 17.5V25.5C0.500596 26.0303 0.7115 26.5386 1.08644 26.9136C1.46139 27.2885 1.96975 27.4994 2.5 27.5H7.5C8.03022 27.4993 8.53852 27.2884 8.91345 26.9134C9.28837 26.5385 9.49931 26.0302 9.5 25.5V24H13.8594L13.6094 25H12C11.8674 25 11.7402 25.0527 11.6464 25.1464C11.5527 25.2402 11.5 25.3674 11.5 25.5V27C11.5 27.1326 11.5527 27.2598 11.6464 27.3536C11.7402 27.4473 11.8674 27.5 12 27.5H29.5C30.0302 27.4993 30.5385 27.2884 30.9134 26.9134C31.2884 26.5385 31.4993 26.0302 31.5 25.5V12.5C31.4993 11.9698 31.2884 11.4615 30.9134 11.0866C30.5385 10.7116 30.0302 10.5007 29.5 10.5ZM8.5 25.5C8.49965 25.7651 8.39418 26.0193 8.20672 26.2067C8.01926 26.3942 7.76511 26.4997 7.5 26.5H2.5C2.23489 26.4997 1.98074 26.3942 1.79328 26.2067C1.60582 26.0193 1.50035 25.7651 1.5 25.5V17.5C1.50035 17.2349 1.60582 16.9807 1.79328 16.7933C1.98074 16.6058 2.23489 16.5003 2.5 16.5H3.13937L3.52562 17.6581C3.55881 17.7577 3.62249 17.8443 3.70763 17.9056C3.79277 17.967 3.89505 18 4 18H6C6.10495 18 6.20723 17.967 6.29237 17.9056C6.37751 17.8443 6.44119 17.7577 6.47437 17.6581L6.86062 16.5H7.5C7.76511 16.5003 8.01926 16.6058 8.20672 16.7933C8.39418 16.9807 8.49965 17.2349 8.5 17.5V25.5ZM4.19375 16.5H5.80625L5.63938 17H4.36062L4.19375 16.5ZM9.5 23V21.5H18.5V23H9.5ZM18.5 24V25H18.3906L18.1406 24H18.5ZM17.3594 25H14.6406L14.8906 24H17.1094L17.3594 25ZM12.5 26.5V26H18.5631C18.6089 26.1752 18.6783 26.3435 18.7694 26.5H12.5ZM18.5 12.5V20.5H9.5V17.5C9.49931 16.9698 9.28837 16.4615 8.91345 16.0866C8.53852 15.7116 8.03022 15.5007 7.5 15.5H4.5V6.5C4.50035 6.23489 4.60582 5.98074 4.79328 5.79328C4.98074 5.60582 5.23489 5.50035 5.5 5.5H26.5C26.7651 5.50035 27.0193 5.60582 27.2067 5.79328C27.3942 5.98074 27.4997 6.23489 27.5 6.5V10.5H20.5C19.9698 10.5007 19.4615 10.7116 19.0866 11.0866C18.7116 11.4615 18.5007 11.9698 18.5 12.5ZM30.5 25.5C30.4997 25.7651 30.3942 26.0193 30.2067 26.2067C30.0193 26.3942 29.7651 26.4997 29.5 26.5H20.5C20.2349 26.4997 19.9807 26.3942 19.7933 26.2067C19.6058 26.0193 19.5003 25.7651 19.5 25.5V12.5C19.5003 12.2349 19.6058 11.9807 19.7933 11.7933C19.9807 11.6058 20.2349 11.5003 20.5 11.5H29.5C29.7651 11.5003 30.0193 11.6058 30.2067 11.7933C30.3942 11.9807 30.4997 12.2349 30.5 12.5V25.5Z" fill="#666666"/>
<path d="M29.5 12H20.5C20.3674 12 20.2402 12.0527 20.1464 12.1464C20.0527 12.2402 20 12.3674 20 12.5V24C20 24.1326 20.0527 24.2598 20.1464 24.3536C20.2402 24.4473 20.3674 24.5 20.5 24.5H29.5C29.6326 24.5 29.7598 24.4473 29.8536 24.3536C29.9473 24.2598 30 24.1326 30 24V12.5C30 12.3674 29.9473 12.2402 29.8536 12.1464C29.7598 12.0527 29.6326 12 29.5 12ZM29 23.5H21V13H29V23.5Z" fill="#666666"/>
<path d="M24.5 26C24.7761 26 25 25.7761 25 25.5C25 25.2239 24.7761 25 24.5 25C24.2239 25 24 25.2239 24 25.5C24 25.7761 24.2239 26 24.5 26Z" fill="#666666"/>
</svg>
