<svg width="32" height="32" viewBox="0 0 32 32" fill="none" xmlns="http://www.w3.org/2000/svg">
<path d="M8.00001 17.5C6.62151 17.5 5.50001 18.8455 5.50001 20.5C5.50001 22.1545 6.62151 23.5 8.00001 23.5C9.37851 23.5 10.5 22.1545 10.5 20.5C10.5 18.8455 9.37851 17.5 8.00001 17.5ZM6.50001 20.5C6.48524 19.906 6.70512 19.33 7.11201 18.897C7.02428 19.3539 7.11886 19.827 7.37551 20.215L7.73951 20.7605C7.80505 20.8578 7.84727 20.9689 7.86288 21.0852C7.87849 21.2015 7.86707 21.3198 7.82951 21.431L7.51251 22.381C7.18606 22.192 6.91853 21.9161 6.73975 21.584C6.56097 21.2518 6.47797 20.8765 6.50001 20.5ZM8.57901 22.3445L8.77901 21.7475C8.86513 21.492 8.89134 21.22 8.85562 20.9527C8.8199 20.6855 8.72321 20.43 8.57301 20.206L8.20851 19.6605C8.0958 19.4904 8.05483 19.2827 8.09451 19.0825L8.20551 18.5275C8.93401 18.662 9.50001 19.4905 9.50001 20.5C9.51869 20.8608 9.44369 21.2203 9.2823 21.5435C9.12091 21.8667 8.87863 22.1426 8.57901 22.3445Z" fill="#666666"/>
<path d="M1.50001 13.4999H1.53051L1.65551 15.4999H1.50001C1.43192 15.4998 1.36453 15.5136 1.30197 15.5404C1.23941 15.5673 1.18299 15.6066 1.13617 15.6561C1.08936 15.7055 1.05313 15.764 1.02972 15.8279C1.0063 15.8919 0.996194 15.9599 1.00001 16.0279L1.50001 25.0279C1.50717 25.1556 1.56299 25.2757 1.656 25.3635C1.749 25.4513 1.87211 25.5001 2.00001 25.4999H2.28051L2.50001 29.0314C2.50803 29.1585 2.56423 29.2777 2.65714 29.3647C2.75005 29.4518 2.87268 29.5001 3.00001 29.4999H8.00001V28.4999H3.46951L3.28201 25.4999H9.50001V24.4999H2.47301L2.02851 16.4999H13.971L13.9125 17.5604L14.9125 17.6159L15 16.0279C15.0038 15.9599 14.9937 15.8919 14.9703 15.8279C14.9469 15.764 14.9107 15.7055 14.8638 15.6561C14.817 15.6066 14.7606 15.5673 14.698 15.5404C14.6355 15.5136 14.5681 15.4998 14.5 15.4999H14.3445L14.4695 13.4999H14.5C14.6326 13.4999 14.7598 13.4472 14.8536 13.3534C14.9473 13.2597 15 13.1325 15 12.9999V10.9999C15 10.8673 14.9473 10.7401 14.8536 10.6463C14.7598 10.5526 14.6326 10.4999 14.5 10.4999H13.809L12.95 8.77638C12.9083 8.69288 12.844 8.62273 12.7645 8.57387C12.685 8.525 12.5933 8.49937 12.5 8.49988H3.50001C3.40709 8.49984 3.316 8.52569 3.23696 8.57453C3.15791 8.62337 3.09404 8.69326 3.05251 8.77638L2.19101 10.4999H1.50001C1.3674 10.4999 1.24022 10.5526 1.14645 10.6463C1.05268 10.7401 1.00001 10.8673 1.00001 10.9999V12.9999C1.00001 13.1325 1.05268 13.2597 1.14645 13.3534C1.24022 13.4472 1.3674 13.4999 1.50001 13.4999ZM13.343 15.4999H2.65701L2.53201 13.4999H13.468L13.343 15.4999ZM3.80901 9.49988H12.191L12.691 10.4999H3.30901L3.80901 9.49988ZM2.00001 11.4999H14V12.4999H2.00001V11.4999ZM30.5 12.4999H30.4745C30.3562 11.2205 29.794 10.0229 28.8855 9.11435C27.977 8.20585 26.7794 7.64373 25.5 7.52538V6.12088L26.9745 4.64638C27.0682 4.55262 27.1209 4.42546 27.1209 4.29288C27.1209 4.1603 27.0682 4.03315 26.9745 3.93938L25.5605 2.52488C25.468 2.43233 25.3428 2.37975 25.2119 2.37844C25.0811 2.37713 24.9549 2.4272 24.8605 2.51788L22.6535 4.63938C22.605 4.68604 22.5663 4.74202 22.54 4.80397C22.5136 4.86592 22.5 4.93255 22.5 4.99988V7.52538C21.2206 7.64373 20.023 8.20585 19.1145 9.11435C18.206 10.0229 17.6439 11.2205 17.5255 12.4999H17.5C17.3674 12.4999 17.2402 12.5526 17.1465 12.6463C17.0527 12.7401 17 12.8673 17 12.9999V14.9999C17 15.1325 17.0527 15.2597 17.1465 15.3534C17.2402 15.4472 17.3674 15.4999 17.5 15.4999H18.0345L18.179 17.5264L19.179 17.4554L19.037 15.4999H28.963L28.0345 28.4999H24V29.4999H28.5C28.6267 29.5002 28.7488 29.4524 28.8416 29.3662C28.9344 29.28 28.991 29.1617 29 29.0354L29.9655 15.4999H30.5C30.6326 15.4999 30.7598 15.4472 30.8536 15.3534C30.9473 15.2597 31 15.1325 31 14.9999V12.9999C31 12.8673 30.9473 12.7401 30.8536 12.6463C30.7598 12.5526 30.6326 12.4999 30.5 12.4999ZM23.5 5.21288L25.2 3.57888L25.914 4.29288L24.6465 5.56038C24.5527 5.65413 24.5 5.78128 24.5 5.91388V7.49988H23.5V5.21288ZM23 8.49988H25C26.1065 8.50123 27.1738 8.90967 27.9986 9.64735C28.8233 10.385 29.3478 11.4004 29.472 12.4999H18.528C18.6523 11.4004 19.1767 10.385 20.0015 9.64735C20.8262 8.90967 21.8935 8.50123 23 8.49988ZM30 14.4999H18V13.4999H30V14.4999Z" fill="#666666"/>
<path d="M20 18.5H11C10.8674 18.5 10.7402 18.5527 10.6465 18.6464C10.5527 18.7402 10.5 18.8674 10.5 19V25C10.5018 25.5427 10.6821 26.0698 11.013 26.5H9.50001C9.3674 26.5 9.24022 26.5527 9.14645 26.6464C9.05269 26.7402 9.00001 26.8674 9.00001 27V28.069C9.0004 28.4484 9.1513 28.8122 9.41958 29.0804C9.68786 29.3487 10.0516 29.4996 10.431 29.5H21.569C21.9484 29.4996 22.3122 29.3487 22.5804 29.0804C22.8487 28.8122 22.9996 28.4484 23 28.069V27C23 26.8674 22.9473 26.7402 22.8536 26.6464C22.7598 26.5527 22.6326 26.5 22.5 26.5H19.987C20.3179 26.0698 20.4982 25.5427 20.5 25H22C22.663 25 23.2989 24.7366 23.7678 24.2678C24.2366 23.7989 24.5 23.163 24.5 22.5C24.5 21.837 24.2366 21.2011 23.7678 20.7322C23.2989 20.2634 22.663 20 22 20H20.5V19C20.5 18.8674 20.4473 18.7402 20.3536 18.6464C20.2598 18.5527 20.1326 18.5 20 18.5ZM22 28.069C21.9999 28.1833 21.9544 28.2928 21.8736 28.3736C21.7928 28.4544 21.6833 28.4999 21.569 28.5H10.431C10.3167 28.4999 10.2072 28.4544 10.1264 28.3736C10.0456 28.2928 10.0001 28.1833 10 28.069V27.5H22V28.069ZM13 26.5C12.6022 26.5 12.2207 26.342 11.9393 26.0607C11.658 25.7794 11.5 25.3978 11.5 25V19.5H19.5V25C19.5 25.3978 19.342 25.7794 19.0607 26.0607C18.7794 26.342 18.3978 26.5 18 26.5H13ZM22 21C22.3978 21 22.7794 21.158 23.0607 21.4393C23.342 21.7206 23.5 22.1022 23.5 22.5C23.5 22.8978 23.342 23.2794 23.0607 23.5607C22.7794 23.842 22.3978 24 22 24H20.5V21H22Z" fill="#666666"/>
</svg>
