<svg width="18" height="19" viewBox="0 0 18 19" fill="none" xmlns="http://www.w3.org/2000/svg">
<g id="Frame" clip-path="url(#clip0_1564_149)">
<path id="Vector" d="M18 9.14094C18 4.14 13.9706 0.0859375 9 0.0859375C4.02943 0.0859375 0 4.14 0 9.14094C0 13.6605 3.29115 17.4066 7.59375 18.0859V11.7584H5.30859V9.14094H7.59375V7.14601C7.59375 4.8766 8.93742 3.62305 10.9932 3.62305C11.9776 3.62305 13.0078 3.7999 13.0078 3.7999V6.02828H11.873C10.755 6.02828 10.4062 6.72633 10.4062 7.44313V9.14094H12.9023L12.5033 11.7584H10.4062V18.0859C14.7088 17.4066 18 13.6605 18 9.14094Z" fill="#979A98"/>
</g>
<defs>
<clipPath id="clip0_1564_149">
<rect width="18" height="18" fill="white" transform="translate(0 0.0849609)"/>
</clipPath>
</defs>
</svg>
