<svg width="8" height="8" viewBox="0 0 8 8" fill="none" xmlns="http://www.w3.org/2000/svg">
<path d="M1.00003 1.66712H7.00003C7.06078 1.66731 7.12032 1.68407 7.17225 1.71558C7.22419 1.74709 7.26654 1.79218 7.29476 1.84597C7.32298 1.89977 7.33599 1.96024 7.3324 2.02088C7.3288 2.08152 7.30874 2.14003 7.27436 2.19012L4.27436 6.52345C4.15003 6.70312 3.8507 6.70312 3.72603 6.52345L0.726028 2.19012C0.691303 2.14014 0.67094 2.0816 0.66715 2.02086C0.663361 1.96011 0.67629 1.89949 0.704533 1.84558C0.732776 1.79167 0.775254 1.74654 0.82735 1.71507C0.879446 1.68361 0.939168 1.66702 1.00003 1.66712Z" fill="black"/>
</svg>
