<svg width="166" height="40" viewBox="0 0 166 40" fill="none" xmlns="http://www.w3.org/2000/svg">
<g clip-path="url(#clip0_424_21954)">
<path fill-rule="evenodd" clip-rule="evenodd" d="M0.914946 1.01416L22.3894 1.15593C29.0922 1.34226 33.0354 7.02986 33.1934 12.24C33.2896 17.6061 29.5656 23.7382 22.6395 24.1929L13.362 24.2354L13.3676 33.8283C13.6213 36.9043 16.1327 38.3949 19.0167 38.3899L19.0152 38.9782L0.891655 38.9858L0.876465 38.3605C3.90026 38.278 6.7033 37.0096 6.6157 32.4815L6.55343 6.37669C6.36912 3.84707 4.97014 1.80657 0.915452 1.59998L0.914946 1.01416ZM13.3681 3.79998H21.4881C26.882 4.29517 29.4856 8.71644 29.357 12.7509C29.2279 16.7853 26.4182 20.9919 21.5701 21.4314H13.3681V3.79998ZM9.88153 24.2157H12.3225L12.2598 36.0466C12.2962 38.4866 10.0587 38.9509 9.99292 36.0952L9.88153 24.2157ZM9.88153 21.4658H12.322V3.79998H9.88153V21.4658Z" fill="white"/>
<mask id="mask0_424_21954" style="mask-type:luminance" maskUnits="userSpaceOnUse" x="-68" y="-66" width="302" height="172">
<path d="M-67.8481 105.317H233.418V-65.3164H-67.8481V105.317Z" fill="white"/>
</mask>
<g mask="url(#mask0_424_21954)">
<path fill-rule="evenodd" clip-rule="evenodd" d="M44.041 38.9858H44.7154V1.01416H44.041V38.9858Z" fill="white"/>
</g>
<mask id="mask1_424_21954" style="mask-type:luminance" maskUnits="userSpaceOnUse" x="-68" y="-66" width="302" height="172">
<path d="M-67.8481 105.317H233.418V-65.3164H-67.8481V105.317Z" fill="white"/>
</mask>
<g mask="url(#mask1_424_21954)">
<path fill-rule="evenodd" clip-rule="evenodd" d="M60.1378 11.3203C61.8644 11.3203 61.8644 10.1067 61.8644 9.6211C61.8644 8.55882 61.2633 8.11882 59.8299 8.11882H57.9955V11.3203H60.1378ZM57.9955 17.132H55.6836V6.2373H60.7388C62.8816 6.2373 64.1763 7.58768 64.1763 9.72743C64.1763 10.7133 63.6213 13.2019 60.6466 13.2019H57.9955V17.132Z" fill="white"/>
</g>
<mask id="mask2_424_21954" style="mask-type:luminance" maskUnits="userSpaceOnUse" x="-68" y="-66" width="302" height="172">
<path d="M-67.8481 105.317H233.418V-65.3164H-67.8481V105.317Z" fill="white"/>
</mask>
<g mask="url(#mask2_424_21954)">
<path fill-rule="evenodd" clip-rule="evenodd" d="M70.7891 15.493C72.0378 15.493 73.7947 14.7346 73.7947 11.6844C73.7947 8.6343 72.0378 7.87582 70.7891 7.87582C69.5405 7.87582 67.7836 8.6343 67.7836 11.6844C67.7836 14.7346 69.5405 15.493 70.7891 15.493ZM70.7891 5.94873C72.2535 5.94873 76.1066 6.57101 76.1066 11.6844C76.1066 16.7978 72.2535 17.4201 70.7891 17.4201C69.3248 17.4201 65.4717 16.7978 65.4717 11.6844C65.4717 6.57101 69.3248 5.94873 70.7891 5.94873Z" fill="white"/>
</g>
<mask id="mask3_424_21954" style="mask-type:luminance" maskUnits="userSpaceOnUse" x="-68" y="-66" width="302" height="172">
<path d="M-67.8481 105.317H233.418V-65.3164H-67.8481V105.317Z" fill="white"/>
</mask>
<g mask="url(#mask3_424_21954)">
<path fill-rule="evenodd" clip-rule="evenodd" d="M82.7818 15.493C84.0304 15.493 85.7874 14.7346 85.7874 11.6844C85.7874 8.6343 84.0304 7.87582 82.7818 7.87582C81.5332 7.87582 79.7763 8.6343 79.7763 11.6844C79.7763 14.7346 81.5332 15.493 82.7818 15.493ZM82.7818 5.94873C84.2461 5.94873 88.0993 6.57101 88.0993 11.6844C88.0993 16.7978 84.2461 17.4201 82.7818 17.4201C81.3175 17.4201 77.4644 16.7978 77.4644 11.6844C77.4644 6.57101 81.3175 5.94873 82.7818 5.94873Z" fill="white"/>
</g>
<mask id="mask4_424_21954" style="mask-type:luminance" maskUnits="userSpaceOnUse" x="-68" y="-66" width="302" height="172">
<path d="M-67.8481 105.317H233.418V-65.3164H-67.8481V105.317Z" fill="white"/>
</mask>
<g mask="url(#mask4_424_21954)">
<path fill-rule="evenodd" clip-rule="evenodd" d="M96.7005 6.2373H98.8585V17.132H96.5466L92.0302 9.36287H91.9998V17.132H89.8418V6.2373H92.2772L96.6696 13.8236H96.7005V6.2373Z" fill="white"/>
</g>
<mask id="mask5_424_21954" style="mask-type:luminance" maskUnits="userSpaceOnUse" x="-68" y="-66" width="302" height="172">
<path d="M-67.8481 105.317H233.418V-65.3164H-67.8481V105.317Z" fill="white"/>
</mask>
<g mask="url(#mask5_424_21954)">
<path fill-rule="evenodd" clip-rule="evenodd" d="M104.038 13.0044H106.859L105.487 8.69503H105.456L104.038 13.0044ZM102.651 17.1315H100.215L104.161 6.2373H106.828L110.728 17.1315H108.215L107.506 14.8859H103.421L102.651 17.1315Z" fill="white"/>
</g>
<mask id="mask6_424_21954" style="mask-type:luminance" maskUnits="userSpaceOnUse" x="-68" y="-66" width="302" height="172">
<path d="M-67.8481 105.317H233.418V-65.3164H-67.8481V105.317Z" fill="white"/>
</mask>
<g mask="url(#mask6_424_21954)">
<path fill-rule="evenodd" clip-rule="evenodd" d="M110.358 6.2373H112.824C114.242 12.2003 114.381 12.9588 114.582 14.2034H114.612C114.813 13.0652 114.982 11.9578 116.153 6.2373H118.604C119.899 12.2155 120.007 12.7922 120.254 14.2034H120.284C120.469 13.1715 120.655 12.2307 122.088 6.2373H124.431L121.317 17.132H119.098C117.957 11.7907 117.756 10.7284 117.387 8.63427H117.356C117.017 10.7284 116.832 11.5178 115.645 17.132H113.488L110.358 6.2373Z" fill="white"/>
</g>
<mask id="mask7_424_21954" style="mask-type:luminance" maskUnits="userSpaceOnUse" x="-68" y="-66" width="302" height="172">
<path d="M-67.8481 105.317H233.418V-65.3164H-67.8481V105.317Z" fill="white"/>
</mask>
<g mask="url(#mask7_424_21954)">
<path fill-rule="evenodd" clip-rule="evenodd" d="M127.869 13.0044H130.689L129.317 8.69503H129.287L127.869 13.0044ZM126.482 17.1315H124.046L127.992 6.2373H130.659L134.558 17.1315H132.046L131.337 14.8859H127.252L126.482 17.1315Z" fill="white"/>
</g>
<mask id="mask8_424_21954" style="mask-type:luminance" maskUnits="userSpaceOnUse" x="-68" y="-66" width="302" height="172">
<path d="M-67.8481 105.317H233.418V-65.3164H-67.8481V105.317Z" fill="white"/>
</mask>
<g mask="url(#mask8_424_21954)">
<path fill-rule="evenodd" clip-rule="evenodd" d="M138.35 15.1593H143.853V17.132H136.039V6.2373H138.35V15.1593Z" fill="white"/>
</g>
<mask id="mask9_424_21954" style="mask-type:luminance" maskUnits="userSpaceOnUse" x="-68" y="-66" width="302" height="172">
<path d="M-67.8481 105.317H233.418V-65.3164H-67.8481V105.317Z" fill="white"/>
</mask>
<g mask="url(#mask9_424_21954)">
<path fill-rule="evenodd" clip-rule="evenodd" d="M147.768 15.1593H153.271V17.132H145.457V6.2373H147.768V15.1593Z" fill="white"/>
</g>
<mask id="mask10_424_21954" style="mask-type:luminance" maskUnits="userSpaceOnUse" x="-68" y="-66" width="302" height="172">
<path d="M-67.8481 105.317H233.418V-65.3164H-67.8481V105.317Z" fill="white"/>
</mask>
<g mask="url(#mask10_424_21954)">
<path fill-rule="evenodd" clip-rule="evenodd" d="M157.834 13.0044H160.655L159.283 8.69503H159.252L157.834 13.0044ZM156.447 17.1315H154.011L157.957 6.2373H160.624L164.524 17.1315H162.011L161.302 14.8859H157.217L156.447 17.1315Z" fill="white"/>
</g>
<mask id="mask11_424_21954" style="mask-type:luminance" maskUnits="userSpaceOnUse" x="-68" y="-66" width="302" height="172">
<path d="M-67.8481 105.317H233.418V-65.3164H-67.8481V105.317Z" fill="white"/>
</mask>
<g mask="url(#mask11_424_21954)">
<path fill-rule="evenodd" clip-rule="evenodd" d="M57.8129 33.5993H55.501V22.7046H63.3769V24.6317H57.8129V27.0899H62.6833V29.017H57.8129V33.5993Z" fill="white"/>
</g>
<mask id="mask12_424_21954" style="mask-type:luminance" maskUnits="userSpaceOnUse" x="-68" y="-66" width="302" height="172">
<path d="M-67.8481 105.317H233.418V-65.3164H-67.8481V105.317Z" fill="white"/>
</mask>
<g mask="url(#mask12_424_21954)">
<path fill-rule="evenodd" clip-rule="evenodd" d="M64.7344 33.5998H67.0463V22.7051H64.7344V33.5998Z" fill="white"/>
</g>
<mask id="mask13_424_21954" style="mask-type:luminance" maskUnits="userSpaceOnUse" x="-68" y="-66" width="302" height="172">
<path d="M-67.8481 105.317H233.418V-65.3164H-67.8481V105.317Z" fill="white"/>
</mask>
<g mask="url(#mask13_424_21954)">
<path fill-rule="evenodd" clip-rule="evenodd" d="M75.9549 22.7051H78.1129V33.5998H75.8005L71.2845 25.8306H71.2537V33.5998H69.0962V22.7051H71.5311L75.924 30.2914H75.9549V22.7051Z" fill="white"/>
</g>
<mask id="mask14_424_21954" style="mask-type:luminance" maskUnits="userSpaceOnUse" x="-68" y="-66" width="302" height="172">
<path d="M-67.8481 105.317H233.418V-65.3164H-67.8481V105.317Z" fill="white"/>
</mask>
<g mask="url(#mask14_424_21954)">
<path fill-rule="evenodd" clip-rule="evenodd" d="M87.3923 26.2707C87.2075 25.6185 86.853 24.3891 84.9411 24.3891C83.8318 24.3891 82.1978 25.1178 82.1978 28.1978C82.1978 30.1552 82.9842 31.9152 84.9411 31.9152C86.2211 31.9152 87.1148 31.2023 87.3923 29.8671H89.7042C89.2414 32.2337 87.6697 33.8879 84.8951 33.8879C81.9513 33.8879 79.8394 31.9309 79.8394 28.1674C79.8394 24.3593 82.0743 22.417 84.9259 22.417C88.2399 22.417 89.5806 24.6621 89.7042 26.2707H87.3923Z" fill="white"/>
</g>
<mask id="mask15_424_21954" style="mask-type:luminance" maskUnits="userSpaceOnUse" x="-68" y="-66" width="302" height="172">
<path d="M-67.8481 105.317H233.418V-65.3164H-67.8481V105.317Z" fill="white"/>
</mask>
<g mask="url(#mask15_424_21954)">
<path fill-rule="evenodd" clip-rule="evenodd" d="M96.2862 31.9608C97.5348 31.9608 99.2918 31.2023 99.2918 28.1522C99.2918 25.1021 97.5348 24.3436 96.2862 24.3436C95.0376 24.3436 93.2801 25.1021 93.2801 28.1522C93.2801 31.2023 95.0376 31.9608 96.2862 31.9608ZM96.2862 22.4165C97.7505 22.4165 101.604 23.0388 101.604 28.1522C101.604 33.2656 97.7505 33.8879 96.2862 33.8879C94.8219 33.8879 90.9688 33.2656 90.9688 28.1522C90.9688 23.0388 94.8219 22.4165 96.2862 22.4165Z" fill="white"/>
</g>
<mask id="mask16_424_21954" style="mask-type:luminance" maskUnits="userSpaceOnUse" x="-68" y="-66" width="302" height="172">
<path d="M-67.8481 105.317H233.418V-65.3164H-67.8481V105.317Z" fill="white"/>
</mask>
<g mask="url(#mask16_424_21954)">
<path fill-rule="evenodd" clip-rule="evenodd" d="M108.433 27.4995C109.635 27.4995 110.221 27.0894 110.221 26.0119C110.221 25.4357 109.959 24.5861 108.602 24.5861H105.72V27.4995H108.433ZM103.455 22.7046H109.05C111.993 22.7046 112.533 24.8443 112.533 25.7846C112.533 26.9831 111.916 28.0155 110.822 28.3795C111.732 28.7745 112.225 29.1081 112.225 31.141C112.225 32.7345 112.225 33.1289 112.718 33.3112V33.5993H110.159C110.005 33.0833 109.913 32.5218 109.913 31.3993C109.913 29.9122 109.82 29.3355 108.109 29.3355H105.72V33.5993H103.455V22.7046Z" fill="white"/>
</g>
<mask id="mask17_424_21954" style="mask-type:luminance" maskUnits="userSpaceOnUse" x="-68" y="-66" width="302" height="172">
<path d="M-67.8481 105.317H233.418V-65.3164H-67.8481V105.317Z" fill="white"/>
</mask>
<g mask="url(#mask17_424_21954)">
<path fill-rule="evenodd" clip-rule="evenodd" d="M119.038 27.7881C120.764 27.7881 120.764 26.5744 120.764 26.0889C120.764 25.0266 120.163 24.5866 118.73 24.5866H116.896V27.7881H119.038ZM116.896 33.5998H114.583V22.7051H119.639C121.781 22.7051 123.077 24.0555 123.077 26.1952C123.077 27.181 122.522 29.6696 119.547 29.6696H116.896V33.5998Z" fill="white"/>
</g>
</g>
<defs>
<clipPath id="clip0_424_21954">
<rect width="165.714" height="40" fill="white"/>
</clipPath>
</defs>
</svg>
