<svg width="32" height="32" viewBox="0 0 32 32" fill="none" xmlns="http://www.w3.org/2000/svg">
<path d="M25.5 23.4998L30.5 17.9998C30.5041 17.8017 30.4681 17.6048 30.3941 17.421C30.3202 17.2371 30.2099 17.0701 30.0698 16.93C29.9296 16.7899 29.7627 16.6796 29.5788 16.6056C29.395 16.5317 29.1981 16.4957 29 16.4998C27.4 16.4998 26.325 18.1348 25.365 19.2148L23 21.8748M27 16.8348C26.7205 16.6016 26.3636 16.482 26 16.4998C24.74 16.4998 23.81 17.4998 23 18.4698" stroke="#666666" stroke-width="1.1" stroke-linecap="round" stroke-linejoin="round"/>
<path d="M16.5 27C17 26 18.5 26 18.5 26H25.5C25.7613 25.9878 26.0086 25.8786 26.1936 25.6936C26.3786 25.5086 26.4878 25.2613 26.5 25C26.5 24 25.23 23 23.5 23H16.845C15.9208 22.8887 15.04 22.5446 14.285 22C13.0685 21.0278 11.5572 20.4988 10 20.5C9.15266 20.5012 8.31725 20.6998 7.56 21.08C6.33165 21.6722 5.02519 22.0864 3.68 22.31C2.95856 22.4233 2.23017 22.4868 1.5 22.5V28.5C1.5 28.5 2.525 26.5 5.59 26.5C7.73 26.5 9.78 27.23 11.72 28.045C13.6961 28.9418 15.8309 29.4364 18 29.5C18.9 29.5301 19.7919 29.3213 20.585 28.895C21.8138 28.229 22.8255 27.2242 23.5 26" stroke="#666666" stroke-width="1.1" stroke-linecap="round" stroke-linejoin="round"/>
<path d="M9 20.5V14M23 14V23" stroke="#666666" stroke-width="1.1" stroke-linejoin="round"/>
<path d="M14.5 13.9999H8V11.9999C8 11.7347 8.10536 11.4803 8.29289 11.2928C8.48043 11.1052 8.73478 10.9999 9 10.9999H23C23.2652 10.9999 23.5196 11.1052 23.7071 11.2928C23.8946 11.4803 24 11.7347 24 11.9999V13.9999H17.5M16 10.4999C16 10.4999 15.345 6.91487 14.535 6.10487C14.1465 5.71633 13.6195 5.49805 13.07 5.49805C12.5205 5.49805 11.9935 5.71633 11.605 6.10487C11.2165 6.49341 10.9982 7.02039 10.9982 7.56987C10.9982 8.11935 11.2165 8.64633 11.605 9.03487C12.415 9.84487 16 10.4999 16 10.4999ZM16 10.4999C16 10.4999 16.655 6.91487 17.465 6.10487C17.8535 5.71633 18.3805 5.49805 18.93 5.49805C19.4795 5.49805 20.0065 5.71633 20.395 6.10487C20.7835 6.49341 21.0018 7.02039 21.0018 7.56987C21.0018 8.11935 20.7835 8.64633 20.395 9.03487C19.585 9.84487 16 10.4999 16 10.4999Z" stroke="#666666" stroke-width="1.1" stroke-linecap="round" stroke-linejoin="round"/>
<path d="M14.5 11V22M17.5 11V23" stroke="#666666" stroke-width="1.1" stroke-linejoin="round"/>
<path d="M16 2.5V3M7.5 5.5L8 6M4.5 13H5M24.5 5.5L24 6M27.5 13H27" stroke="#666666" stroke-width="1.1" stroke-linecap="round" stroke-linejoin="round"/>
</svg>
