<svg width="311" height="427" viewBox="0 0 311 427" fill="none" xmlns="http://www.w3.org/2000/svg">
<g clip-path="url(#clip0_5072_126022)">
<path d="M120.55 110.03L126.879 44.2549C127.056 42.4156 126.819 40.5614 126.185 38.8245C125.55 37.0876 124.534 35.5106 123.209 34.206C121.884 32.9014 120.282 31.9012 118.517 31.2767C116.753 30.6521 114.869 30.4187 113.001 30.5929L45.8219 36.851C43.4048 37.0627 41.0989 37.9539 39.179 39.4185C37.2592 40.8831 35.8064 42.8592 34.9938 45.1113C34.1899 47.4219 34.0673 49.9079 34.6402 52.281C35.2131 54.6541 36.4582 56.8171 38.2309 58.5192L52.4796 72.5463L-80.6075 203.538C-81.0523 203.976 -81.3184 204.56 -81.3552 205.178C-81.3921 205.795 -81.1971 206.404 -80.8073 206.889C-80.4175 207.373 -79.8602 207.7 -79.2411 207.806C-78.6221 207.912 -77.9845 207.79 -77.4495 207.464L-17.6376 170.961C-17.2373 170.716 -16.7765 170.585 -16.3059 170.581C-15.8352 170.577 -15.3728 170.701 -14.9695 170.938C-14.5661 171.176 -14.2373 171.519 -14.0191 171.929C-13.8009 172.339 -13.7018 172.8 -13.7325 173.263L-15.2078 195.48C-15.2419 195.992 -15.1168 196.501 -14.8491 196.94C-14.5814 197.38 -14.1839 197.728 -13.7095 197.939C-13.235 198.15 -12.7062 198.213 -12.1936 198.12C-11.6809 198.028 -11.2087 197.784 -10.8399 197.421L84.2538 103.823L98.7758 118.118C100.438 119.773 102.54 120.935 104.843 121.47C107.145 122.006 109.556 121.895 111.8 121.148C114.193 120.324 116.293 118.835 117.847 116.862C119.4 114.889 120.339 112.516 120.55 110.03Z" fill="#E7F8FB"/>
<path d="M300.737 113.653L310.064 16.8938C310.282 14.6311 309.99 12.3501 309.209 10.2133C308.427 8.07647 307.175 6.13647 305.541 4.53151C303.907 2.92655 301.933 1.69613 299.758 0.927928C297.583 0.159722 295.261 -0.127363 292.957 0.0871277L194.462 9.24474C191.555 9.4979 188.776 10.5479 186.442 12.2752C184.109 14.0025 182.315 16.3377 181.264 19.0148C180.17 21.8904 179.949 25.0139 180.626 28.0066C181.303 30.9993 182.85 33.7326 185.079 35.8751L208.165 58.5548L-168.138 422.68C-168.598 423.131 -168.867 423.735 -168.891 424.372C-168.916 425.008 -168.694 425.63 -168.27 426.111C-167.846 426.592 -167.252 426.896 -166.607 426.963C-165.962 427.03 -165.315 426.855 -164.796 426.472L-30.1604 327.486C-29.7612 327.193 -29.284 327.02 -28.787 326.988C-28.29 326.957 -27.7948 327.069 -27.362 327.309C-26.9291 327.55 -26.5774 327.91 -26.3496 328.344C-26.1219 328.779 -26.0282 329.269 -26.0798 329.756L-29.6841 363.622C-29.739 364.139 -29.6296 364.66 -29.3709 365.113C-29.1122 365.566 -28.7169 365.929 -28.2393 366.152C-27.7617 366.374 -27.2253 366.447 -26.7036 366.358C-26.1819 366.269 -25.7006 366.024 -25.3259 365.656L250.54 100.192L273.626 122.872C275.806 125.062 278.589 126.583 281.635 127.248C284.681 127.914 287.861 127.696 290.788 126.622C293.514 125.59 295.892 123.827 297.651 121.534C299.41 119.241 300.479 116.51 300.737 113.653Z" fill="#E7F8FB"/>
</g>
<defs>
<clipPath id="clip0_5072_126022">
<rect width="309.571" height="426.497" fill="white" transform="matrix(1.00015 -0.00115111 -0.00125443 0.999842 0.535156 0.356445)"/>
</clipPath>
</defs>
</svg>
