<svg width="24" height="25" viewBox="0 0 24 25" fill="none" xmlns="http://www.w3.org/2000/svg">
<path d="M3 18.9834V12.9834C3 10.5965 3.94821 8.30726 5.63604 6.61944C7.32387 4.93161 9.61305 3.9834 12 3.9834C14.3869 3.9834 16.6761 4.93161 18.364 6.61944C20.0518 8.30726 21 10.5965 21 12.9834V18.9834" stroke="black" stroke-width="1.2" stroke-linecap="round" stroke-linejoin="round"/>
<path d="M21 19.9834C21 20.5138 20.7893 21.0225 20.4142 21.3976C20.0391 21.7727 19.5304 21.9834 19 21.9834H18C17.4696 21.9834 16.9609 21.7727 16.5858 21.3976C16.2107 21.0225 16 20.5138 16 19.9834V16.9834C16 16.453 16.2107 15.9443 16.5858 15.5692C16.9609 15.1941 17.4696 14.9834 18 14.9834H21V19.9834ZM3 19.9834C3 20.5138 3.21071 21.0225 3.58579 21.3976C3.96086 21.7727 4.46957 21.9834 5 21.9834H6C6.53043 21.9834 7.03914 21.7727 7.41421 21.3976C7.78929 21.0225 8 20.5138 8 19.9834V16.9834C8 16.453 7.78929 15.9443 7.41421 15.5692C7.03914 15.1941 6.53043 14.9834 6 14.9834H3V19.9834Z" stroke="black" stroke-width="1.2" stroke-linecap="round" stroke-linejoin="round"/>
</svg>
