<svg width="24" height="25" viewBox="0 0 24 25" fill="none" xmlns="http://www.w3.org/2000/svg">
<path d="M12 22.9834C17.5228 22.9834 22 18.5062 22 12.9834C22 7.46055 17.5228 2.9834 12 2.9834C6.47715 2.9834 2 7.46055 2 12.9834C2 18.5062 6.47715 22.9834 12 22.9834Z" stroke="black" stroke-width="1.2" stroke-linecap="round" stroke-linejoin="round"/>
<path d="M9.08984 9.98299C9.32495 9.31466 9.789 8.7511 10.3998 8.39212C11.0106 8.03315 11.7287 7.90193 12.427 8.0217C13.1253 8.14148 13.7587 8.50452 14.2149 9.04652C14.6712 9.58852 14.9209 10.2745 14.9198 10.983C14.9198 12.983 11.9198 13.983 11.9198 13.983" stroke="black" stroke-width="1.2" stroke-linecap="round" stroke-linejoin="round"/>
<path d="M12 17.9834H12.01" stroke="black" stroke-width="2" stroke-linecap="round" stroke-linejoin="round"/>
</svg>
