<svg width="66" height="23" viewBox="0 0 66 23" fill="none" xmlns="http://www.w3.org/2000/svg">
<g id="Group">
<path id="Vector" d="M0.5 2.87121H1.04612C2.28432 2.87121 3.28876 3.83891 3.28876 5.03182V17.1999C3.28876 18.3928 2.28432 19.3605 1.04612 19.3605H0.5V22.1702H14.7266V19.3605H14.1804C12.9422 19.3605 11.9378 18.3928 11.9378 17.1999V5.03182C11.9378 3.83891 12.9422 2.87121 14.1804 2.87121H14.7266V0.0615234H0.5V2.87121Z" fill="#979A98"/>
<path id="Vector_2" d="M27.7005 17.1999L27.6944 0.0615234H16.2627V2.87121H16.8088C18.047 2.87121 19.0515 3.83891 19.0515 5.03182V17.1999C19.0515 18.3928 18.047 19.3605 16.8088 19.3605H16.2627V22.1702H30.4892V19.3605H29.9431C28.7049 19.3605 27.7005 18.3928 27.7005 17.1999Z" fill="#979A98"/>
<path id="Vector_3" d="M39.3987 2.87121H39.9448C41.184 2.87121 42.1874 3.83891 42.1874 5.03182V17.1999C42.1874 18.3928 41.183 19.3605 39.9448 19.3605H39.3987V22.1702H50.7691L50.8304 0.0615234H39.3987V2.87121Z" fill="#979A98"/>
<path id="Vector_4" d="M28.8992 2.87121H32.9496C34.1878 2.87121 35.1923 3.83891 35.1923 5.03182V8.71382H37.9432V0.0615234H28.8992V2.87121Z" fill="#979A98"/>
<path id="Vector_5" d="M30.4739 7.53605C30.4739 8.72896 30.6322 9.69667 28.6039 9.69667V12.0176C30.6322 12.0176 30.4739 12.9853 30.4739 14.1782V15.2846H33.1994V6.42968H30.4739V7.53605Z" fill="#979A98"/>
<path id="Vector_6" d="M61.0015 10.9162C63.0635 9.98879 64.5569 8.01994 64.5569 5.74131C64.5569 2.57071 61.667 0 58.3761 0H51.9738V2.99162H52.0217C53.9122 2.99162 56.1273 3.69281 56.0936 6.28909C56.062 8.71228 53.9122 9.58656 52.0217 9.58656V12.1691C54.1572 12.1691 56.6959 12.828 56.5693 15.8943C56.459 18.5654 54.1572 19.1446 52.0217 19.1446H51.9738V22.1677H59.3193C62.6102 22.1677 65.5001 19.597 65.5001 16.4264C65.5001 13.8124 63.5351 11.6075 61.0005 10.9142L61.0015 10.9162Z" fill="#979A98"/>
</g>
</svg>
