<svg width="20" height="21" viewBox="0 0 20 21" fill="none" xmlns="http://www.w3.org/2000/svg">
<g id="InstagramLogo">
<path id="Vector" d="M13.75 2.50391H6.25C5.09006 2.50515 3.97798 2.96648 3.15778 3.78668C2.33758 4.60689 1.87624 5.71896 1.875 6.87891V14.3789C1.87624 15.5388 2.33758 16.6509 3.15778 17.4711C3.97798 18.2913 5.09006 18.7527 6.25 18.7539H13.75C14.9099 18.7527 16.022 18.2913 16.8422 17.4711C17.6624 16.6509 18.1238 15.5388 18.125 14.3789V6.87891C18.1238 5.71896 17.6624 4.60689 16.8422 3.78668C16.022 2.96648 14.9099 2.50515 13.75 2.50391ZM10 14.3789C9.25832 14.3789 8.5333 14.159 7.91661 13.7469C7.29993 13.3349 6.81928 12.7492 6.53545 12.064C6.25162 11.3787 6.17736 10.6247 6.32206 9.89732C6.46675 9.16989 6.8239 8.5017 7.34835 7.97726C7.8728 7.45281 8.54098 7.09566 9.26841 6.95096C9.99584 6.80627 10.7498 6.88053 11.4351 7.16436C12.1203 7.44819 12.706 7.92883 13.118 8.54552C13.5301 9.1622 13.75 9.88723 13.75 10.6289C13.749 11.6232 13.3535 12.5764 12.6505 13.2794C11.9475 13.9825 10.9942 14.3779 10 14.3789ZM14.6875 6.87891C14.5021 6.87891 14.3208 6.82392 14.1667 6.72091C14.0125 6.6179 13.8923 6.47148 13.8214 6.30017C13.7504 6.12887 13.7318 5.94037 13.768 5.75851C13.8042 5.57665 13.8935 5.40961 14.0246 5.27849C14.1557 5.14738 14.3227 5.05809 14.5046 5.02192C14.6865 4.98575 14.875 5.00431 15.0463 5.07527C15.2176 5.14623 15.364 5.26639 15.467 5.42056C15.57 5.57473 15.625 5.75599 15.625 5.94141C15.625 6.19005 15.5262 6.4285 15.3504 6.60432C15.1746 6.78013 14.9361 6.87891 14.6875 6.87891ZM12.5 10.6289C12.5 11.1234 12.3534 11.6067 12.0787 12.0178C11.804 12.429 11.4135 12.7494 10.9567 12.9386C10.4999 13.1278 9.99723 13.1773 9.51227 13.0809C9.02732 12.9844 8.58186 12.7463 8.23223 12.3967C7.8826 12.047 7.6445 11.6016 7.54804 11.1166C7.45157 10.6317 7.50108 10.129 7.6903 9.6722C7.87952 9.21538 8.19995 8.82494 8.61107 8.55023C9.0222 8.27553 9.50555 8.12891 10 8.12891C10.663 8.12891 11.2989 8.3923 11.7678 8.86114C12.2366 9.32998 12.5 9.96587 12.5 10.6289Z" fill="#979A98"/>
</g>
</svg>
