<svg width="14" height="14" viewBox="0 0 14 14" fill="none" xmlns="http://www.w3.org/2000/svg">
<path d="M6.99997 0.98877C5.36743 0.98877 5.1627 0.995682 4.52155 1.02494C4.02295 1.03495 3.52965 1.12943 3.06264 1.30436C2.66326 1.4588 2.30055 1.69499 1.99777 1.99777C1.69499 2.30055 1.4588 2.66326 1.30436 3.06264C1.1294 3.52973 1.03492 4.02312 1.02494 4.52181C0.995682 5.1627 0.98877 5.36743 0.98877 6.99997C0.98877 8.63252 0.995682 8.83725 1.02494 9.47839C1.03492 9.97708 1.1294 10.4705 1.30436 10.9376C1.4588 11.3369 1.69499 11.6996 1.99777 12.0024C2.30055 12.3052 2.66326 12.5414 3.06264 12.6958C3.52973 12.8708 4.02312 12.9653 4.52181 12.9753C5.1627 13.0043 5.36743 13.0112 6.99997 13.0112C8.63252 13.0112 8.83725 13.0043 9.47839 12.975C9.97708 12.965 10.4705 12.8705 10.9376 12.6956C11.3369 12.5411 11.6996 12.305 12.0024 12.0022C12.3052 11.6994 12.5414 11.3367 12.6958 10.9373C12.8708 10.4702 12.9653 9.97683 12.9753 9.47814C13.0043 8.83725 13.0112 8.63252 13.0112 6.99997C13.0112 5.36743 13.0043 5.1627 12.975 4.52155C12.965 4.02295 12.8705 3.52965 12.6956 3.06264C12.5411 2.6633 12.3049 2.30065 12.0021 1.99791C11.6994 1.69517 11.3367 1.45903 10.9373 1.30461C10.4702 1.12965 9.97683 1.03518 9.47814 1.02519C8.83725 0.995682 8.63252 0.98877 6.99997 0.98877Z" fill="white"/>
<path d="M10.2105 4.51178C10.6089 4.51178 10.9318 4.18882 10.9318 3.79044C10.9318 3.39205 10.6089 3.06909 10.2105 3.06909C9.81209 3.06909 9.48914 3.39205 9.48914 3.79044C9.48914 4.18882 9.81209 4.51178 10.2105 4.51178Z" fill="#034EA2"/>
<path d="M6.9997 3.91211C6.38917 3.91211 5.79236 4.09315 5.28473 4.43234C4.7771 4.77153 4.38145 5.25363 4.14782 5.81768C3.91418 6.38172 3.85305 7.00239 3.97216 7.60118C4.09126 8.19997 4.38526 8.74999 4.81696 9.1817C5.24867 9.6134 5.79869 9.9074 6.39748 10.0265C6.99627 10.1456 7.61694 10.0845 8.18098 9.85084C8.74503 9.61721 9.22713 9.22156 9.56632 8.71393C9.90551 8.2063 10.0866 7.60948 10.0866 6.99896C10.0866 6.18028 9.76133 5.39513 9.18243 4.81623C8.60354 4.23733 7.81838 3.91211 6.9997 3.91211ZM6.9997 9.0027C6.6034 9.0027 6.21599 8.88518 5.88648 8.66501C5.55697 8.44483 5.30014 8.13189 5.14849 7.76576C4.99683 7.39962 4.95715 6.99674 5.03446 6.60805C5.11178 6.21937 5.30261 5.86234 5.58284 5.58211C5.86307 5.30188 6.2201 5.11104 6.60879 5.03373C6.99747 4.95641 7.40036 4.9961 7.76649 5.14775C8.13263 5.29941 8.44557 5.55624 8.66574 5.88575C8.88591 6.21526 9.00343 6.60266 9.00343 6.99896C9.00343 7.53039 8.79232 8.04004 8.41655 8.41582C8.04078 8.79159 7.53112 9.0027 6.9997 9.0027Z" fill="#034EA2"/>
</svg>
