<svg width="13" height="12" viewBox="0 0 13 12" fill="none" xmlns="http://www.w3.org/2000/svg">
<path d="M11.1233 5C11.1233 8.5 6.62329 11.5 6.62329 11.5C6.62329 11.5 2.12329 8.5 2.12329 5C2.12329 3.80653 2.5974 2.66193 3.44131 1.81802C4.28522 0.974106 5.42982 0.5 6.62329 0.5C7.81677 0.5 8.96136 0.974106 9.80527 1.81802C10.6492 2.66193 11.1233 3.80653 11.1233 5Z" stroke="#302B27" stroke-linecap="round" stroke-linejoin="round"/>
<path d="M6.62329 6.5C7.45172 6.5 8.12329 5.82843 8.12329 5C8.12329 4.17157 7.45172 3.5 6.62329 3.5C5.79486 3.5 5.12329 4.17157 5.12329 5C5.12329 5.82843 5.79486 6.5 6.62329 6.5Z" stroke="#302B27" stroke-linecap="round" stroke-linejoin="round"/>
</svg>
