<svg xmlns="http://www.w3.org/2000/svg" width="50" height="50">
  <circle cx="25" cy="25" r="25" fill="#00589F"/>
  <path d="M25 15c-4.8 0-7.6 3.2-7.6 6.6 0 1.9.7 3.6 2.3 4.3.2.1.5 0 .6-.3.2-.3.3-.8.4-1.1.1-.4.1-.5-.3-.9-.5-.6-.9-1.4-.9-2.6 0-3.2 2.5-5.5 5.8-5.5s5 2 5 4.5c0 3.4-1.5 6.4-3.8 6.4-1.3 0-2.2-1.2-2-2.6.3-1.6 1.1-3.3 1.1-4.4 0-1-.5-1.8-1.5-1.8-1.2 0-2.2 1.2-2.2 3 0 1.2.3 2 .3 2l-1.4 6.4c-.5 2.2-.1 5-.1 5.2 0 .2.1.3.3.2.1-.1 1.8-2.2 2.3-4.3.2-.6.8-3.2.8-3.2.5.8 1.7 1.6 3 1.6 4 0 6.6-3.5 6.6-8.1-.2-4.3-3.5-7.6-8.3-7.6z" fill="#fff"/>
</svg>
