<svg width="25" height="24" viewBox="0 0 25 24" fill="none" xmlns="http://www.w3.org/2000/svg">
<rect x="0.5" width="24" height="24" rx="12" fill="#EDEEED"/>
<path d="M14.2881 6.44544L10.223 8.39732C9.91617 8.54685 9.56721 8.58613 9.23482 8.50854C9.09458 8.47376 8.95287 8.44521 8.8101 8.42298C7.69483 8.29648 7 9.17893 7 10.194V10.7513C7 11.7657 7.69483 12.6488 8.8101 12.5211C8.95302 12.5 9.09478 12.4716 9.23482 12.4361C9.56728 12.3587 9.91624 12.3982 10.223 12.548L14.2881 14.4992C15.2212 14.9472 15.6881 15.1715 16.2082 14.9967C16.7289 14.8219 16.9073 14.4473 17.2642 13.6981C17.7485 12.6918 18 11.5894 18 10.4726C18 9.35589 17.7485 8.25348 17.2642 7.24721C16.9073 6.49799 16.7289 6.12277 16.2082 5.94861C15.6881 5.77383 15.2212 5.99688 14.2881 6.44544Z" stroke="#353936" stroke-width="0.916663" stroke-linecap="round" stroke-linejoin="round"/>
<path d="M9.74981 12.3054V8.63876M12.1686 17.3593L11.2574 18.1109C9.20286 16.4817 9.45403 15.705 9.45403 12.611H10.147C10.4281 14.3587 11.0912 15.1874 12.0066 15.7869C12.5701 16.156 12.6862 16.9327 12.1686 17.3593Z" stroke="#353936" stroke-width="0.916663" stroke-linecap="round" stroke-linejoin="round"/>
</svg>
