<svg width="54" height="51" viewBox="0 0 54 51" fill="none" xmlns="http://www.w3.org/2000/svg">
<path d="M26.9945 0C38.6138 0 48 9.7676 48 21.8477V50H6V21.7441C6 9.7676 15.3862 0 26.9945 0Z" fill="#FFE6DA"/>
<path d="M35.7453 39.3019H35.7999L34.1523 31.1839H34.0977V31.1948H34.0759L33.9995 32.3296L33.814 31.1948H33.7595H33.7049L33.574 32.3732L33.4431 31.2057H33.3885V31.1948H33.334L33.1485 32.3405L33.0721 31.2057H33.0503H32.9957L32.7557 32.4059L32.5156 31.1948H32.4938H34.185V30.0273H34.1632L33.2248 22.0948V21.4183L34.1741 14.3805V13.213H34.4796V12.0455H34.7852V10.878H35.167V9.71045H33.9886V7.46272H32.0464V6.94989H32.1664V6.87351H32.0355V6.80804H32.1446V6.53526H32.0028V6.43706H32.1555L32.1992 6.40432L32.2428 6.37159H32.0464V6.2843H32.1664V5.43322H32.0682V5.13861H32.1883V5.01859H32.1119V4.76763H32.1883V4.64761H32.101V4.36391H32.1774V4.29844H32.101V4.02566H32.1992V3.96019H32.1119V3.65468H32.2646V3.53465H32.1228V3.4801H32.2428V3.39281H32.0682V3.2946L32.1883 3.26187L32.3083 3.08729V3H31.5554V3.08729L31.6754 3.26187L31.7955 3.2946V3.39281H31.6209V3.4801H31.7409V3.53465H31.5991V3.65468H31.7518V3.96019H31.6645V4.02566H31.7627V4.29844H31.6863V4.36391H31.7627V4.64761H31.6754V4.76763H31.7518V5.01859H31.6754V5.13861H31.7955V5.43322H31.6973V6.2843H31.8173V6.37159H31.6209L31.6645 6.40432L31.7082 6.43706H31.8609V6.53526H31.7191V6.80804H31.8282V6.87351H31.6973V6.94989H31.8173V7.46272H29.8751V9.71045H28.6967V10.8889H29.0785V12.0564H29.3841V13.2239H29.6896V14.3914L30.6389 21.4292V22.1057H30.6498L29.7114 30.0382H29.6896V31.2057H31.3808H31.359L31.119 32.3841L30.8789 31.2057H30.8244V31.2166H30.8025L30.7262 32.3514L30.5407 31.2166H30.4861H30.4315L30.3006 32.395L30.1697 31.2275H30.1151V31.2166H30.0606L29.8751 32.3623L29.7987 31.2275H29.7769H29.7223L28.0747 39.3346H28.1293L29.7441 31.3803L29.8314 32.6133L28.7512 39.3237H28.8058L29.8532 32.8642L30.006 35.1119L29.5368 39.3346H29.5914L30.0169 35.4502L30.1369 37.2069L29.7005 39.3346H29.755L30.1369 37.4251L30.257 39.1382V39.3346H30.2679H30.2788H30.2897H30.3115L30.3006 39.1382L30.5516 35.4502L30.7262 37.0214L30.3552 39.3346H30.4097L30.748 37.2396L30.9771 39.3346H31.0317L30.7807 37.0214L31.0862 35.1338L31.3481 36.7814V37.3815L31.1299 39.3346H31.1844L31.3372 37.9161V39.1928L31.3045 39.3346H31.3372H31.7518H31.7627H32.0355H32.4392H32.472L32.4392 39.16V37.9707L32.592 39.3455H32.6465L32.4392 37.436V36.825L32.7011 35.1774L33.0066 37.076L32.7557 39.3455H32.8102L33.0393 37.2942L33.3667 39.3455H33.4212L33.0503 37.076L33.2248 35.4502L33.4758 39.1382V39.3346H33.4867H33.4976H33.5085H33.5304L33.5194 39.1382L33.6286 37.4688L34.0105 39.3346H34.065L33.6395 37.2506L33.7595 35.4502L34.185 39.3455H34.2396L33.7704 35.1229L33.9232 32.8751L34.9706 39.3455H35.0252L33.945 32.6242L34.0323 31.3912L35.6471 39.3455L35.7453 39.3019ZM33.3994 31.2057L33.5522 32.6351L33.323 34.7519L33.1812 32.5805L33.3994 31.2057ZM33.2794 34.9046L33.0175 33.6062L33.1375 32.8424L33.2794 34.9046ZM33.0393 31.3475L33.1266 32.5805L32.9848 33.4425L32.7993 32.526L33.0393 31.3366V31.3475ZM32.9521 33.6171L32.7666 34.7846L32.5811 33.6171L32.7666 32.6896L32.9521 33.6171ZM32.7338 32.5369L32.5483 33.4534L32.4938 33.137V31.3803L32.7338 32.5478V32.5369ZM31.0208 29.8963L31.1626 26.2411L31.2608 27.8014L31.0535 30.0164H31.0208V29.8963ZM30.868 25.9137L31.0098 23.7533L31.1517 25.9137V26.0774L30.9444 27.7577L30.868 25.9137ZM30.9116 27.976L30.6716 30.0055H30.6061L30.8462 26.2411L30.9116 27.976ZM32.963 27.8014L32.7666 26.1647V25.9028L32.8975 23.7424L33.0393 25.9028L32.963 27.8014ZM33.0612 26.2411L33.3012 30.0055H33.2248L32.9848 28.0196L33.0503 26.2411H33.0612ZM32.8757 30.0055H32.8429L32.6356 27.845L32.7338 26.2411L32.8757 29.8963V30.0164V30.0055ZM31.3372 19.4324L31.3917 19.8252V20.6217L31.3045 21.2655L31.2608 20.1853L31.3481 19.4215L31.3372 19.4324ZM31.2499 19.978L31.1626 18.1449L31.3154 19.3015L31.239 19.9889L31.2499 19.978ZM32.6247 20.1962L32.5811 21.2764L32.5047 20.6872V19.7816L32.5483 19.4433L32.6356 20.2071L32.6247 20.1962ZM32.5592 19.2906L32.712 18.134L32.6247 19.9671L32.5483 19.2797L32.5592 19.2906ZM31.3154 21.3964L31.3808 20.8727V21.3964H31.3154ZM32.4938 20.9273L32.5592 21.3964H32.4938V20.9273ZM32.4938 22.062H32.5592L32.4938 22.5749V22.062ZM32.6029 21.3855L32.6465 20.4035L32.7557 21.3855H32.6029ZM32.7557 22.062L32.6465 23.1641L32.6029 22.062H32.7557ZM32.4938 19.4979V18.996L32.5265 19.2797L32.4938 19.5088V19.4979ZM31.3917 19.5524L31.359 19.2687L31.3917 18.9196V19.5524ZM31.2717 21.3855H31.119L31.2281 20.4035L31.2717 21.3855ZM31.2826 22.062L31.239 23.1641L31.1299 22.062H31.2826ZM31.3808 22.062V22.5094L31.3263 22.062H31.3808ZM32.4829 24.1679L32.5156 24.4407L32.4829 24.7789V24.1679ZM32.4829 23.8733V22.8695L32.5592 22.193L32.6029 23.415L32.5265 24.2661L32.4829 23.8624V23.8733ZM32.6247 23.666L32.7011 25.7173L32.5483 24.4298L32.6247 23.666ZM32.6465 23.4041L32.7775 22.0511L32.8648 23.4587L32.7338 25.5536L32.6465 23.4041ZM32.8102 22.0511H32.963L32.8866 23.1968L32.8102 22.0511ZM32.8102 21.3746L32.8866 20.3599L32.963 21.3746H32.8102ZM32.7775 21.3746L32.6465 20.1853L32.7338 18.2976L32.8648 20.1307L32.7775 21.3746ZM32.7447 18.003V17.7302L32.9521 16.3118L33.0284 17.9921L32.8866 19.8907L32.7447 17.9921V18.003ZM32.7775 17.3484L32.8866 14.8933L32.9411 16.1263L32.7775 17.3484ZM32.5374 19.1269L32.4938 18.6686V17.5229L32.6029 16.4754L32.712 17.883L32.5483 19.1269H32.5374ZM32.4938 17.2065V14.9479L32.592 16.29L32.4938 17.2065ZM31.3917 17.272L31.2826 16.29L31.3917 14.8497V17.272ZM31.3917 17.5884V18.6032L31.3372 19.1269L31.1735 17.883L31.2826 16.4754L31.4027 17.5884H31.3917ZM31.108 17.7412V18.0139L30.9771 19.9125L30.8353 18.0139L30.9116 16.3336L31.108 17.7521V17.7412ZM30.9226 16.1263L30.9771 14.8933L31.0862 17.3484L30.9226 16.1263ZM31.1299 18.2976L31.2172 20.1853L31.0862 21.3746L30.9989 20.1307L31.1299 18.2976ZM31.0535 21.3855H30.9007L30.9771 20.3708L31.0535 21.3855ZM31.0644 22.062L30.988 23.2077L30.9116 22.062H31.0644ZM31.0971 22.062L31.2281 23.415L31.1408 25.5646L31.0098 23.4696L31.0971 22.062ZM31.2499 23.6769L31.3154 24.408L31.1735 25.63L31.2499 23.6769ZM31.2499 23.4259L31.2935 22.2039L31.3699 22.8149V23.8842L31.3263 24.2443L31.2499 23.4259ZM31.3699 24.1788V24.7026L31.3372 24.408L31.3699 24.1679V24.1788ZM32.472 26.7757L32.5702 27.8341L32.472 29.3835V26.7757ZM32.472 26.4156V25.139L32.5265 24.6044L32.6902 26.0119L32.592 27.6159L32.4829 26.4047L32.472 26.4156ZM32.7557 26.6011L32.9193 28.0196L32.8648 29.449L32.7557 26.6011ZM32.8866 23.4805L32.9739 22.0729L33.1048 23.4259L33.0175 25.5755L32.8866 23.4805ZM33.0066 22.0729H33.1594L33.1157 23.175L33.0066 22.0729ZM33.0066 21.3964L33.1157 20.4144L33.1594 21.3964H33.0066ZM32.9739 21.3964L32.8866 20.1526L33.0175 18.3195L33.1048 20.2071L32.9739 21.3964ZM33.0393 18.0249L33.3121 14.3587H33.7377L33.1375 19.9671L33.0503 18.0139L33.0393 18.0249ZM33.0284 17.7302L32.963 16.1481L33.203 14.3587H33.2794L33.0284 17.7302ZM32.9521 15.9517L32.8866 14.5223V14.3587H33.1703L32.9521 15.9517ZM32.8429 14.3587V14.5223L32.712 17.7302L32.6029 16.3009L32.8102 14.3587H32.8429ZM32.592 16.1154L32.472 14.5005V14.3696H32.7775L32.592 16.1263V16.1154ZM31.3699 14.3914L31.239 16.1154L31.0535 14.3587H31.3699V14.3914ZM31.0208 14.3587L31.2281 16.3009L31.119 17.7302L30.9771 14.5223V14.3587H31.0208ZM30.9444 14.3587V14.5223L30.8898 15.9517L30.6716 14.3587H30.9444ZM30.6389 14.3587L30.8789 16.1481L30.8134 17.7302L30.5625 14.3587H30.6389ZM30.5297 14.3587L30.8025 18.0249L30.7152 19.978L30.1151 14.3696H30.5407L30.5297 14.3587ZM30.8244 18.3085L30.9553 20.1416L30.868 21.3855L30.7371 20.1962L30.8244 18.3085ZM30.8353 21.3964H30.6825L30.7262 20.4144L30.8353 21.3964ZM30.8462 22.0729L30.7371 23.175L30.6934 22.0729H30.8462ZM30.8789 22.0729L30.9662 23.4805L30.8353 25.5755L30.748 23.4259L30.8789 22.0729ZM31.108 26.5138L30.988 29.449L30.9335 27.976L31.108 26.5138ZM31.1735 25.9792L31.3372 24.5716L31.3808 25.0626V26.4156L31.2717 27.5722L31.1735 25.9792ZM31.3808 26.7757V29.2744L31.2826 27.7905L31.3808 26.7757ZM31.3808 33.6498L31.359 33.5516L31.3808 33.4316V33.6389V33.6498ZM32.4829 33.4752L32.5047 33.5953L32.4829 33.6935V33.4752ZM32.4829 30.0055V29.9291L32.6029 28.0632L32.7884 30.0055H32.4829ZM32.9084 30.0055V29.8963L32.9739 28.2487L33.1812 30.0164H32.9084V30.0055ZM33.323 30.0055L33.0612 25.9028L33.1485 23.6769L33.7486 29.9945H33.334L33.323 30.0055ZM33.7704 30.0055L33.1485 23.4369L33.1921 22.2148L34.1196 30.0055H33.7704ZM33.203 21.2655L33.1594 20.1853L33.7922 14.3587H34.1414L33.2139 21.2655H33.203ZM30.0824 14.3587L30.7043 20.1853L30.6607 21.2655L29.7332 14.3587H30.0824ZM30.6716 22.2039L30.7152 23.4259L30.0933 29.9945H29.7441L30.6716 22.2039ZM30.1369 29.9945L30.7371 23.6769L30.8244 25.9028L30.5625 30.0055H30.1479L30.1369 29.9945ZM30.6934 29.9945L30.9116 28.1833L30.9771 29.8745V29.9945H30.6934ZM31.0753 29.9945L31.2608 27.9978L31.3808 29.7981V29.9945H31.0753ZM31.3808 31.3257V33.0715L31.3263 33.388L31.1408 32.4823L31.3699 31.3257H31.3808ZM31.3045 33.5516L31.119 34.7082L30.9335 33.5516L31.119 32.6242L31.3045 33.5516ZM30.8571 31.3257L31.0862 32.4823L30.9007 33.388L30.7698 32.5587L30.8571 31.3257ZM30.8789 33.5516L30.628 34.7846L30.7589 32.8097L30.8789 33.5407V33.5516ZM30.497 31.1839L30.7152 32.5587L30.5734 34.73L30.3443 32.6133L30.497 31.1839ZM29.8969 32.5587L30.1151 31.1839L30.2679 32.6133L30.0387 34.73L29.8969 32.5587ZM30.0606 35.0574L30.3006 32.8751L30.5407 35.0574V35.2211L30.1806 36.9232L30.0606 35.0574ZM30.2024 37.1524L30.497 35.6684L30.3006 38.6363L30.2024 37.1414V37.1524ZM30.7916 36.7486L30.617 35.1338L30.9007 33.7153L31.0862 34.8937L30.7916 36.7486ZM31.1517 34.8937L31.3372 33.7153L31.3808 33.9444V36.3558L31.1408 34.8937H31.1517ZM32.4938 36.3995V33.9772L32.5374 33.748L32.7229 34.9374L32.4829 36.3995H32.4938ZM32.7884 34.9374L32.9739 33.748L33.2576 35.1774L33.083 36.7923L32.7775 34.9374H32.7884ZM33.5849 38.6363L33.3885 35.7666L33.6831 37.196L33.5849 38.6363ZM33.694 36.9669L33.3558 35.3193L33.334 35.0574L33.574 32.8751L33.814 35.0574L33.6831 36.9669H33.694ZM33.8468 34.7191L33.6176 32.6023L33.7704 31.173L33.9886 32.5478L33.8468 34.7191Z" fill="#001D43"/>
<mask id="mask0_696_45762" style="mask-type:luminance" maskUnits="userSpaceOnUse" x="6" y="3" width="42" height="47">
<path d="M26.9945 3C38.6138 3 48 12.1815 48 23.5368V50H6V23.4395C6 12.1815 15.3862 3 26.9945 3Z" fill="white"/>
</mask>
<g mask="url(#mask0_696_45762)">
<path d="M3.3717 45.5432H51.2505L52.6471 42.6081L51.9488 36.7051H5.95768L3.3717 45.5432Z" fill="#001D43"/>
<path d="M52.6472 44.4523V43.9613L47.5734 42.1719L47.4752 42.2701L52.5381 43.9613V44.4523H52.6472Z" fill="#FFD8D2"/>
<path d="M47.9771 42.3691H47.8789V42.8711H47.9771V42.3691Z" fill="#FFD8D2"/>
<path d="M46.5804 42.1719H46.4822V42.6738H46.5804V42.1719Z" fill="#FFD8D2"/>
<path d="M45.4893 42.1719H45.3911V42.6738H45.4893V42.1719Z" fill="#FFD8D2"/>
<path d="M44.4964 42.1719H44.3982V42.6738H44.4964V42.1719Z" fill="#FFD8D2"/>
<path d="M43.5035 42.1719H43.4053V42.6738H43.5035V42.1719Z" fill="#FFD8D2"/>
<path d="M42.5106 42.1719H42.4124V42.6738H42.5106V42.1719Z" fill="#FFD8D2"/>
<path d="M41.5176 42.1719H41.4194V42.6738H41.5176V42.1719Z" fill="#FFD8D2"/>
<path d="M40.4264 42.1719H40.3282V42.6738H40.4264V42.1719Z" fill="#FFD8D2"/>
<path d="M39.4335 42.1719H39.3353V42.6738H39.4335V42.1719Z" fill="#FFD8D2"/>
<path d="M38.4406 42.1719H38.3424V42.6738H38.4406V42.1719Z" fill="#FFD8D2"/>
<path d="M37.4368 42.1719H37.3386V42.6738H37.4368V42.1719Z" fill="#FFD8D2"/>
<path d="M36.4438 42.1719H36.3456V42.6738H36.4438V42.1719Z" fill="#FFD8D2"/>
<path d="M35.3527 42.1719H35.2545V42.6738H35.3527V42.1719Z" fill="#FFD8D2"/>
<path d="M34.3598 42.1719H34.2616V42.6738H34.3598V42.1719Z" fill="#FFD8D2"/>
<path d="M33.3669 42.1719H33.2687V42.6738H33.3669V42.1719Z" fill="#FFD8D2"/>
<path d="M32.374 42.1719H32.2758V42.6738H32.374V42.1719Z" fill="#FFD8D2"/>
<path d="M31.381 42.1719H31.2828V42.6738H31.381V42.1719Z" fill="#FFD8D2"/>
<path d="M30.2899 42.1719H30.1917V42.6738H30.2899V42.1719Z" fill="#FFD8D2"/>
<path d="M29.2969 42.1719H29.1987V42.6738H29.2969V42.1719Z" fill="#FFD8D2"/>
<path d="M28.304 42.1719H28.2058V42.6738H28.304V42.1719Z" fill="#FFD8D2"/>
<path d="M27.3111 42.1719H27.2129V42.6738H27.3111V42.1719Z" fill="#FFD8D2"/>
<path d="M26.3182 42.1719H26.22V42.6738H26.3182V42.1719Z" fill="#FFD8D2"/>
<path d="M25.227 42.1719H25.1288V42.6738H25.227V42.1719Z" fill="#FFD8D2"/>
<path d="M24.2341 42.1719H24.1359V42.6738H24.2341V42.1719Z" fill="#FFD8D2"/>
<path d="M23.2411 42.1719H23.1429V42.6738H23.2411V42.1719Z" fill="#FFD8D2"/>
<path d="M22.2482 42.1719H22.15V42.6738H22.2482V42.1719Z" fill="#FFD8D2"/>
<path d="M21.4517 42.1719H21.3535V42.6738H21.4517V42.1719Z" fill="#FFD8D2"/>
<path d="M47.5843 42.1719H21.3535V42.2701H47.5843V42.1719Z" fill="#FFD8D2"/>
<path d="M3.27356 41.2772V46.7438H4.16829H5.06301H5.75042H18.0693H21.2554H52.6472V44.4524L51.9488 44.256L51.0541 43.9614L50.2576 43.6559H50.1594L49.3629 43.3613L48.5663 43.1649H48.4681L47.6716 42.8594L47.4752 42.7612H21.2554L20.4588 42.5648H20.3606L19.5641 42.3684V42.2701L18.7676 42.0737H18.6694L18.0693 41.8664H14.8941L14.4904 41.7682H14.3922L13.6066 41.4736L12.81 41.179L12.7118 41.0808L11.9153 40.7753L11.1188 40.4807H11.0206L10.2241 40.1861H10.1259L9.83125 40.0879H7.83448L7.63808 40.1861L6.84155 40.6771H6.74335L5.95774 41.0808V41.179L5.75042 41.2772H5.06301H4.16829H3.27356Z" fill="#F3BCB0"/>
<path d="M52.5381 44.3539L47.4752 42.6627H21.2554L18.0693 41.768H14.8941L9.83125 39.9785H7.83448L5.75042 41.1788H3.27356V41.3752H5.75042L7.94359 40.1858H9.83125L14.8941 41.9753H18.0693L21.2554 42.9682H47.4752L52.5381 44.6158V46.7435H52.6472V44.6485V44.3867L52.5381 44.3539Z" fill="#E5A398"/>
<path d="M15.2867 41.7676V48.0307H21.2552V42.6623L18.0691 41.7676H15.2867Z" fill="#EFADA3"/>
<path d="M34.2614 41.4727L34.1632 42.662H33.4648L33.574 41.5709L34.2614 41.4727Z" fill="#E1E1E1"/>
<path d="M1.17871 44.1568V46.7428H10.3224V46.3391L9.92957 46.1427H9.83137L9.42765 45.848H9.32945L8.93664 45.6407L8.53292 45.4443L8.43472 45.3461L8.04192 45.1497H7.94371L7.7364 45.0515H7.24539L7.14719 44.9533H7.04899L6.64527 44.6478L6.15426 44.3532L5.75054 44.0586H5.65234H2.18255V44.1568H1.17871Z" fill="#E5A398"/>
<path d="M1.08057 44.1562V46.7422H10.2242V46.4367L9.83143 46.2403H9.72231L9.62411 46.1421H9.52591L9.32951 46.0439H9.2313L8.8385 45.7384H8.72938L8.43478 45.542H8.33658L8.04197 45.3456H7.94377L7.83466 45.2474L7.73646 45.1492H7.14725L7.04905 45.051H6.95084L6.54713 44.8546V44.7455H6.44892L6.15432 44.5491L6.05612 44.4509L5.6524 44.2545H5.5542V44.1562H1.08057Z" fill="#EFADA3"/>
<path d="M53.1382 46.7422H0.589355V51.7941H53.1382V46.7422Z" fill="#FFD8D2"/>
<path d="M48.2718 43.7539H40.0228V44.0485H48.2718V43.7539Z" fill="#E5A398"/>
<path d="M48.2718 43.7539H40.0228V43.9503H48.2718V43.7539Z" fill="#FFD8D2"/>
<path d="M32.4724 43.6562H21.7466V43.9509H32.4724V43.6562Z" fill="#E5A398"/>
<path d="M32.4724 43.6562H21.7466V43.8527H32.4724V43.6562Z" fill="#FFD8D2"/>
<path d="M21.157 43.6562H15.5923V43.9509H21.157V43.6562Z" fill="#E5A398"/>
<path d="M21.157 43.6562H15.5923V43.8527H21.157V43.6562Z" fill="#FFD8D2"/>
<path d="M14.7959 43.6562H12.3081V43.9509H14.7959V43.6562Z" fill="#E5A398"/>
<path d="M14.7959 43.6562H12.3081V43.8527H14.7959V43.6562Z" fill="#FFD8D2"/>
<path d="M42.0196 44.9531H25.0308V46.5462H42.0196V44.9531Z" fill="#E5A398"/>
<path d="M42.216 44.8555H24.5288V45.5538H42.216V44.8555Z" fill="#FFD8D2"/>
<path d="M41.3104 45.543H41.114V46.5359H41.3104V45.543Z" fill="#FFD8D2"/>
<path d="M39.3246 45.543H39.1282V46.5359H39.3246V45.543Z" fill="#FFD8D2"/>
<path d="M37.3386 45.543H37.1422V46.5359H37.3386V45.543Z" fill="#FFD8D2"/>
<path d="M35.3528 45.543H35.1564V46.5359H35.3528V45.543Z" fill="#FFD8D2"/>
<path d="M33.6616 45.543H33.4652V46.5359H33.6616V45.543Z" fill="#FFD8D2"/>
<path d="M31.6757 45.543H31.4792V46.5359H31.6757V45.543Z" fill="#FFD8D2"/>
<path d="M29.7881 45.543H29.5917V46.5359H29.7881V45.543Z" fill="#FFD8D2"/>
<path d="M27.9004 45.543H27.704V46.5359H27.9004V45.543Z" fill="#FFD8D2"/>
<path d="M26.111 45.543H25.9146V46.5359H26.111V45.543Z" fill="#FFD8D2"/>
<path d="M21.048 44.4512H19.0621V46.7316H21.048V44.4512Z" fill="#F3BCB0"/>
<path d="M17.9819 42.5645H16.4871V43.2628H17.9819V42.5645Z" fill="#FFD8D2"/>
<path d="M45.4894 45.1504H43.9945V46.7434H45.4894V45.1504Z" fill="#E5A398"/>
<path d="M9.52576 46.1426V46.7427H9.62396V46.1426H9.52576Z" fill="#F3BCB0"/>
<path d="M8.729 45.7383V46.7421H8.83812V45.7383H8.729Z" fill="#F3BCB0"/>
<path d="M7.34344 45.1504H7.24524V46.6452H7.34344V45.1504Z" fill="#F3BCB0"/>
<path d="M7.34349 38.5918L2.47705 39.9775L3.27358 41.1778H5.75044L7.8345 39.9775L7.34349 38.5918Z" fill="#001D43"/>
<path d="M52.8435 46.743V46.4375H0.6875V46.5357V46.743H0.785702V46.5357H1.77863V46.743H1.87683V46.5357H2.86976V46.743V46.5357H3.96089V46.743V46.5357H4.95382V46.743H5.06293V46.5357H6.05586V46.743V46.5357H7.14699V46.743V46.5357H8.13991V46.743H8.23812V46.5357H9.23104V46.743H9.32925V46.5357H10.3222V46.743V46.5357H11.3151V46.743H11.4133V46.5357H12.4062V46.743H12.5044V46.5357H13.4974V46.743V46.5357H14.5994V46.743V46.5357H15.5923V46.743H15.6905V46.5357H16.6835V46.743H16.7817V46.5357H17.7746V46.743V46.5357H18.7675V46.743H18.8657V46.5357H19.8586V46.743H19.9568V46.5357H20.9498V46.743V46.5357H21.9427V46.743H22.0409V46.5357H23.0338V46.743H23.1429V46.5357H24.1359V46.743V46.5357H25.227V46.743V46.5357H26.2199V46.743H26.3181V46.5357H27.3111V46.743H27.4093V46.5357H28.4022V46.743V46.5357H29.3951V46.743H29.4933V46.5357H30.4862V46.743H30.5844V46.5357H31.5774V46.743V46.5357H32.6794V46.743V46.5357H33.6723V46.743H33.7705V46.5357H34.7635V46.743V46.5357H35.8546V46.743V46.5357H36.8475V46.743H36.9457V46.5357H37.9387V46.743H38.0369V46.5357H39.0298V46.743V46.5357H40.0227V46.743H40.1209V46.5357H41.1138V46.743H41.223V46.5357H42.2159V46.743V46.5357H43.307V46.743V46.5357H44.2999V46.743H44.3981V46.5357H45.3911V46.743H45.4893V46.5357H46.4822V46.743V46.5357H47.4751V46.743H47.5733V46.5357H48.5663V46.743H48.6645V46.5357H49.6574V46.743V46.5357H50.6503V46.743H50.7594V46.5357H51.7524V46.743H51.8506V46.5357H52.8435V46.743Z" fill="#FFD8D2"/>
<path d="M5.53223 10.8455H20.6989C20.6989 10.8455 19.5751 9.51436 15.5051 10.0708C11.4352 10.6273 8.89291 7.82311 5.53223 10.8455Z" fill="white"/>
<path d="M35.5928 13.8456H50.7595C50.7595 13.8456 49.8102 12.8199 45.7403 13.3873C41.6704 13.8128 39.9464 9.77564 35.5928 13.8456Z" fill="white"/>
</g>
<path d="M22.4445 38.1995H14.021L18.7783 23.1855C18.7783 23.1855 21.6916 35.3407 22.4336 38.1995H22.4445Z" fill="#D13B13"/>
<path d="M14.3921 30.0367C14.8176 30.1458 13.7592 33.2228 13.6501 39.2567L7.17969 36.2888L11.6315 29.6111C11.6315 29.7202 11.8388 29.0765 14.3921 30.0367Z" fill="#D13B13"/>
<path d="M24.0376 40.4256L36.9238 28.3359C36.9238 28.3359 27.9984 15.2314 16.3342 15.406L19.7931 40.4256H24.0267H24.0376Z" fill="#F55B02"/>
<path d="M6.97235 37.5662L13.1263 29.5027C13.1263 29.5027 7.61612 27.5932 2.73877 28.6516L6.2413 37.5552H6.98326L6.97235 37.5662Z" fill="#F55B02"/>
<path d="M50.7596 28.9792L44.191 40.327H43.1326L35.7129 32.1653C35.822 32.1653 40.1647 27.0807 50.7705 28.9792H50.7596Z" fill="#E24B00"/>
<path d="M8.75098 21.0703L13.7483 39.4777H14.283L18.7894 25.6094C18.6803 25.6094 14.3266 22.5106 8.75098 21.0703Z" fill="#F55B02"/>
<path d="M36.9238 28.3359L32.0574 32.5259L26.4163 38.1997L33.4759 39.0508L36.9238 28.3359Z" fill="#D13B13"/>
<path d="M43.2305 38.1997L33.4758 39.0508C33.945 32.9514 36.9238 28.3359 36.9238 28.3359L43.2305 38.1997Z" fill="#F55B02"/>
<path d="M54 49.9395H0V50.9324H54V49.9395Z" fill="#001D43"/>
<path d="M50.1265 34.3255C50.1265 34.3255 45.6638 32.3942 43.2306 32.6015L46.2748 38.7882H47.0823L50.1265 34.3255Z" fill="#F55B02"/>
</svg>
