<svg width="50" height="55" viewBox="0 0 50 55" fill="none" xmlns="http://www.w3.org/2000/svg">
<path d="M26.1653 4.14258C38.0633 4.14258 47.7215 13.8008 47.7215 25.6988V53.4694H4.60913V25.6988C4.60913 13.8008 14.2673 4.14258 26.1653 4.14258Z" fill="#FFE6DA"/>
<path d="M50.0002 53H2.33057V54.0228H50.0002V53Z" fill="#001D43"/>
<path d="M27.0197 3.61212V3.18488H26.6183V2.05852C26.6183 1.63128 26.2947 1.28172 25.8804 1.22993V0H25.6732V1.21699C25.2589 1.26877 24.9353 1.61833 24.9353 2.04557V3.17193H24.5339V3.59917H24.1326V4.31124H27.4081V3.59917H27.0197V3.61212Z" fill="#001F4C"/>
<path d="M0 29.9717H13.361C13.361 29.9717 13.3998 28.2627 9.77473 28.7029C6.14966 29.1431 3.80632 26.4114 0 29.9717Z" fill="white"/>
<path d="M35.2148 22.0088H48.5758C48.5758 22.0088 48.6146 20.2998 44.9896 20.74C41.3645 21.1802 39.0212 18.4485 35.2148 22.0088Z" fill="white"/>
<path d="M25.5048 27.5624C25.5048 27.5624 18.4489 45.8819 18.5525 52.8472H12.6617L24.4432 16.8555H26.6182L39.9921 52.8472C39.9921 52.8472 32.0558 52.8731 32.0558 52.8472C31.1366 43.681 25.5048 27.5624 25.5048 27.5624Z" fill="#F4D7CD"/>
<path d="M44.0446 52.3309C33.8426 40.7307 30.1269 23.926 29.6868 21.7639L26.5925 4.33767L24.9612 4.29883L21.8799 21.725C21.8799 21.725 18.695 39.9021 7.78101 52.3309H12.9079L14.9276 51.7354H16.2222C16.2222 46.4273 20.5464 42.1031 25.8545 42.1031C31.1627 42.1031 35.4869 46.4273 35.4869 51.7354H36.7815L38.9048 52.3309H44.0446ZM25.8545 40.8084C22.9027 40.8084 20.2098 41.9866 18.2419 43.9027C20.7147 38.9441 23.5112 31.681 25.3885 21.7509H26.4112C28.3144 31.8234 31.1627 39.1512 33.6614 44.1098C31.6935 42.0772 28.9229 40.8084 25.8545 40.8084Z" fill="#F55B02"/>
<mask id="mask0_696_45733" style="mask-type:luminance" maskUnits="userSpaceOnUse" x="7" y="4" width="38" height="49">
<path d="M44.0446 52.3309C33.8426 40.7307 30.1269 23.926 29.6868 21.7639L26.5925 4.33767L24.9612 4.29883L21.8799 21.725C21.8799 21.725 18.695 39.9021 7.78101 52.3309H12.9079L14.9276 51.7354H16.2222C16.2222 46.4273 20.5464 42.1031 25.8545 42.1031C31.1627 42.1031 35.4869 46.4273 35.4869 51.7354H36.7815L38.9048 52.3309H44.0446ZM25.8545 40.8084C22.9027 40.8084 20.2098 41.9866 18.2419 43.9027C20.7147 38.9441 23.5112 31.681 25.3885 21.7509H26.4112C28.3144 31.8234 31.1627 39.1512 33.6614 44.1098C31.6935 42.0772 28.9229 40.8084 25.8545 40.8084Z" fill="white"/>
</mask>
<g mask="url(#mask0_696_45733)">
<path d="M25.9192 20.457H25.6603V21.1044H25.9192V20.457Z" fill="#D13B13"/>
<path d="M23.4594 21.7129L25.5826 20.457H25.0777L23.2652 21.5187L22.2165 20.457H21.854L23.0321 21.6611L21.3491 22.658L22.7214 23.9397L20.883 24.4964L22.4495 25.9982L20.4299 26.7103L21.6209 28.0826L19.6919 28.8853L21.1678 30.5684L18.8892 31.4099L19.899 32.9376L18.1383 33.5332L19.3035 35.7211L17.0767 36.2002L18.1901 38.3882L15.8985 38.9319L17.2968 41.0681L14.6815 41.5471L15.6784 43.282L13.348 43.8775L14.4355 45.5477L12.1828 45.8195L13.2315 47.7745H10.8623L12.2476 50.2344L9.16626 50.3768L9.17921 50.6357L12.39 50.4803L13.115 51.7621L13.3351 51.6326L12.6748 50.4674L14.9016 50.3638L13.6588 48.0334H16.3646L14.8757 45.7419L17.232 45.457L16.0798 43.4503L18.7209 42.7771L17.7369 41.2623L19.7566 40.8998L18.5914 38.5824L20.8571 38.0515L19.7178 35.9283L21.8928 35.4622L20.3263 33.1059L22.9545 32.2126L21.6339 30.7108L23.6018 29.9858L22.0741 28.225L24.1973 27.3317L22.9415 26.1406L24.7411 25.5062L23.2263 24.095L25.1683 23.5124L23.4594 21.7129ZM14.5003 50.1178L12.5583 50.2085L11.3284 48.0205H13.3869L14.5003 50.1178ZM15.8985 47.7615H13.5293L12.5971 46.0137L14.6039 45.7678L15.8985 47.7615ZM16.8307 45.2369L14.7333 45.4959L13.7753 44.02L15.8338 43.5021L16.8307 45.2369ZM18.3195 42.6088L15.9633 43.2043L15.1217 41.7284L17.478 41.3012L18.3195 42.6088ZM19.3812 40.6927L17.5945 41.0163L16.3517 39.1002L18.3454 38.6212L19.3812 40.6927ZM20.4687 37.8444L18.4749 38.3234L17.491 36.3814L19.4589 35.9671L20.4687 37.8444ZM21.4785 35.2551L19.6013 35.6564L18.5396 33.6756L20.0803 33.1577L21.4785 35.2551ZM22.5143 32.0702L20.1839 32.8599L19.3164 31.5523L21.3879 30.7885L22.5143 32.0702ZM23.1616 29.8304L21.4526 30.4648L20.145 28.9889L21.8151 28.2898L23.1616 29.8304ZM23.7313 27.2022L21.8928 27.979L20.883 26.8268L22.6696 26.1924L23.7313 27.2022ZM24.2621 25.3509L22.7344 25.8946L21.3879 24.6129L22.9415 24.1468L24.2621 25.3509ZM23.0192 23.8491L21.7893 22.7097L23.2393 21.8553L24.7152 23.3441L23.0192 23.8491Z" fill="#D13B13"/>
<path d="M39.3061 50.2336L40.6914 47.7738H38.3222L39.3709 45.8188L37.1181 45.5469L38.2057 43.8768L35.8753 43.2813L36.8722 41.5464L34.2569 41.0674L35.6552 38.9312L33.3636 38.3874L34.477 36.1994L32.2502 35.7204L33.4154 33.5324L31.6547 32.9369L32.6645 31.4092L30.3859 30.5677L31.8618 28.8846L29.9327 28.0819L31.1238 26.7095L29.1042 25.9975L30.6707 24.4957L28.8323 23.939L30.2046 22.6572L28.5216 21.6603L29.7127 20.4434H29.3501L28.2885 21.5179L26.463 20.4434H25.9711L28.1202 21.7121L26.3983 23.4599L28.3403 24.0425L26.8255 25.4537L28.6251 26.0881L27.3693 27.2792L29.4926 28.1725L27.9649 29.9333L29.9327 30.6583L28.6122 32.1601L31.2404 33.0534L29.6738 35.4097L31.8489 35.8758L30.7095 37.999L32.9752 38.5298L31.81 40.8473L33.8297 41.2098L32.8457 42.7246L35.4869 43.3978L34.3346 45.4045L36.6909 45.6894L35.202 48.0327H37.9079L36.665 50.3631L38.8918 50.4667L38.2316 51.6319L38.4516 51.7613L39.1767 50.4796L42.3874 50.635L42.4004 50.376L39.3061 50.2336ZM26.8773 23.3434L28.3533 21.8545L29.8033 22.709L28.5733 23.8483L26.8773 23.3434ZM27.3046 25.3631L28.6122 24.1461L30.1658 24.6122L28.8193 25.8939L27.3046 25.3631ZM27.8354 27.2145L28.897 26.2046L30.6837 26.839L29.6738 27.9913L27.8354 27.2145ZM28.405 29.8426L29.7515 28.302L31.4216 29.0011L30.114 30.477L28.405 29.8426ZM29.0653 32.0695L30.2046 30.7748L32.2761 31.5387L31.4087 32.8463L29.0653 32.0695ZM30.1011 35.2673L31.4993 33.1699L33.0399 33.6878L31.9783 35.6686L30.1011 35.2673ZM31.0979 37.8566L32.1078 35.9664L34.0757 36.3807L33.0917 38.3227L31.0979 37.8566ZM32.1855 40.6919L33.2341 38.6334L35.2279 39.1124L33.9851 41.0286L32.1855 40.6919ZM33.2471 42.608L34.1016 41.3004L36.4579 41.7277L35.6163 43.2036L33.2471 42.608ZM34.736 45.2362L35.7329 43.5014L37.7914 44.0192L36.8333 45.4952L34.736 45.2362ZM35.6811 47.7738L36.9757 45.78L38.9825 46.026L38.0503 47.7738H35.6811ZM39.0213 50.2077L37.0793 50.1171L38.1927 48.0327H40.2512L39.0213 50.2077Z" fill="#D13B13"/>
</g>
<path d="M25.2462 19.1477L22.152 20.2353L22.1261 20.4165L22.1779 20.5719L25.7382 19.329L29.4151 20.6496L29.4669 20.4942L29.441 20.3129L26.2302 19.1607L29.0655 18.1767L29.0008 17.8272L26.2302 16.7008L28.6253 15.7169L28.5606 15.3544L26.1914 14.2927L28.211 13.3865L28.1463 13.024L26.1914 12.1695L27.8615 11.4445L27.7967 11.082L26.1655 10.2922L27.5378 9.63195L27.4731 9.26944L26.1266 8.63505L27.2271 8.09129L27.24 8.10424L27.253 8.07835L27.1882 7.71584L26.1266 7.15913L27.007 6.69305L26.9034 6.13635L26.1266 5.72205L26.774 5.38544L26.7092 5.04883L25.7641 5.5408L24.819 5.04883L24.7543 5.38544L25.4016 5.72205L24.6248 6.13635L24.5212 6.69305L25.4016 7.15913L24.34 7.71584L24.2623 8.13013L25.3498 8.648L24.0681 9.28239L24.0034 9.64489L25.3757 10.3052L23.7444 11.0949L23.6797 11.4574L25.3498 12.1824L23.3949 13.0369L23.3301 13.3994L25.3498 14.3057L22.9806 15.3673L22.9158 15.7298L25.311 16.7138L22.5404 17.8401L22.4757 18.1897L25.2462 19.1477ZM25.7253 18.9665L23.4596 18.1508H28.0557L25.7253 18.9665ZM25.7771 5.90331L26.3208 6.18813H25.2333L25.7771 5.90331ZM24.9096 6.5118H26.6445L25.7771 6.96493L24.9096 6.5118ZM25.7771 7.32744L26.5668 7.74173H24.9873L25.7771 7.32744ZM24.9485 8.0654H26.528L25.7512 8.44085L24.9485 8.0654ZM25.7512 8.80336L26.7869 9.29533H24.7543L25.7512 8.80336ZM24.7672 9.619H26.7869L25.7771 10.111L24.7672 9.619ZM25.7771 10.4605L27.1106 11.1079H24.4436L25.7771 10.4605ZM24.5083 11.4315H27.0458L25.7771 11.9882L24.5083 11.4315ZM25.7771 12.3378L27.3954 13.0499H24.1587L25.7771 12.3378ZM24.1458 13.3735H27.4083L25.7771 14.1115L24.1458 13.3735ZM25.7771 14.4611L27.8226 15.3803H23.7315L25.7771 14.4611ZM23.8092 15.7039H27.7579L25.79 16.5066L23.8092 15.7039ZM25.7771 16.8562L28.1851 17.8401H23.369L25.7771 16.8562Z" fill="#D13B13"/>
<path d="M30.088 20.3516H21.7374V21.3614H30.088V20.3516Z" fill="#001F4C"/>
<path d="M33.0916 29H18.7208V31.5117H33.0916V29Z" fill="#001F4C"/>
<path d="M46.375 51.6953H5.43762V53.0806H46.375V51.6953Z" fill="#001D43"/>
<path d="M36.1859 37.0793V35.3574H15.6266V37.0793H15.5748V38.8401H36.2506V37.0793H36.1859ZM35.8234 37.0793H35.0854V35.7199H35.8234V37.0793ZM28.1849 35.7199H28.8063V37.0793H28.1849V35.7199ZM27.9389 37.0793H27.3174V35.7199H27.9389V37.0793ZM29.0523 35.7199H29.6737V37.0793H29.0523V35.7199ZM29.9068 35.7199H30.5282V37.0793H29.9068V35.7199ZM30.7742 35.7199H31.3956V37.0793H30.7742V35.7199ZM31.6416 35.7199H32.2631V37.0793H31.6416V35.7199ZM32.4961 35.7199H33.1176V37.0793H32.4961V35.7199ZM33.3635 35.7199H33.985V37.0793H33.3635V35.7199ZM34.218 35.7199H34.8395V37.0793H34.218V35.7199ZM26.217 35.7199V37.0793H25.5955V35.7199H26.217ZM17.8534 35.7199H18.4749V37.0793H17.8534V35.7199ZM17.6075 37.0793H16.986V35.7199H17.6075V37.0793ZM18.7079 35.7199H19.3294V37.0793H18.7079V35.7199ZM19.5753 35.7199H20.1968V37.0793H19.5753V35.7199ZM20.4298 35.7199H21.0513V37.0793H20.4298V35.7199ZM21.2973 35.7199H21.9187V37.0793H21.2973V35.7199ZM22.1647 35.7199H22.7861V37.0793H22.1647V35.7199ZM23.0192 35.7199H23.6406V37.0793H23.0192V35.7199ZM23.8866 35.7199H24.508V37.0793H23.8866V35.7199ZM16.0021 35.7199H16.74V37.0793H16.0021V35.7199ZM24.7411 37.0793V35.7199H25.3625V37.0793H24.7411ZM26.4759 37.0793V35.7199H27.0974V37.0793H26.4759Z" fill="#001F4C"/>
</svg>
