<svg width="28" height="36" viewBox="0 0 28 36" fill="none" xmlns="http://www.w3.org/2000/svg">
<g clip-path="url(#clip0_670_9941)">
<path d="M12.4001 22.8C11.1343 22.8 9.89687 22.4246 8.84439 21.7214C7.7919 21.0182 6.97159 20.0186 6.48718 18.8492C6.00277 17.6797 5.87603 16.3929 6.12298 15.1514C6.36993 13.9099 6.97947 12.7696 7.87454 11.8745C8.76961 10.9795 9.90999 10.3699 11.1515 10.123C12.393 9.87603 13.6798 10.0028 14.8493 10.4872C16.0187 10.9716 17.0183 11.7919 17.7215 12.8444C18.4248 13.8968 18.8002 15.1342 18.8002 16.4C18.7982 18.0968 18.1233 19.7236 16.9235 20.9234C15.7237 22.1232 14.0969 22.7981 12.4001 22.8ZM12.4001 11.6C11.4507 11.6 10.5227 11.8815 9.73331 12.4089C8.94394 12.9364 8.32871 13.686 7.9654 14.5631C7.6021 15.4402 7.50704 16.4053 7.69225 17.3364C7.87746 18.2675 8.33463 19.1228 9.00593 19.7941C9.67723 20.4654 10.5325 20.9226 11.4636 21.1078C12.3948 21.293 13.3599 21.1979 14.237 20.8346C15.1141 20.4713 15.8637 19.8561 16.3912 19.0667C16.9186 18.2774 17.2001 17.3493 17.2001 16.4C17.1989 15.1274 16.6927 13.9072 15.7928 13.0073C14.8929 12.1074 13.6727 11.6013 12.4001 11.6Z" fill="#1A56DB"/>
<path d="M21.2002 26C20.988 26 20.7846 25.9156 20.6346 25.7656L17.4345 22.5656C17.2888 22.4147 17.2082 22.2126 17.21 22.0029C17.2118 21.7931 17.2959 21.5925 17.4443 21.4441C17.5926 21.2958 17.7932 21.2117 18.003 21.2099C18.2128 21.208 18.4148 21.2887 18.5657 21.4344L21.7658 24.6344C21.8776 24.7463 21.9538 24.8888 21.9846 25.044C22.0155 25.1991 21.9996 25.36 21.9391 25.5061C21.8786 25.6523 21.7761 25.7772 21.6445 25.8651C21.513 25.953 21.3584 26 21.2002 26Z" fill="#1A56DB"/>
</g>
<defs>
<clipPath id="clip0_670_9941">
<rect width="16" height="16" fill="white" transform="translate(6 10)"/>
</clipPath>
</defs>
</svg>
