<?xml version="1.0" encoding="UTF-8"?>
<svg version="1.1" xmlns="http://www.w3.org/2000/svg" width="20" height="21">
<path d="M0 0 C3.92509607 0.73595551 5.46508106 1.43112955 8 4.5625 C8.1847838 7.14947315 8.05837217 9.6345782 7.91015625 12.22265625 C7.77261369 14.78591232 7.77261369 14.78591232 10 17 C10.66 17.515625 11.32 18.03125 12 18.5625 C12 19.5525 12 20.5425 12 21.5625 C9.11562221 20.26950306 7.12780579 18.90308637 5 16.5625 C4.34 16.8925 3.68 17.2225 3 17.5625 C-0.65546065 17.96866229 -2.58917682 17.77684253 -5.875 16.0625 C-8.30563428 13.20293025 -8.73645855 11.28139787 -8.484375 7.53515625 C-7.35495035 2.93548328 -4.47943948 0.8398949 0 0 Z M-5 5.5625 C-6.04583942 7.97597559 -6.09385848 9.1974948 -5.4375 11.75 C-4.05207839 13.85267564 -4.05207839 13.85267564 -1.0625 14.4375 C2.17537932 14.87037112 2.17537932 14.87037112 5 12.5625 C6.04583942 10.14902441 6.09385848 8.9275052 5.4375 6.375 C4.05207839 4.27232436 4.05207839 4.27232436 1.0625 3.6875 C-2.17537932 3.25462888 -2.17537932 3.25462888 -5 5.5625 Z " fill="#6B7180" transform="translate(8,-0.5625)"/>
</svg>
