<svg width="40" height="40" viewBox="0 0 40 40" fill="none" xmlns="http://www.w3.org/2000/svg">
<path d="M0.1 20C0.1 9.00953 9.00953 0.1 20 0.1C30.9905 0.1 39.9 9.00953 39.9 20C39.9 30.9905 30.9905 39.9 20 39.9C9.00953 39.9 0.1 30.9905 0.1 20Z" fill="white"/>
<path d="M0.1 20C0.1 9.00953 9.00953 0.1 20 0.1C30.9905 0.1 39.9 9.00953 39.9 20C39.9 30.9905 30.9905 39.9 20 39.9C9.00953 39.9 0.1 30.9905 0.1 20Z" stroke="#ADADAD" stroke-width="0.2"/>
<path d="M29.5306 28.4696L24.8365 23.7765C26.1971 22.1431 26.8755 20.048 26.7307 17.9272C26.5859 15.8063 25.629 13.8229 24.0591 12.3896C22.4892 10.9562 20.4271 10.1833 18.3019 10.2316C16.1766 10.2799 14.1518 11.1457 12.6486 12.6489C11.1455 14.1521 10.2797 16.1769 10.2314 18.3021C10.1831 20.4274 10.956 22.4894 12.3893 24.0593C13.8226 25.6293 15.806 26.5861 17.9269 26.7309C20.0478 26.8757 22.1428 26.1973 23.7762 24.8368L28.4693 29.5308C28.539 29.6005 28.6218 29.6558 28.7128 29.6935C28.8038 29.7312 28.9014 29.7506 29 29.7506C29.0985 29.7506 29.1961 29.7312 29.2871 29.6935C29.3782 29.6558 29.4609 29.6005 29.5306 29.5308C29.6003 29.4612 29.6556 29.3784 29.6933 29.2874C29.731 29.1963 29.7504 29.0988 29.7504 29.0002C29.7504 28.9017 29.731 28.8041 29.6933 28.713C29.6556 28.622 29.6003 28.5393 29.5306 28.4696ZM11.75 18.5002C11.75 17.1652 12.1459 15.8601 12.8875 14.7501C13.6292 13.6401 14.6835 12.7749 15.9169 12.264C17.1503 11.7531 18.5075 11.6195 19.8168 11.8799C21.1262 12.1404 22.3289 12.7832 23.2729 13.7272C24.2169 14.6712 24.8598 15.874 25.1203 17.1834C25.3807 18.4927 25.247 19.8499 24.7362 21.0833C24.2253 22.3167 23.3601 23.3709 22.2501 24.1126C21.14 24.8543 19.835 25.2502 18.5 25.2502C16.7104 25.2482 14.9946 24.5364 13.7292 23.271C12.4638 22.0056 11.752 20.2898 11.75 18.5002Z" fill="#343330"/>
</svg>
