<svg width="20" height="20" viewBox="0 0 20 20" fill="none" xmlns="http://www.w3.org/2000/svg">
<path d="M13.7502 12.4996C13.3333 12.4994 12.9205 12.583 12.5365 12.7452C12.1524 12.9074 11.8048 13.1451 11.5143 13.4441L7.91269 11.1293C8.19599 10.4028 8.19599 9.59637 7.91269 8.86988L11.5143 6.55504C12.0552 7.1092 12.7827 7.44274 13.5556 7.491C14.3286 7.53926 15.0919 7.29881 15.6976 6.81625C16.3033 6.33369 16.7083 5.64342 16.834 4.87925C16.9596 4.11508 16.7971 3.33147 16.3779 2.68033C15.9586 2.02919 15.3125 1.55692 14.5649 1.35508C13.8172 1.15324 13.0212 1.23621 12.3312 1.5879C11.6413 1.93959 11.1065 2.53495 10.8305 3.25855C10.5546 3.98215 10.5571 4.78244 10.8377 5.50426L7.23613 7.8191C6.80243 7.37385 6.2458 7.06804 5.63741 6.94078C5.02901 6.81351 4.39648 6.87057 3.82068 7.10465C3.24487 7.33873 2.75196 7.73921 2.40494 8.25488C2.05792 8.77056 1.87256 9.37801 1.87256 9.99957C1.87256 10.6211 2.05792 11.2286 2.40494 11.7443C2.75196 12.2599 3.24487 12.6604 3.82068 12.8945C4.39648 13.1286 5.02901 13.1856 5.63741 13.0584C6.2458 12.9311 6.80243 12.6253 7.23613 12.18L10.8377 14.4949C10.5964 15.1172 10.5607 15.8004 10.7358 16.4444C10.9109 17.0885 11.2876 17.6595 11.8107 18.074C12.3339 18.4885 12.976 18.7245 13.643 18.7477C14.31 18.7708 14.9669 18.5798 15.5175 18.2026C16.0681 17.8254 16.4835 17.2818 16.7028 16.6514C16.9221 16.0211 16.9339 15.3371 16.7363 14.6995C16.5387 14.062 16.1423 13.5045 15.6049 13.1086C15.0676 12.7128 14.4176 12.4993 13.7502 12.4996ZM13.7502 2.49957C14.121 2.49957 14.4835 2.60954 14.7919 2.81557C15.1002 3.02159 15.3405 3.31443 15.4825 3.65704C15.6244 3.99965 15.6615 4.37665 15.5892 4.74037C15.5168 5.10408 15.3382 5.43817 15.076 5.7004C14.8138 5.96262 14.4797 6.1412 14.116 6.21354C13.7523 6.28589 13.3753 6.24876 13.0327 6.10685C12.69 5.96493 12.3972 5.72461 12.1912 5.41627C11.9852 5.10792 11.8752 4.74541 11.8752 4.37457C11.8752 3.87729 12.0727 3.40038 12.4244 3.04875C12.776 2.69712 13.2529 2.49957 13.7502 2.49957ZM5.00019 11.8746C4.62935 11.8746 4.26684 11.7646 3.95849 11.5586C3.65015 11.3525 3.40983 11.0597 3.26791 10.7171C3.126 10.3745 3.08887 9.99749 3.16122 9.63378C3.23356 9.27006 3.41214 8.93597 3.67436 8.67375C3.93659 8.41152 4.27068 8.23295 4.63439 8.1606C4.99811 8.08825 5.37511 8.12538 5.71772 8.2673C6.06033 8.40921 6.35317 8.64954 6.55919 8.95788C6.76522 9.26622 6.87519 9.62873 6.87519 9.99957C6.87519 10.4969 6.67764 10.9738 6.32601 11.3254C5.97438 11.677 5.49747 11.8746 5.00019 11.8746ZM13.7502 17.4996C13.3793 17.4996 13.0168 17.3896 12.7085 17.1836C12.4002 16.9775 12.1598 16.6847 12.0179 16.3421C11.876 15.9995 11.8389 15.6225 11.9112 15.2588C11.9836 14.8951 12.1621 14.561 12.4244 14.2987C12.6866 14.0365 13.0207 13.8579 13.3844 13.7856C13.7481 13.7133 14.1251 13.7504 14.4677 13.8923C14.8103 14.0342 15.1032 14.2745 15.3092 14.5829C15.5152 14.8912 15.6252 15.2537 15.6252 15.6246C15.6252 16.1219 15.4276 16.5988 15.076 16.9504C14.7244 17.302 14.2475 17.4996 13.7502 17.4996Z" fill="#262626"/>
</svg>
