<?xml version="1.0" encoding="UTF-8"?>
<svg version="1.1" xmlns="http://www.w3.org/2000/svg" width="220" height="40">
<path d="M0 0 C72.6 0 145.2 0 220 0 C220 13.2 220 26.4 220 40 C147.4 40 74.8 40 0 40 C0 26.8 0 13.6 0 0 Z " fill="#F9FBFC" transform="translate(0,0)"/>
<path d="M0 0 C0.495 0.99 0.495 0.99 1 2 C-0.69134352 6.47708579 -2.70441481 8.60739499 -6.46484375 11.453125 C-8.42768396 13.43094872 -9.30035698 15.46300765 -10.4375 18 C-13.24548012 23.98028678 -16.3776599 26.60548409 -22.49609375 28.9609375 C-26.79628659 30.35386772 -30.45871922 31.15353084 -35 31 C-32.80120236 28.80120236 -31.09435687 28.13988722 -28.25 26.9375 C-23.25665902 24.51626848 -21.08354908 21.83838221 -18.28125 17.14453125 C-15.44804035 12.40236021 -12.33168143 10.02851901 -7.3125 8 C-3.66752719 6.56844996 -3.66752719 6.56844996 -1.5 3.3125 C-1.335 2.549375 -1.17 1.78625 -1 1 C-0.67 0.67 -0.34 0.34 0 0 Z " fill="#D71D46" transform="translate(45,3)"/>
<path d="M0 0 C0.99 0 1.98 0 3 0 C3.18451025 10.55808656 3.18451025 10.55808656 2 15 C3.32 15 4.64 15 6 15 C6.020625 14.401875 6.04125 13.80375 6.0625 13.1875 C7 11 7 11 10.5625 9.25 C12.2640625 8.63125 12.2640625 8.63125 14 8 C14 7.67 14 7.34 14 7 C12.35 6.67 10.7 6.34 9 6 C9 5.67 9 5.34 9 5 C11.33294775 4.95758277 13.66702567 4.95907063 16 5 C16.33 5.33 16.66 5.66 17 6 C16.91015699 7.85772162 16.75388139 9.71247985 16.5625 11.5625 C16.46066406 12.57441406 16.35882813 13.58632813 16.25390625 14.62890625 C16.17011719 15.41136719 16.08632812 16.19382812 16 17 C15.34 17 14.68 17 14 17 C13.67 15.02 13.34 13.04 13 11 C11.35 11.33 9.7 11.66 8 12 C8.7763932 15.0745356 8.7763932 15.0745356 11 17 C7.37 17 3.74 17 0 17 C0 11.39 0 5.78 0 0 Z " fill="#4777B1" transform="translate(67,13)"/>
<path d="M0 0 C0.99 0 1.98 0 3 0 C5.08135307 5.29798964 6.71291613 10.45563871 8 16 C7.01 15.67 6.02 15.34 5 15 C4.05078125 12.71484375 4.05078125 12.71484375 3.3125 9.9375 C3.06113281 9.01839844 2.80976563 8.09929688 2.55078125 7.15234375 C2.36902344 6.44207031 2.18726563 5.73179688 2 5 C1.01 6.485 1.01 6.485 0 8 C0.66 8.33 1.32 8.66 2 9 C0.68 9.33 -0.64 9.66 -2 10 C-2.33 11.98 -2.66 13.96 -3 16 C-3.99 16 -4.98 16 -6 16 C-4.25192871 10.53262809 -2.34205919 5.24175152 0 0 Z " fill="#38A1CC" transform="translate(149,14)"/>
<path d="M0 0 C0.33 0.66 0.66 1.32 1 2 C-1.64 1.67 -4.28 1.34 -7 1 C-7 2.32 -7 3.64 -7 5 C-6.236875 5.268125 -5.47375 5.53625 -4.6875 5.8125 C-0.58241758 7.62637363 -0.58241758 7.62637363 1 10 C0.8125 12.625 0.8125 12.625 0 15 C-2.95664519 16.4783226 -5.74229737 16.06032783 -9 16 C-9 15.01 -9 14.02 -9 13 C-6.69 13.33 -4.38 13.66 -2 14 C-3.35021826 9.58110387 -5.26115668 7.65654657 -9 5 C-8.625 2.5625 -8.625 2.5625 -8 0 C-5.09660535 -1.45169732 -3.09125158 -0.72348441 0 0 Z " fill="#349FCB" transform="translate(51,14)"/>
<path d="M0 0 C1.64574566 -0.02688151 3.29161413 -0.04634123 4.9375 -0.0625 C5.85402344 -0.07410156 6.77054688 -0.08570312 7.71484375 -0.09765625 C10 0 10 0 11 1 C11.07226502 2.85287502 11.0838122 4.70833878 11.0625 6.5625 C11.05347656 7.57441406 11.04445312 8.58632813 11.03515625 9.62890625 C11.02355469 10.41136719 11.01195312 11.19382812 11 12 C10.34 12 9.68 12 9 12 C8.67 8.7 8.34 5.4 8 2 C6.35 2.33 4.7 2.66 3 3 C2.67 5.97 2.34 8.94 2 12 C1.01 12 0.02 12 -1 12 C-1.08159574 7.83861737 -0.98248524 4.0527516 0 0 Z " fill="#2397C7" transform="translate(182,18)"/>
<path d="M0 0 C7.71484375 -0.09765625 7.71484375 -0.09765625 10 0 C11 1 11 1 11.09765625 3.50390625 C11.08605469 4.51324219 11.07445312 5.52257812 11.0625 6.5625 C11.05347656 7.57441406 11.04445312 8.58632813 11.03515625 9.62890625 C11.02355469 10.41136719 11.01195312 11.19382812 11 12 C10.34 12 9.68 12 9 12 C8.67 8.7 8.34 5.4 8 2 C6.35 2.33 4.7 2.66 3 3 C2.67 5.97 2.34 8.94 2 12 C1.01 12 0.02 12 -1 12 C-0.67 8.04 -0.34 4.08 0 0 Z " fill="#205AA0" transform="translate(123,18)"/>
<path d="M0 0 C2.31 0 4.62 0 7 0 C7 3.96 7 7.92 7 12 C6.34 12 5.68 12 5 12 C4.67 10.02 4.34 8.04 4 6 C2.35 6.33 0.7 6.66 -1 7 C-1 8.32 -1 9.64 -1 11 C-0.01 11.33 0.98 11.66 2 12 C0.35 11.67 -1.3 11.34 -3 11 C-2.75 8.625 -2.75 8.625 -2 6 C0.56310828 4.2058242 1.83119306 4 5 4 C5 3.01 5 2.02 5 1 C3.35 1 1.7 1 0 1 C0 0.67 0 0.34 0 0 Z " fill="#2E65A6" transform="translate(113,18)"/>
<path d="M0 0 C0.94875 0.04125 1.8975 0.0825 2.875 0.125 C3.205 1.445 3.535 2.765 3.875 4.125 C2.885 4.125 1.895 4.125 0.875 4.125 C1.205 3.135 1.535 2.145 1.875 1.125 C0.555 1.455 -0.765 1.785 -2.125 2.125 C-2.455 3.445 -2.785 4.765 -3.125 6.125 C-2.465 6.455 -1.805 6.785 -1.125 7.125 C-1.455 8.115 -1.785 9.105 -2.125 10.125 C-1.135 10.785 -0.145 11.445 0.875 12.125 C-3.875 11.375 -3.875 11.375 -6.125 9.125 C-5.48889685 0.21955587 -5.48889685 0.21955587 0 0 Z " fill="#319DCA" transform="translate(201.125,17.875)"/>
<path d="M0 0 C0.66 0.33 1.32 0.66 2 1 C-5.1473397 12.27080491 -5.1473397 12.27080491 -11 14 C-11.99 13.67 -12.98 13.34 -14 13 C-13.113125 12.484375 -12.22625 11.96875 -11.3125 11.4375 C-8.08544683 9.31403812 -6.23048641 6.81980336 -4.17578125 3.5859375 C-3 2 -3 2 0 0 Z " fill="#199D59" transform="translate(27,15)"/>
<path d="M0 0 C0 0.33 0 0.66 0 1 C-1.65 1 -3.3 1 -5 1 C-3.7934375 2.11375 -3.7934375 2.11375 -2.5625 3.25 C0.89519651 6.96069869 0.89519651 6.96069869 1 10 C-1 12 -1 12 -3.625 12.125 C-4.40875 12.08375 -5.1925 12.0425 -6 12 C-6.33 11.34 -6.66 10.68 -7 10 C-5.35 10 -3.7 10 -2 10 C-3.13304992 6.60085025 -4.12518475 5.94745549 -7 4 C-6.625 2.0625 -6.625 2.0625 -6 0 C-3.50907189 -1.24546405 -2.58919267 -0.7767578 0 0 Z " fill="#2397C7" transform="translate(214,18)"/>
<path d="M0 0 C2.33294775 -0.04241723 4.66702567 -0.04092937 7 0 C7.33 0.33 7.66 0.66 8 1 C7.91015699 2.85772162 7.75388139 4.71247985 7.5625 6.5625 C7.46066406 7.57441406 7.35882813 8.58632813 7.25390625 9.62890625 C7.17011719 10.41136719 7.08632812 11.19382812 7 12 C6.34 12 5.68 12 5 12 C4.67 10.02 4.34 8.04 4 6 C2.68 6.33 1.36 6.66 0 7 C-0.33 6.34 -0.66 5.68 -1 5 C0.98 4.34 2.96 3.68 5 3 C5 2.67 5 2.34 5 2 C3.35 1.67 1.7 1.34 0 1 C0 0.67 0 0.34 0 0 Z " fill="#3F71AE" transform="translate(76,18)"/>
<path d="M0 0 C0.33 0.66 0.66 1.32 1 2 C-2.65067358 8.34719383 -6.19361573 12.94939084 -13 16 C-13.66 16 -14.32 16 -15 16 C-15 15.34 -15 14.68 -15 14 C-15.66 13.67 -16.32 13.34 -17 13 C-16.40832031 12.84144531 -15.81664062 12.68289062 -15.20703125 12.51953125 C-8.58262427 10.56354811 -5.00078658 8.10466884 -1.1875 2.1875 C-0.795625 1.465625 -0.40375 0.74375 0 0 Z " fill="#E0DAD7" transform="translate(28,16)"/>
<path d="M0 0 C0.33 0 0.66 0 1 0 C1.35557571 4.53359033 1.58090908 7.92755247 -0.625 12 C-3.44499433 14.37473207 -5.36423871 14.75210718 -9 15 C-8.236875 14.319375 -7.47375 13.63875 -6.6875 12.9375 C-3.04151 8.95234814 -1.70484129 5.11452386 0 0 Z " fill="#F2743D" transform="translate(37,16)"/>
<path d="M0 0 C0.66 0 1.32 0 2 0 C2 5.28 2 10.56 2 16 C1.01 16 0.02 16 -1 16 C-0.67 10.72 -0.34 5.44 0 0 Z " fill="#349FCB" transform="translate(172,14)"/>
<path d="M0 0 C0.99 0 1.98 0 3 0 C5.08135307 5.29798964 6.71291613 10.45563871 8 16 C7.01 15.67 6.02 15.34 5 15 C4.05078125 12.8203125 4.05078125 12.8203125 3.3125 10.125 C3.06113281 9.24070312 2.80976563 8.35640625 2.55078125 7.4453125 C2 5 2 5 2 2 C1.34 2 0.68 2 0 2 C0 1.34 0 0.68 0 0 Z " fill="#2598C7" transform="translate(149,14)"/>
<path d="M0 0 C0.99 0.33 1.98 0.66 3 1 C2.67 4.63 2.34 8.26 2 12 C1.01 12 0.02 12 -1 12 C-1.08159574 7.83861737 -0.98248524 4.0527516 0 0 Z " fill="#3AA1CD" transform="translate(164,18)"/>
<path d="M0 0 C0.66 0 1.32 0 2 0 C3.03159626 3.09478879 2.97482862 4.52631393 2.5625 7.6875 C2.46066406 8.49574219 2.35882813 9.30398437 2.25390625 10.13671875 C2.17011719 10.75160156 2.08632812 11.36648437 2 12 C1.01 12 0.02 12 -1 12 C-1.08159574 7.83861737 -0.98248524 4.0527516 0 0 Z " fill="#3BA2CD" transform="translate(182,18)"/>
<path d="M0 0 C0.66 0.33 1.32 0.66 2 1 C2 4.63 2 8.26 2 12 C1.01 12 0.02 12 -1 12 C-1.14285714 3.42857143 -1.14285714 3.42857143 0 0 Z " fill="#44A6CF" transform="translate(177,18)"/>
<path d="M0 0 C0.66 0.33 1.32 0.66 2 1 C2 4.63 2 8.26 2 12 C1.01 12 0.02 12 -1 12 C-1.14285714 3.42857143 -1.14285714 3.42857143 0 0 Z " fill="#45A7CF" transform="translate(159,18)"/>
<path d="M0 0 C0.99 0.33 1.98 0.66 3 1 C2.67 4.63 2.34 8.26 2 12 C1.01 12 0.02 12 -1 12 C-0.67 8.04 -0.34 4.08 0 0 Z " fill="#369FCC" transform="translate(55,18)"/>
<path d="M0 0 C1.99954746 -0.04254356 4.00041636 -0.04080783 6 0 C7 1 7 1 7.09765625 3.50390625 C7.08605469 4.51324219 7.07445313 5.52257812 7.0625 6.5625 C7.05347656 7.57441406 7.04445313 8.58632813 7.03515625 9.62890625 C7.02355469 10.41136719 7.01195313 11.19382812 7 12 C6.34 12 5.68 12 5 12 C4.67 8.7 4.34 5.4 4 2 C2.35 2 0.7 2 -1 2 C-0.67 1.34 -0.34 0.68 0 0 Z " fill="#265FA3" transform="translate(90,18)"/>
<path d="M0 0 C0.042721 1.66611905 0.04063832 3.33382885 0 5 C-1 6 -1 6 -3.5625 6.0625 C-4.7690625 6.0315625 -4.7690625 6.0315625 -6 6 C-6 4.68 -6 3.36 -6 2 C-1.125 0 -1.125 0 0 0 Z " fill="#ECF1F7" transform="translate(118,23)"/>
<path d="M0 0 C0 1.65 0 3.3 0 5 C-1.65 5.33 -3.3 5.66 -5 6 C-5.33 4.68 -5.66 3.36 -6 2 C-1.125 0 -1.125 0 0 0 Z " fill="#EDF1F7" transform="translate(81,23)"/>
<path d="M0 0 C0.66 0 1.32 0 2 0 C3.03159626 3.09478879 2.97482862 4.52631393 2.5625 7.6875 C2.46066406 8.49574219 2.35882813 9.30398437 2.25390625 10.13671875 C2.17011719 10.75160156 2.08632812 11.36648437 2 12 C1.34 12 0.68 12 0 12 C0 8.04 0 4.08 0 0 Z " fill="#1D589F" transform="translate(86,18)"/>
<path d="M0 0 C0.33 0.66 0.66 1.32 1 2 C-0.78150459 6.65170644 -2.51851506 8.81981814 -7 11 C-7 10.01 -7 9.02 -7 8 C-6.071875 7.6596875 -6.071875 7.6596875 -5.125 7.3125 C-2.37585439 5.6144983 -2.00115914 4.00347742 -1 1 C-0.67 0.67 -0.34 0.34 0 0 Z " fill="#DE4567" transform="translate(45,3)"/>
<path d="M0 0 C1.32 0 2.64 0 4 0 C3.67 1.65 3.34 3.3 3 5 C1.68 5 0.36 5 -1 5 C-0.67 3.35 -0.34 1.7 0 0 Z " fill="#D8ECF5" transform="translate(199,19)"/>
<path d="M0 0 C0.66 0.33 1.32 0.66 2 1 C2 3.31 2 5.62 2 8 C1.01 8 0.02 8 -1 8 C-1.125 2.25 -1.125 2.25 0 0 Z " fill="#4D7CB3" transform="translate(123,22)"/>
<path d="M0 0 C0.598125 0.20625 1.19625 0.4125 1.8125 0.625 C1.8125 0.955 1.8125 1.285 1.8125 1.625 C0.1625 1.625 -1.4875 1.625 -3.1875 1.625 C-2.5275 2.945 -1.8675 4.265 -1.1875 5.625 C-2.1775 5.625 -3.1675 5.625 -4.1875 5.625 C-4.5175 4.305 -4.8475 2.985 -5.1875 1.625 C-2.1875 -0.375 -2.1875 -0.375 0 0 Z " fill="#49A9D1" transform="translate(212.1875,17.375)"/>
<path d="M0 0 C2.5654594 2.5654594 2.54046087 4.47686668 3 8 C1.68 7.34 0.36 6.68 -1 6 C-0.67 4.02 -0.34 2.04 0 0 Z " fill="#DCEFF6" transform="translate(150,17)"/>
</svg>
