<?xml version="1.0" encoding="UTF-8"?>
<svg version="1.1" xmlns="http://www.w3.org/2000/svg" width="40" height="40">
<path d="M0 0 C13.2 0 26.4 0 40 0 C40 13.2 40 26.4 40 40 C26.8 40 13.6 40 0 40 C0 26.8 0 13.6 0 0 Z " fill="#4D4A98" transform="translate(0,0)"/>
<path d="M0 0 C13.2 0 26.4 0 40 0 C40 13.2 40 26.4 40 40 C26.8 40 13.6 40 0 40 C0 26.8 0 13.6 0 0 Z M16 5 C15.95936168 6.66617115 15.957279 8.33388095 16 10 C14.95199219 10.16435547 14.95199219 10.16435547 13.8828125 10.33203125 C12.51769531 10.56986328 12.51769531 10.56986328 11.125 10.8125 C9.76761719 11.03873047 9.76761719 11.03873047 8.3828125 11.26953125 C5.65587522 11.83051301 5.65587522 11.83051301 4 15 C3.17976609 20.59250394 3.77573294 25.27107498 7 30 C11.19632692 34.23072304 14.84382066 36.13829891 20.8125 36.3125 C25.6661481 36.25598008 28.28169946 35.27564572 32 32 C36.3960284 27.0099137 37.37323153 24.08712871 37.26953125 17.53515625 C36.78092638 12.93943796 34.70675044 10.4235507 31.234375 7.52734375 C27.5124686 4.89709887 20.08501311 0.91498689 16 5 Z " fill="#FAFAFC" transform="translate(0,0)"/>
<path d="M0 0 C2.05078125 0.03255208 4.1015625 0.06510417 6.15234375 0.09765625 C4.83234375 0.42765625 3.51234375 0.75765625 2.15234375 1.09765625 C2.11109375 1.94328125 2.06984375 2.78890625 2.02734375 3.66015625 C0.86325152 8.23337574 -1.62164748 10.7631273 -4.84765625 14.09765625 C-2.57688783 14.1246535 -0.30602804 14.14405078 1.96484375 14.16015625 C3.86169922 14.17755859 3.86169922 14.17755859 5.796875 14.1953125 C9.14839612 14.25924741 9.14839612 14.25924741 12.15234375 13.09765625 C14.33984375 13.53515625 14.33984375 13.53515625 16.15234375 14.09765625 C15.82234375 15.41765625 15.49234375 16.73765625 15.15234375 18.09765625 C6.13409488 19.16761798 -2.78429749 19.20000284 -11.84765625 19.09765625 C-12.50765625 20.41765625 -13.16765625 21.73765625 -13.84765625 23.09765625 C-14.77632699 20.31164402 -15.01107842 18.48699536 -15.03515625 15.59765625 C-15.04933594 14.82421875 -15.06351563 14.05078125 -15.078125 13.25390625 C-14.84765625 11.09765625 -14.84765625 11.09765625 -12.84765625 8.09765625 C-9.41015625 7.47265625 -9.41015625 7.47265625 -5.84765625 7.09765625 C-4.85765625 6.76765625 -3.86765625 6.43765625 -2.84765625 6.09765625 C-2.86828125 5.29328125 -2.88890625 4.48890625 -2.91015625 3.66015625 C-2.82452531 0.14928781 -2.82452531 0.14928781 0 0 Z " fill="#A39ECD" transform="translate(18.84765625,3.90234375)"/>
<path d="M0 0 C3.75626559 -0.35773958 5.73929307 -0.13556761 9.125 1.625 C12.36346145 4.30025076 14.17132744 6.20198775 16 10 C16.31215015 13.36316618 16.23947378 16.63406292 16 20 C14 17 14 17 14 13 C12.7625 13.185625 11.525 13.37125 10.25 13.5625 C7.23720423 13.94711223 4.89989173 14.0874594 2 13 C1.67 13.66 1.34 14.32 1 15 C1 14.34 1 13.68 1 13 C-1.64 13.33 -4.28 13.66 -7 14 C-7 13.01 -7 12.02 -7 11 C-6.21625 10.236875 -5.4325 9.47375 -4.625 8.6875 C-1.82891158 5.82483805 -0.97842689 3.82475967 0 0 Z " fill="#635FA6" transform="translate(21,5)"/>
<path d="M0 0 C-0.33 1.32 -0.66 2.64 -1 4 C-2.72814161 4.19672365 -4.45759197 4.38196799 -6.1875 4.5625 C-7.15042969 4.66691406 -8.11335938 4.77132813 -9.10546875 4.87890625 C-11.94233377 4.99758751 -14.25423671 4.67765639 -17 4 C-17 2.68 -17 1.36 -17 0 C-15.95199219 0.01740234 -15.95199219 0.01740234 -14.8828125 0.03515625 C-13.97273438 0.04417969 -13.06265625 0.05320312 -12.125 0.0625 C-10.76761719 0.07990234 -10.76761719 0.07990234 -9.3828125 0.09765625 C-1.0326087 -0.24456522 -1.0326087 -0.24456522 0 0 Z " fill="#817DB7" transform="translate(35,18)"/>
<path d="M0 0 C0.80824219 0.10183594 1.61648438 0.20367188 2.44921875 0.30859375 C3.06410156 0.39238281 3.67898437 0.47617187 4.3125 0.5625 C4.3125 2.2125 4.3125 3.8625 4.3125 5.5625 C-4.25892857 5.70535714 -4.25892857 5.70535714 -7.6875 4.5625 C-7.6875 3.2425 -7.6875 1.9225 -7.6875 0.5625 C-4.59271121 -0.46909626 -3.16118607 -0.41232862 0 0 Z " fill="#BBB7D9" transform="translate(13.6875,17.4375)"/>
<path d="M0 0 C0.99 0 1.98 0 3 0 C3.75 1.6875 3.75 1.6875 4 4 C2.3125 6.5 2.3125 6.5 0 9 C-0.680625 9.7425 -1.36125 10.485 -2.0625 11.25 C-4 13 -4 13 -7 14 C-7 13.01 -7 12.02 -7 11 C-6.21625 10.236875 -5.4325 9.47375 -4.625 8.6875 C-1.82891158 5.82483805 -0.97842689 3.82475967 0 0 Z " fill="#7F79B7" transform="translate(21,5)"/>
<path d="M0 0 C0.66 0.33 1.32 0.66 2 1 C1.6875 3.375 1.6875 3.375 1 6 C-2.6441774 8.4294516 -4.71241272 8.16179575 -9 8 C-6.81981814 3.51851506 -4.65170644 1.78150459 0 0 Z " fill="#C3BFE0" transform="translate(15,4)"/>
<path d="M0 0 C2.31 0 4.62 0 7 0 C5.68 0.33 4.36 0.66 3 1 C2.979375 1.845625 2.95875 2.69125 2.9375 3.5625 C1.62433921 8.3774229 -1.33404034 10.76476667 -5 14 C-5.66 13.67 -6.32 13.34 -7 13 C-5 11 -3 9 -1 7 C-0.63239269 4.67182036 -0.29758419 2.3381615 0 0 Z " fill="#8D87C0" transform="translate(18,4)"/>
<path d="M0 0 C2.31 0.33 4.62 0.66 7 1 C6.34 1.66 5.68 2.32 5 3 C4.01 3 3.02 3 2 3 C2 4.32 2 5.64 2 7 C2.99 7.33 3.98 7.66 5 8 C4.34 8 3.68 8 3 8 C2.34 9.32 1.68 10.64 1 12 C0.03929566 9.11788698 -0.10581883 7.30149956 -0.0625 4.3125 C-0.05347656 3.50425781 -0.04445312 2.69601563 -0.03515625 1.86328125 C-0.02355469 1.24839844 -0.01195312 0.63351562 0 0 Z " fill="#7F7AB6" transform="translate(4,15)"/>
<path d="M0 0 C0 1.65 0 3.3 0 5 C-2.64 5 -5.28 5 -8 5 C-7 2 -7 2 -5.125 0.8125 C-3 0 -3 0 0 0 Z " fill="#A7A3CD" transform="translate(18,18)"/>
<path d="M0 0 C2.31 0.33 4.62 0.66 7 1 C6.67 1.99 6.34 2.98 6 4 C4.35 4.33 2.7 4.66 1 5 C0.67 3.35 0.34 1.7 0 0 Z " fill="#8C88BE" transform="translate(18,18)"/>
<path d="M0 0 C0.625 1.875 0.625 1.875 1 4 C0.34 4.66 -0.32 5.32 -1 6 C-3.125 5.625 -3.125 5.625 -5 5 C-4 2 -4 2 -1.9375 0.8125 C-1.298125 0.544375 -0.65875 0.27625 0 0 Z " fill="#DAD8ED" transform="translate(13,5)"/>
<path d="M0 0 C0.66 0 1.32 0 2 0 C2.33 1.32 2.66 2.64 3 4 C1.68 4.99 0.36 5.98 -1 7 C-0.67 4.69 -0.34 2.38 0 0 Z M-2 7 C-1.67 7.66 -1.34 8.32 -1 9 C-1.33 9.66 -1.66 10.32 -2 11 C-2.66 11 -3.32 11 -4 11 C-3.34 9.68 -2.68 8.36 -2 7 Z " fill="#756FB1" transform="translate(22,5)"/>
</svg>
