<svg width="50" height="53" viewBox="0 0 50 53" fill="none" xmlns="http://www.w3.org/2000/svg">
<path d="M24.6615 0.859375C36.9057 0.859375 46.8473 10.8532 46.8473 23.1616V51.8933H2.47571V23.1616C2.47571 10.8532 12.4173 0.859375 24.6615 0.859375Z" fill="#FFE6DA"/>
<path d="M49.1911 51.3867H0.133179V52.4422H49.1911V51.3867Z" fill="#001D43"/>
<path d="M0 26.2419H13.7565C13.7565 26.2419 13.8018 24.4778 10.0709 24.9239C6.33994 25.3699 3.91882 22.5584 0 26.2419Z" fill="white"/>
<path d="M36.2434 18.0056H49.9999C49.9999 18.0056 50.0452 16.2415 46.3143 16.6875C42.5833 17.1336 40.1622 14.322 36.2434 18.0056Z" fill="white"/>
<path d="M10.2401 22.8008H5.38586V44.8097H10.2401V22.8008Z" fill="#F3BCB0"/>
<path d="M11.1928 21.3672H4.52905V22.42H11.1928V21.3672Z" fill="#F3BCB0"/>
<path d="M12.0484 20.9834H4.52917L6.0522 18.6875H12.0484V20.9834Z" fill="#F3BCB0"/>
<path d="M10.4306 45H5.19531V46.2444H10.4306V45Z" fill="#F3BCB0"/>
<path d="M10.4306 46.4375H4.7196V51.3172H10.4306V46.4375Z" fill="#F3BCB0"/>
<path d="M39.0828 44.8125H43.9371V22.8036H39.0828V44.8125Z" fill="#F3BCB0"/>
<path d="M38.1301 22.416H44.7938V21.3632H38.1301V22.416Z" fill="#F3BCB0"/>
<path d="M37.2747 20.9834H44.7939L43.2709 18.6875H37.2747V20.9834Z" fill="#F3BCB0"/>
<path d="M38.8924 46.2441H44.1277V44.9998H38.8924V46.2441Z" fill="#F3BCB0"/>
<path d="M38.8924 51.3164H44.6035V46.4367H38.8924V51.3164Z" fill="#F3BCB0"/>
<path d="M10.573 11.1738L10.4305 21.3645L7.81213 48.8747H14.3333V16.675H34.9894V49.3542H41.5106L38.7497 20.7042V11.1738H10.573Z" fill="#D13B13"/>
<path d="M39.5091 10.8378L24.5667 5.47852L9.62292 10.8378V11.5075H39.5131V10.8378H39.5091Z" fill="#F55B02"/>
<path d="M34.7508 10.4555L24.5667 6.80273L14.3812 10.4555H34.7508Z" fill="#D13B13"/>
<path d="M25.5701 5.02684L24.5747 4.67188L23.5807 5.02684L8.9447 10.2441L9.69222 10.6888L24.5747 5.3818L39.6797 10.7678L40.4725 10.3405L25.5701 5.02684Z" fill="#001F4C"/>
<path d="M39.1294 11.7949H10.1919V13.5175H39.1294V11.7949Z" fill="#F55B02"/>
<path d="M39.1294 13.8047H10.1919V15.5273H39.1294V13.8047Z" fill="#F55B02"/>
<path d="M39.1294 15.8145H10.1919V17.537H39.1294V15.8145Z" fill="#F55B02"/>
<path d="M14.3333 45.0938H7.57495V46.0501H14.3333V45.0938Z" fill="#001F4C"/>
<path d="M14.3332 18.873H9.76416V19.8294H14.3332V18.873Z" fill="#E04D1C"/>
<path d="M14.3332 17.7285H9.76416V18.6849H14.3332V17.7285Z" fill="#E04D1C"/>
<path d="M14.3333 46.3379H6.81274V51.314H14.3333V46.3379Z" fill="#001F4C"/>
<path d="M10.12 20.1191L7.57898 44.807H14.3333V20.1191H10.12Z" fill="#F55B02"/>
<path d="M34.9893 46.0508H41.7476V45.0944H34.9893V46.0508Z" fill="#001F4C"/>
<path d="M34.9893 19.832H39.5583V18.8756H34.9893V19.832Z" fill="#E04D1C"/>
<path d="M34.9893 18.6855H39.5583V17.7292H34.9893V18.6855Z" fill="#E04D1C"/>
<path d="M34.9892 51.3145H42.5098V46.3383H34.9892V51.3145Z" fill="#001F4C"/>
<path d="M39.2027 20.1191L41.7437 44.807H34.9894V20.1191H39.2027Z" fill="#F55B02"/>
</svg>
