<svg width="40" height="40" viewBox="0 0 40 40" fill="none" xmlns="http://www.w3.org/2000/svg">
<path d="M0.1 20C0.1 9.00953 9.00953 0.1 20 0.1C30.9905 0.1 39.9 9.00953 39.9 20C39.9 30.9905 30.9905 39.9 20 39.9C9.00953 39.9 0.1 30.9905 0.1 20Z" fill="white"/>
<path d="M0.1 20C0.1 9.00953 9.00953 0.1 20 0.1C30.9905 0.1 39.9 9.00953 39.9 20C39.9 30.9905 30.9905 39.9 20 39.9C9.00953 39.9 0.1 30.9905 0.1 20Z" stroke="#ADADAD" stroke-width="0.2"/>
<path d="M29.6486 27.8751C28.2208 25.4067 26.0205 23.6367 23.4527 22.7976C24.7229 22.0415 25.7097 20.8893 26.2617 19.518C26.8136 18.1468 26.9002 16.6322 26.5081 15.207C26.116 13.7818 25.2668 12.5247 24.0911 11.6287C22.9154 10.7328 21.4781 10.2476 19.9999 10.2476C18.5217 10.2476 17.0844 10.7328 15.9087 11.6287C14.7329 12.5247 13.8838 13.7818 13.4917 15.207C13.0996 16.6322 13.1862 18.1468 13.7381 19.518C14.2901 20.8893 15.2769 22.0415 16.5471 22.7976C13.9793 23.6357 11.779 25.4057 10.3511 27.8751C10.2988 27.9605 10.264 28.0555 10.249 28.1545C10.2339 28.2535 10.2389 28.3545 10.2635 28.4516C10.2881 28.5487 10.332 28.6399 10.3924 28.7197C10.4528 28.7996 10.5286 28.8666 10.6153 28.9167C10.7021 28.9667 10.798 28.999 10.8973 29.0114C10.9967 29.0238 11.0976 29.0163 11.194 28.9891C11.2904 28.9619 11.3803 28.9157 11.4586 28.8532C11.5368 28.7907 11.6018 28.7131 11.6496 28.6251C13.4158 25.5726 16.5377 23.7501 19.9999 23.7501C23.4621 23.7501 26.584 25.5726 28.3502 28.6251C28.398 28.7131 28.4629 28.7907 28.5412 28.8532C28.6194 28.9157 28.7094 28.9619 28.8058 28.9891C28.9022 29.0163 29.0031 29.0238 29.1024 29.0114C29.2018 28.999 29.2977 28.9667 29.3844 28.9167C29.4712 28.8666 29.547 28.7996 29.6074 28.7197C29.6678 28.6399 29.7116 28.5487 29.7363 28.4516C29.7609 28.3545 29.7658 28.2535 29.7508 28.1545C29.7357 28.0555 29.701 27.9605 29.6486 27.8751ZM14.7499 17.0001C14.7499 15.9618 15.0578 14.9467 15.6347 14.0834C16.2115 13.22 17.0315 12.5471 17.9908 12.1497C18.9501 11.7524 20.0057 11.6484 21.0241 11.851C22.0425 12.0536 22.978 12.5536 23.7122 13.2878C24.4464 14.022 24.9464 14.9575 25.149 15.9759C25.3516 16.9943 25.2476 18.0499 24.8503 19.0092C24.4529 19.9685 23.78 20.7884 22.9166 21.3653C22.0533 21.9422 21.0382 22.2501 19.9999 22.2501C18.608 22.2486 17.2735 21.695 16.2892 20.7108C15.305 19.7265 14.7514 18.392 14.7499 17.0001Z" fill="#343330"/>
</svg>
