<svg width="20" height="21" viewBox="0 0 20 21" fill="none" xmlns="http://www.w3.org/2000/svg">
<g id="XLogo">
<path id="Vector" d="M16.7969 17.8047C16.7431 17.9027 16.664 17.9845 16.5678 18.0415C16.4716 18.0986 16.3619 18.1287 16.2501 18.1289H12.5001C12.3949 18.1289 12.2914 18.1023 12.1992 18.0516C12.107 18.001 12.0291 17.9278 11.9727 17.8391L8.80943 12.868L4.21256 17.9242C4.1005 18.0446 3.94551 18.116 3.78119 18.1228C3.61687 18.1297 3.45647 18.0715 3.33476 17.9609C3.21305 17.8503 3.13984 17.6962 3.131 17.5319C3.12217 17.3677 3.17842 17.2066 3.28756 17.0836L8.11334 11.7711L3.22272 4.08984C3.16248 3.99535 3.12876 3.88639 3.12509 3.77439C3.12142 3.66239 3.14793 3.55146 3.20184 3.45322C3.25575 3.35498 3.33509 3.27304 3.43153 3.21598C3.52798 3.15893 3.638 3.12885 3.75006 3.12891H7.50006C7.60525 3.12894 7.70873 3.15552 7.80091 3.20619C7.89309 3.25685 7.971 3.32996 8.0274 3.41875L11.1907 8.38984L15.7876 3.33359C15.8996 3.21322 16.0546 3.14186 16.2189 3.135C16.3832 3.12813 16.5437 3.18631 16.6654 3.29692C16.7871 3.40753 16.8603 3.56165 16.8691 3.72588C16.878 3.8901 16.8217 4.05119 16.7126 4.17422L11.8868 9.48281L16.7774 17.1688C16.8373 17.2633 16.8707 17.3722 16.8741 17.484C16.8776 17.5959 16.8509 17.7066 16.7969 17.8047Z" fill="#979A98"/>
</g>
</svg>
