<svg width="122" height="19" viewBox="0 0 122 19" fill="none" xmlns="http://www.w3.org/2000/svg">
<g id="Group 1000004338">
<path id="Vector" d="M27.9355 16.2958V3.2832H32.7254C34.0763 3.2832 35.1392 3.63748 35.9139 4.34603C36.6885 5.05459 37.0794 6.12805 37.0865 7.56641C37.0865 10.5116 35.6694 11.9842 32.8352 11.9842H31.0638V16.2993L27.9355 16.2958ZM31.0638 6.02176V9.26694H31.5917C31.8893 9.26694 32.116 9.26694 32.2684 9.26694C32.4681 9.2531 32.6661 9.22108 32.86 9.17128C33.0551 9.13506 33.2385 9.05244 33.395 8.93038C33.5323 8.79954 33.6388 8.6398 33.7067 8.46273C33.8051 8.2163 33.851 7.95204 33.8413 7.68686C33.8496 7.41433 33.8063 7.14269 33.7138 6.8862C33.6483 6.70313 33.5458 6.5355 33.4127 6.39375C33.2657 6.26338 33.0854 6.17631 32.8919 6.14222C32.6969 6.09776 32.4993 6.06581 32.3002 6.04656C32.1373 6.04656 31.8999 6.02885 31.5917 6.02885L31.0638 6.02176Z" fill="#004C8F"/>
<path id="Vector_2" d="M45.3453 10.9632L49.1289 16.2774H45.2319L42.2808 11.2715H42.2453V16.2774H39.1171V3.2825H43.7971C44.8966 3.22957 45.9769 3.58544 46.8297 4.28156C47.5949 4.95115 47.9775 5.95021 47.9775 7.28583C47.9955 8.14493 47.7481 8.98867 47.269 9.702C47.0501 10.0313 46.7669 10.3128 46.4362 10.5296C46.1056 10.7463 45.7345 10.8939 45.3453 10.9632ZM42.2524 5.87227V9.11745H42.5571C44.0061 9.11745 44.7288 8.57894 44.7288 7.49486C44.7288 6.41077 44.0203 5.87227 42.5571 5.87227H42.2524Z" fill="#004C8F"/>
<path id="Vector_3" d="M57.7931 6.14576H54.0732V8.32102H57.616V11.1871H54.0732V13.4297H57.7931V16.2958H50.9414V3.2832H57.7931V6.14576Z" fill="#004C8F"/>
<path id="Vector_4" d="M68.5386 4.00567L67.2915 6.63087C66.7359 6.0873 65.9927 5.77786 65.2155 5.76643C64.8865 5.76699 64.5659 5.86975 64.2979 6.06048C64.1652 6.14525 64.0567 6.26285 63.9828 6.40189C63.909 6.54092 63.8723 6.69668 63.8763 6.85406C63.8764 6.97019 63.8997 7.08513 63.9447 7.19218C63.9897 7.29923 64.0556 7.39625 64.1385 7.47759C64.2786 7.63384 64.4469 7.76242 64.6344 7.85667C64.7868 7.92398 64.9887 8.00546 65.2651 8.09757L66.0622 8.35619C66.8864 8.58952 67.6391 9.02556 68.2516 9.62451C68.8009 10.2546 69.0808 11.0752 69.031 11.9096C69.031 13.4873 68.6165 14.6552 67.7875 15.4134C66.8485 16.2474 65.6237 16.6866 64.3687 16.6392C62.8324 16.6311 61.3432 16.1084 60.1387 15.1548L61.4814 12.4304C62.4261 13.3279 63.352 13.7766 64.2589 13.7766C64.6404 13.7833 65.0136 13.6651 65.3217 13.4401C65.4716 13.3267 65.5913 13.1782 65.6704 13.0077C65.7495 12.8372 65.7855 12.6499 65.7752 12.4623C65.7752 11.8777 65.2686 11.4207 64.2589 11.1018C64.227 11.1018 64.0995 11.0487 63.8763 10.9778C63.4138 10.8476 62.9605 10.6866 62.5194 10.496C62.1617 10.3318 61.8279 10.1197 61.5274 9.86542C61.1969 9.59866 60.9508 9.24178 60.8189 8.83801C60.6682 8.341 60.5977 7.82318 60.6099 7.30399C60.584 6.7251 60.6737 6.14687 60.8739 5.60306C61.074 5.05925 61.3805 4.56078 61.7754 4.13676C62.1625 3.74009 62.628 3.42842 63.1422 3.22164C63.6564 3.01486 64.2081 2.9175 64.762 2.93576C65.4196 2.94393 66.0729 3.04287 66.7034 3.22981C67.3469 3.40582 67.964 3.66674 68.5386 4.00567Z" fill="#004C8F"/>
<path id="Vector_5" d="M79.0031 4.00582L77.7595 6.63102C77.2031 6.08868 76.4604 5.77945 75.6835 5.76658C75.3545 5.76668 75.0337 5.86947 74.7659 6.06063C74.6328 6.14523 74.5238 6.26269 74.4493 6.4017C74.3749 6.5407 74.3375 6.69656 74.3408 6.85421C74.3416 6.97056 74.3655 7.08559 74.4111 7.19263C74.4567 7.29967 74.5231 7.39658 74.6065 7.47774C74.7476 7.63447 74.9171 7.76309 75.106 7.85682C75.2619 7.92413 75.4603 8.00561 75.7366 8.09772L76.5231 8.3528C77.3467 8.58527 78.0985 9.02146 78.709 9.62112C79.2596 10.2507 79.5408 11.0713 79.492 11.9062C79.492 13.4839 79.0763 14.6518 78.2449 15.41C77.3074 16.2441 76.0836 16.6834 74.8297 16.6358C73.2931 16.629 71.8034 16.1063 70.5996 15.1514L71.9388 12.427C72.8847 13.3233 73.8129 13.7732 74.7163 13.7732C75.0978 13.7799 75.471 13.6617 75.7791 13.4367C75.9297 13.3239 76.0499 13.1756 76.1291 13.0049C76.2082 12.8343 76.2438 12.6466 76.2326 12.4589C76.2326 11.8743 75.7295 11.4173 74.7163 11.0985C74.6844 11.0985 74.5569 11.0453 74.3337 10.9745C73.8714 10.8436 73.4181 10.6826 72.9768 10.4926C72.6207 10.3275 72.2882 10.1154 71.9884 9.86202C71.6569 9.59612 71.4106 9.23895 71.2798 8.83462C71.1305 8.3374 71.0611 7.8196 71.0743 7.3006C71.0522 6.71998 71.1467 6.14081 71.3524 5.59739C71.5581 5.05397 71.8707 4.55734 72.2718 4.13691C72.6585 3.73971 73.1239 3.4277 73.6382 3.22088C74.1525 3.01405 74.7043 2.91699 75.2583 2.93591C75.9148 2.94413 76.5669 3.04308 77.1962 3.22996C77.8304 3.40702 78.438 3.66795 79.0031 4.00582Z" fill="#004C8F"/>
<path id="Vector_6" d="M84.2917 3.2832L86.382 11.6867H86.4139L88.9257 3.2832H91.4056L93.7686 11.6867H93.8005L96.0679 3.2832H99.3272L95.4798 16.2958H92.2913L90.1656 8.75324H90.1338L87.7707 16.2958H84.5822L80.9863 3.2832H84.2917Z" fill="#ED2224"/>
<path id="Vector_7" d="M107.185 14.0213H102.874L102.031 16.2958H98.7109L103.341 3.2832H106.76L111.291 16.2958H107.958L107.185 14.0213ZM106.339 11.4316L105.06 7.29007H105.028L103.735 11.4316H106.339Z" fill="#ED2224"/>
<path id="Vector_8" d="M114.433 10.0463L109.994 3.2832H113.746L115.996 6.82597L118.249 3.2832H122.001L117.561 10.0463V16.2958H114.433V10.0463Z" fill="#ED2224"/>
<path id="Vector_9" d="M27.4998 0.574759L0.199219 18.9972C0.291331 18.9582 14.0798 11.4794 14.0798 11.4794C14.0798 11.4794 16.2338 14.59 17.2435 15.9964L17.4312 16.2551C17.4312 16.2551 20.2194 16.2551 21.4487 16.2551H21.8881C20.3505 14.0727 18.7988 11.8975 17.2825 9.73636C17.3852 9.65134 20.0812 8.16337 21.3496 7.43002L21.803 7.17494L22.0864 7.62487C22.4053 8.14211 22.7525 8.64518 23.128 9.21203L27.6061 0.624357C27.6061 0.596015 27.769 0.351562 27.769 0.351562L27.4998 0.574759Z" fill="#ED2224"/>
<path id="Vector_10" d="M10.1288 11.725L11.6097 10.7259L14.001 9.11396L27.3183 0.118865L27.4777 0.00195312H27.2687L17.682 0.728222L18.9822 2.72989L14.8796 6.13803C14.7486 5.98924 12.6725 3.07708 11.7124 1.74854L11.4927 1.45095H7.22017L12.18 8.37707C9.09075 10.9385 0 18.5306 0 18.5306L0.297593 18.3606L10.1288 11.725Z" fill="#ED2224"/>
</g>
</svg>
