<svg width="20" height="21" viewBox="0 0 20 21" fill="none" xmlns="http://www.w3.org/2000/svg">
<g id="YoutubeLogo">
<path id="Vector" d="M18.307 6.06016C18.2334 5.77215 18.0924 5.50577 17.8955 5.283C17.6987 5.06022 17.4517 4.88744 17.175 4.77891C14.4969 3.74453 10.2344 3.75391 10 3.75391C9.76562 3.75391 5.50312 3.74453 2.825 4.77891C2.54825 4.88744 2.30128 5.06022 2.10445 5.283C1.90762 5.50577 1.76658 5.77215 1.69297 6.06016C1.49063 6.83985 1.25 8.26485 1.25 10.6289C1.25 12.993 1.49063 14.418 1.69297 15.1977C1.76647 15.4858 1.90746 15.7523 2.1043 15.9753C2.30113 16.1982 2.54816 16.3711 2.825 16.4797C5.39062 17.4695 9.40625 17.5039 9.94844 17.5039H10.0516C10.5938 17.5039 14.6117 17.4695 17.175 16.4797C17.4518 16.3711 17.6989 16.1982 17.8957 15.9753C18.0925 15.7523 18.2335 15.4858 18.307 15.1977C18.5094 14.4164 18.75 12.993 18.75 10.6289C18.75 8.26485 18.5094 6.83985 18.307 6.06016ZM12.5461 11.1383L9.42109 13.3258C9.32761 13.3913 9.21799 13.4299 9.1041 13.4375C8.99022 13.4451 8.87643 13.4214 8.77508 13.3689C8.67373 13.3164 8.58868 13.2372 8.52917 13.1398C8.46966 13.0424 8.43796 12.9305 8.4375 12.8164V8.44141C8.43753 8.32708 8.46893 8.21494 8.52827 8.11721C8.5876 8.01948 8.67261 7.9399 8.77404 7.88713C8.87547 7.83436 8.98943 7.81043 9.10352 7.81793C9.21761 7.82544 9.32745 7.86409 9.42109 7.92969L12.5461 10.1172C12.6283 10.1748 12.6954 10.2514 12.7417 10.3405C12.7881 10.4296 12.8123 10.5285 12.8123 10.6289C12.8122 10.7293 12.7881 10.8282 12.7417 10.9173C12.6954 11.0064 12.6283 11.083 12.5461 11.1406V11.1383Z" fill="#979A98"/>
</g>
</svg>
